<svg xmlns="http://www.w3.org/2000/svg" width="37.005" height="33" viewBox="0 0 37.005 33">
  <path id="icon" d="M1013.146,2566.4l-13.361-5.7c-1.142-.487-1.8-1.245-1.8-2.076s.655-1.588,1.8-2.076l2.12-.9,10.228,4.364a12.2,12.2,0,0,0,8.716,0l10.227-4.364,2.121.9c1.142.488,1.8,1.244,1.8,2.076s-.655,1.588-1.8,2.076l-13.361,5.7a9.617,9.617,0,0,1-6.689,0Zm0-8.123-13.361-5.7c-1.142-.488-1.8-1.244-1.8-2.076s.655-1.588,1.8-2.076l2.121-.9,10.227,4.364a12.182,12.182,0,0,0,8.716,0l10.227-4.364,2.121.9c1.141.488,1.8,1.244,1.8,2.076s-.655,1.588-1.8,2.076l-13.361,5.7a9.617,9.617,0,0,1-6.689,0Zm0-8.123-13.361-5.7c-1.142-.487-1.8-1.244-1.8-2.075s.655-1.589,1.8-2.076l13.361-5.7a9.6,9.6,0,0,1,6.69,0l13.361,5.7c1.142.487,1.8,1.244,1.8,2.076s-.655,1.588-1.8,2.075l-13.361,5.7a9.595,9.595,0,0,1-6.689,0Z" transform="translate(-997.988 -2533.999)" fill="#fff"/>
</svg>
