<svg xmlns="http://www.w3.org/2000/svg" width="41.99" height="41.99" viewBox="0 0 41.99 41.99">
  <path id="icon" d="M1023.688,2975.994h-21.719v-.724a2.174,2.174,0,0,1,2.172-2.172h17.375a2.175,2.175,0,0,1,2.172,2.172v.723Zm-5.348-4.344h-11.023l.965-2.9h9.093l.965,2.9Zm11.863-4.343h-34.75a1.45,1.45,0,0,1-1.448-1.448V2939.8a1.45,1.45,0,0,1,1.448-1.448h15.927v2.9H998.349a1.449,1.449,0,0,0-1.448,1.448v18.823a1.45,1.45,0,0,0,1.448,1.448h28.958a1.45,1.45,0,0,0,1.448-1.448v-5.791h2.9v10.135A1.45,1.45,0,0,1,1030.2,2967.307Zm-7.237-2.894v1.447h1.447v-1.447Zm-2.9,0v1.447h1.447v-1.447Zm-2.895,0v1.447h1.447v-1.447Zm10.136-2.9H998.349v-18.823h13.031v10.859a2.175,2.175,0,0,0,2.172,2.172h13.755v5.791Zm-2.894-2.9v1.447h1.447v-1.447Zm-24.616,0v1.447h23.169v-1.447Zm1.447-7.239v4.344h8.688v-7.24h-2.9v-4.343H999.8v7.239Zm34.026,2.9h-21.719a.725.725,0,0,1-.724-.724v-3.62h23.167v3.62A.725.725,0,0,1,1035.271,2954.275Zm-19.547-2.894v1.447H1033.1v-1.447Zm-7.24,2.894h-5.792v-2.9h4.344v-1.448h1.448v4.343Zm-2.9-4.347h-4.342v-4.342h4.342v4.341Zm30.408-1.445h-23.167v-13.755a.725.725,0,0,1,.724-.724h21.719a.725.725,0,0,1,.724.724v13.754Zm-15.927-12.754h0v11.03l11.031-5.516-11.031-5.515Z" transform="translate(-994.005 -2934.005)" fill="#fff"/>
</svg>
