<svg xmlns="http://www.w3.org/2000/svg" width="23" height="23" viewBox="0 0 23 23">
  <g id="Group_14" data-name="Group 14" transform="translate(-0.2)">
    <g id="Ellipse_8" data-name="Ellipse 8" transform="translate(0.2)" fill="none" stroke="#0cb3bf" stroke-width="1">
      <circle cx="11.5" cy="11.5" r="11.5" stroke="none"/>
      <circle cx="11.5" cy="11.5" r="11" fill="none"/>
    </g>
    <path id="Icon_awesome-instagram" data-name="Icon awesome-instagram" d="M5.5,4.917a2.82,2.82,0,1,0,2.82,2.82A2.816,2.816,0,0,0,5.5,4.917Zm0,4.654A1.834,1.834,0,1,1,7.331,7.738,1.837,1.837,0,0,1,5.5,9.571ZM9.091,4.8a.658.658,0,1,1-.658-.658A.656.656,0,0,1,9.091,4.8Zm1.868.668a3.255,3.255,0,0,0-.889-2.3,3.277,3.277,0,0,0-2.3-.889c-.908-.052-3.63-.052-4.538,0a3.272,3.272,0,0,0-2.3.886,3.266,3.266,0,0,0-.889,2.3c-.052.908-.052,3.63,0,4.538a3.255,3.255,0,0,0,.889,2.3,3.281,3.281,0,0,0,2.3.889c.908.052,3.63.052,4.538,0a3.255,3.255,0,0,0,2.3-.889,3.277,3.277,0,0,0,.889-2.3C11.01,9.1,11.01,6.378,10.959,5.47ZM9.785,10.98A1.856,1.856,0,0,1,8.74,12.026a12.123,12.123,0,0,1-3.242.221,12.217,12.217,0,0,1-3.242-.221A1.856,1.856,0,0,1,1.209,10.98,12.123,12.123,0,0,1,.988,7.738,12.217,12.217,0,0,1,1.209,4.5,1.856,1.856,0,0,1,2.255,3.45,12.123,12.123,0,0,1,5.5,3.229,12.217,12.217,0,0,1,8.74,3.45,1.856,1.856,0,0,1,9.785,4.5a12.123,12.123,0,0,1,.221,3.242A12.116,12.116,0,0,1,9.785,10.98Z" transform="translate(6.205 3.762)" fill="#0cb3bf"/>
  </g>
</svg>
