<svg xmlns="http://www.w3.org/2000/svg" width="32" height="31" viewBox="0 0 32 31">
  <g id="Group_2" data-name="Group 2" transform="translate(0.211)">
    <g id="Ellipse_8" data-name="Ellipse 8" transform="translate(-0.211)" fill="none" stroke="#bce31c" stroke-width="1.5">
      <ellipse cx="16" cy="15.5" rx="16" ry="15.5" stroke="none"/>
      <ellipse cx="16" cy="15.5" rx="15.25" ry="14.75" fill="none"/>
    </g>
    <path id="Icon_awesome-instagram" data-name="Icon awesome-instagram" d="M7.524,5.9a3.859,3.859,0,1,0,3.859,3.859A3.853,3.853,0,0,0,7.524,5.9Zm0,6.368a2.509,2.509,0,1,1,2.509-2.509A2.514,2.514,0,0,1,7.524,12.273Zm4.917-6.526a.9.9,0,1,1-.9-.9A.9.9,0,0,1,12.442,5.747ZM15,6.66a4.455,4.455,0,0,0-1.216-3.154,4.484,4.484,0,0,0-3.154-1.216c-1.243-.071-4.968-.071-6.21,0A4.478,4.478,0,0,0,1.264,3.5,4.469,4.469,0,0,0,.048,6.657c-.071,1.243-.071,4.968,0,6.21a4.455,4.455,0,0,0,1.216,3.154,4.49,4.49,0,0,0,3.154,1.216c1.243.071,4.968.071,6.21,0a4.455,4.455,0,0,0,3.154-1.216A4.484,4.484,0,0,0,15,12.868C15.068,11.625,15.068,7.9,15,6.66ZM13.392,14.2a2.54,2.54,0,0,1-1.431,1.431,16.589,16.589,0,0,1-4.437.3,16.719,16.719,0,0,1-4.437-.3A2.54,2.54,0,0,1,1.657,14.2a16.589,16.589,0,0,1-.3-4.437,16.719,16.719,0,0,1,.3-4.437A2.54,2.54,0,0,1,3.087,3.9a16.589,16.589,0,0,1,4.437-.3,16.719,16.719,0,0,1,4.437.3,2.54,2.54,0,0,1,1.431,1.431,16.589,16.589,0,0,1,.3,4.437A16.58,16.58,0,0,1,13.392,14.2Z" transform="translate(8.489 5.973)" fill="#bce31c"/>
  </g>
</svg>
