<svg xmlns="http://www.w3.org/2000/svg" width="397.531" height="333.497" viewBox="0 0 397.531 333.497">
  <g id="Group_78" data-name="Group 78" transform="translate(-663.307 -98.193)">
    <g id="Group_45" data-name="Group 45" transform="translate(663.307 111.728)">
      <g id="Group_44" data-name="Group 44" transform="translate(0)">
        <g id="Group_43" data-name="Group 43" transform="translate(0 0)">
          <ellipse id="Ellipse_13" data-name="Ellipse 13" cx="53.035" cy="5.188" rx="53.035" ry="5.188" transform="translate(291.46 309.585)" fill="#aee4ed"/>
          <path id="Path_14" data-name="Path 14" d="M331.218,347.715h-6.245V341.47h-3.9v6.245h-6.245v3.9h6.245v6.245h3.9v-6.245h6.245Z" transform="translate(-314.831 -91.603)" fill="#30c5cc"/>
          <path id="Path_15" data-name="Path 15" d="M334.97,337.449a3.86,3.86,0,1,1-3.86-3.861A3.859,3.859,0,0,1,334.97,337.449Z" transform="translate(-312.898 -92.83)" fill="#3d9cff"/>
          <rect id="Rectangle_10" data-name="Rectangle 10" width="336.565" height="269.789" rx="18.482" transform="translate(29.231 24.809)" fill="#30c5cc"/>
          <rect id="Rectangle_11" data-name="Rectangle 11" width="250.573" height="316.22" rx="12.013" transform="translate(355.623 34.417) rotate(90)" fill="#0b9b9b"/>
          <rect id="Rectangle_12" data-name="Rectangle 12" width="299.645" height="236.083" rx="7.76" transform="translate(47.691 41.661)" fill="#c6f4ff"/>
          <path id="Path_16" data-name="Path 16" d="M322.64,365.139a38.518,38.518,0,0,0,32.894,18.611H666.722a38.518,38.518,0,0,0,32.894-18.611Z" transform="translate(-313.615 -87.918)" fill="#0b9b9b"/>
          <path id="Path_17" data-name="Path 17" d="M326.663,370.6H695.594a38.806,38.806,0,0,0,4.023-5.462H322.64A38.8,38.8,0,0,0,326.663,370.6Z" transform="translate(-313.615 -87.918)" fill="#30c5cc"/>
          <rect id="Rectangle_13" data-name="Rectangle 13" width="83.78" height="46.886" transform="translate(71.248 181.993)" fill="#bce31c"/>
          <g id="Group_27" data-name="Group 27" transform="translate(68.513 61.973)">
            <rect id="Rectangle_14" data-name="Rectangle 14" width="31.517" height="4.342" transform="translate(84.685)" fill="#30c5cc"/>
            <rect id="Rectangle_15" data-name="Rectangle 15" width="19.24" height="4.342" transform="translate(43.932)" fill="#30c5cc"/>
            <rect id="Rectangle_16" data-name="Rectangle 16" width="38.119" height="4.342" fill="#30c5cc"/>
            <rect id="Rectangle_17" data-name="Rectangle 17" width="8.267" height="4.342" transform="translate(69.196)" fill="#30c5cc"/>
            <rect id="Rectangle_18" data-name="Rectangle 18" width="19.174" height="4.342" transform="translate(124.221)" fill="#30c5cc"/>
          </g>
          <g id="Group_28" data-name="Group 28" transform="translate(68.513 74.655)">
            <rect id="Rectangle_19" data-name="Rectangle 19" width="11.824" height="4.341" transform="translate(84.685)" fill="#30c5cc"/>
            <rect id="Rectangle_20" data-name="Rectangle 20" width="11.823" height="4.341" transform="translate(101.21)" fill="#30c5cc"/>
            <rect id="Rectangle_21" data-name="Rectangle 21" width="19.24" height="4.341" transform="translate(24.332)" fill="#30c5cc"/>
            <rect id="Rectangle_22" data-name="Rectangle 22" width="18.877" height="4.341" fill="#30c5cc"/>
            <rect id="Rectangle_23" data-name="Rectangle 23" width="31.684" height="4.341" transform="translate(48.853)" fill="#30c5cc"/>
          </g>
          <g id="Group_32" data-name="Group 32" transform="translate(71.701 163.768)">
            <rect id="Rectangle_24" data-name="Rectangle 24" width="23.494" height="6.473" fill="#31d0a8"/>
            <rect id="Rectangle_25" data-name="Rectangle 25" width="23.494" height="6.473" transform="translate(59.834)" fill="#31d0a8"/>
            <rect id="Rectangle_26" data-name="Rectangle 26" width="23.494" height="6.473" transform="translate(29.917)" fill="#31d0a8"/>
          </g>
          <g id="Group_33" data-name="Group 33" transform="translate(177.193 38.908)">
            <rect id="Rectangle_27" data-name="Rectangle 27" width="76.652" height="28.555" transform="translate(0 18.254) rotate(-13.777)" fill="#bce31c"/>
            <rect id="Rectangle_28" data-name="Rectangle 28" width="56.46" height="3.948" transform="translate(4.857 21.051) rotate(-13.777)" fill="#c9f517"/>
            <rect id="Rectangle_29" data-name="Rectangle 29" width="47.177" height="3.948" transform="translate(6.527 27.866) rotate(-13.777)" fill="#c9f517"/>
            <rect id="Rectangle_30" data-name="Rectangle 30" width="22.384" height="3.948" transform="matrix(0.971, -0.238, 0.238, 0.971, 8.358, 35.331)" fill="#c9f517"/>
            <rect id="Rectangle_31" data-name="Rectangle 31" width="11.988" height="3.946" transform="translate(54.631 16.176) rotate(-13.777)" fill="#fff"/>
          </g>
          <rect id="Rectangle_32" data-name="Rectangle 32" width="83.612" height="68.228" transform="translate(70.815 88.404)" fill="#fff"/>
          <g id="Group_34" data-name="Group 34" transform="translate(160.688 127.755)">
            <rect id="Rectangle_33" data-name="Rectangle 33" width="164.434" height="30.769" fill="#4cb0dd"/>
            <rect id="Rectangle_34" data-name="Rectangle 34" width="44.498" height="21.863" transform="translate(115.015 4.453)" fill="#fff"/>
            <rect id="Rectangle_35" data-name="Rectangle 35" width="102.853" height="4.217" transform="translate(6.013 5.779)" fill="#75d5ef"/>
            <rect id="Rectangle_36" data-name="Rectangle 36" width="102.853" height="4.217" transform="translate(6.013 13.276)" fill="#75d5ef"/>
            <rect id="Rectangle_37" data-name="Rectangle 37" width="69.245" height="4.217" transform="translate(6.013 20.774)" fill="#75d5ef"/>
          </g>
          <g id="Group_38" data-name="Group 38" transform="translate(160.726 180.503)">
            <g id="Group_35" data-name="Group 35">
              <rect id="Rectangle_38" data-name="Rectangle 38" width="158.02" height="74.143" fill="#fff"/>
              <rect id="Rectangle_39" data-name="Rectangle 39" width="158.02" height="12.293" fill="#bce31c"/>
              <rect id="Rectangle_40" data-name="Rectangle 40" width="91.247" height="6.258" transform="translate(3.833 29.773)" fill="#98dbe5"/>
              <rect id="Rectangle_41" data-name="Rectangle 41" width="81.828" height="6.258" transform="translate(3.833 40.9)" fill="#98dbe5"/>
              <rect id="Rectangle_42" data-name="Rectangle 42" width="55.189" height="6.258" transform="translate(3.833 52.025)" fill="#98dbe5"/>
              <rect id="Rectangle_43" data-name="Rectangle 43" width="32.891" height="6.258" transform="translate(3.833 19.523)" fill="#98dbe5"/>
            </g>
            <g id="Group_36" data-name="Group 36" transform="translate(103.966 19.218)">
              <rect id="Rectangle_44" data-name="Rectangle 44" width="47.726" height="47.727" fill="#86d2e8"/>
              <path id="Path_34" data-name="Path 34" d="M571.325,320.256a6.043,6.043,0,0,0,1.2-3.614V313a6.078,6.078,0,1,0-12.156,0v3.646a6.048,6.048,0,0,0,1.315,3.77,14.34,14.34,0,0,0-9.575,13.524h30.058S581,323.061,571.325,320.256Z" transform="translate(-542.582 -296.704)" fill="#f6fffa"/>
            </g>
            <g id="Group_37" data-name="Group 37" transform="translate(5.063 3.354)">
              <circle id="Ellipse_14" data-name="Ellipse 14" cx="3.102" cy="3.102" r="3.102" fill="#db5a28"/>
              <circle id="Ellipse_15" data-name="Ellipse 15" cx="3.102" cy="3.102" r="3.102" transform="translate(9.938)" fill="#c9f517"/>
              <circle id="Ellipse_16" data-name="Ellipse 16" cx="3.102" cy="3.102" r="3.102" transform="translate(21.468)" fill="#1fb288"/>
            </g>
          </g>
          <rect id="Rectangle_45" data-name="Rectangle 45" width="55.341" height="55.341" transform="translate(264.942 59.013)" fill="#bce31c"/>
          <g id="Group_41" data-name="Group 41" transform="translate(306.009 114.739)">
            <path id="Path_35" data-name="Path 35" d="M613.25,389.088s.477,1.456-3.987,3.492-9.177,1.319-10.334,3.029a9.37,9.37,0,0,0-1.426,3.332h25.4s-.192-7.014-3.068-10.127C620.2,389.484,613.25,389.088,613.25,389.088Z" transform="translate(-576.831 -198.971)" fill="#9e472d"/>
            <path id="Path_36" data-name="Path 36" d="M637.107,389.078s.459,1.4-3.835,3.358-8.824,1.267-9.935,2.912a9,9,0,0,0-1.372,3.2h24.423s-.185-6.743-2.951-9.738C643.79,389.458,637.107,389.078,637.107,389.078Z" transform="translate(-573.023 -198.971)" fill="#9e472d"/>
            <g id="Group_39" data-name="Group 39" transform="translate(0 30.407)">
              <path id="Path_37" data-name="Path 37" d="M611.029,277l-18.443,3.243-12.971-27.765,19.861-1.621Z" transform="translate(-579.616 -250.856)" fill="#fff"/>
            </g>
            <g id="Group_40" data-name="Group 40" transform="translate(8.348 53.742)">
              <path id="Path_38" data-name="Path 38" d="M586.878,271.049a.032.032,0,0,1,.015,0C586.83,271.076,586.82,271.079,586.878,271.049Z" transform="translate(-586.84 -271.048)" fill="#262845"/>
            </g>
            <path id="Path_39" data-name="Path 39" d="M618.173,228.687s-2.432,4.863-2.432,9.322c0,3.117.4,7.619.634,10.049a1.4,1.4,0,0,0,1.807,1.2l3.638-1.119-.2,5.269,10.148-.176,2.215-21.306S625.469,222.607,618.173,228.687Z" transform="translate(-573.992 -224.221)" fill="#fd9e71"/>
            <path id="Path_40" data-name="Path 40" d="M619.009,240.2s.57-4.218,3.753-3.346-.465,5.13-.465,5.13l3.039,5.472a9.34,9.34,0,0,0,7.094-.2s3.377-10.268,3.377-13.51-2.955-5.433-2.955-5.433-7.921-3.958-12.176-3.755-4.662,4.459-4.662,4.459-1.621,3.243,0,4.661S619.009,240.2,619.009,240.2Z" transform="translate(-574.062 -224.545)" fill="#201251"/>
            <path id="Path_41" data-name="Path 41" d="M631.478,247.117l-.459,2.932-10.485.04S622.561,246.847,631.478,247.117Z" transform="translate(-573.246 -221.034)" fill="#6aa5cc"/>
            <path id="Path_42" data-name="Path 42" d="M592.289,270.972s.734-2.3-2.229-3.648a8.566,8.566,0,0,0-1.216-3.851c-.623-.621-1.014,2.837-1.014,2.837s-2.9-5.168-3.648-3.851,6.554,11.485,6.756,11.89S592.289,270.972,592.289,270.972Z" transform="translate(-578.913 -218.676)" fill="#fd9e71"/>
            <path id="Path_43" data-name="Path 43" d="M615.753,298.727l-7.027,59.449,1.426,46.082,8.842-.632s2.5-24.237,2.7-30.317-1.621-15.4-1.621-15.4l8.917-36.75,1.483.27.408,36.21,8.123,45.99,7.433.358s.184-23.717-.424-29.595-3.783-17.631-3.783-17.631l3.243-37.494a28.937,28.937,0,0,0-2.568-20.942C642.166,298.389,615.753,298.727,615.753,298.727Z" transform="translate(-575.084 -213.059)" fill="#201251"/>
            <path id="Path_44" data-name="Path 44" d="M625.485,249.692s-12.565,4.053-14.862,6.351-8.883,25.971-8.883,25.971l-9.929-9.947-3.076,7.215S600.354,296.576,604,297.116s11.89-21.888,11.89-21.888.748,12.25,2.161,18.376a38.329,38.329,0,0,1,.811,12.7c11.244,2.041,20.807,1.621,27.156-.406l3.147-23.6s4.284.5,5.635-.986-4.863-25.942-6.214-27.833-12.619-3.824-12.619-3.824Z" transform="translate(-578.196 -220.637)" fill="#96c4ea"/>
            <path id="Path_45" data-name="Path 45" d="M631.446,263.77c-.067-.48-.86-.363-.841.114A153.934,153.934,0,0,1,629.042,294c-.106.675.9.983,1.047.289A87.631,87.631,0,0,0,631.446,263.77Z" transform="translate(-571.922 -218.486)" fill="#6aa5cc"/>
            <path id="Path_46" data-name="Path 46" d="M641.666,270.27c-.067-.34-.583-.251-.589.08a100.564,100.564,0,0,1-1.968,17.437c-1,5.179-1.915,10.363-1.58,15.658.047.741,1.194.752,1.163,0-.257-6.116.987-12.02,2.1-18C641.716,280.482,642.669,275.293,641.666,270.27Z" transform="translate(-570.611 -217.46)" fill="#6aa5cc"/>
            <path id="Path_47" data-name="Path 47" d="M615.037,270.09c-3.373,2.144-4.64,6.341-5.932,9.912-1.747,4.831-3.494,9.577-7.3,13.2-.568.54.278,1.373.854.855,7.025-6.324,6.691-16.662,12.682-23.574C615.521,270.28,615.292,269.927,615.037,270.09Z" transform="translate(-576.19 -217.461)" fill="#6aa5cc"/>
            <path id="Path_48" data-name="Path 48" d="M642.1,296.948s-17.023,2.161-27.292-1.082c.269,0,0,3.243,0,3.243a51.584,51.584,0,0,0,28.1,1.081C642.789,300.142,642.1,296.948,642.1,296.948Z" transform="translate(-574.137 -213.442)" fill="#9e472d"/>
          </g>
          <g id="Group_42" data-name="Group 42" transform="translate(196.02 58.883)">
            <path id="Path_49" data-name="Path 49" d="M487.983,356.675s-1.41,3.074-3.844,3.587-8.839,1.921-9.864,2.818-1.025,3.2-1.025,3.2h20.332s-.037-6.155-1.217-9.354C492.85,356.932,487.983,356.675,487.983,356.675Z" transform="translate(-459.631 -148.119)" fill="#1a133a"/>
            <path id="Path_50" data-name="Path 50" d="M521.9,356.675s-1.409,3.074-3.843,3.587-8.84,1.921-9.865,2.818-1.024,3.2-1.024,3.2H527.5s-.037-6.155-1.217-9.354C526.769,356.932,521.9,356.675,521.9,356.675Z" transform="translate(-454.35 -148.119)" fill="#1a133a"/>
            <path id="Path_51" data-name="Path 51" d="M518.57,184.953s-5.663-1.446-6-.543S521.32,188,521.32,188l8.19,22.71-3.066,7.266,5.636,6.149s6.148-8.327,6.661-10.762-14.6-26.9-14.6-26.9-3-9.534-3.459-9.992-5.874-.171-7.1-.15,3.57,4.877,3.57,4.877Z" transform="translate(-453.511 -176.214)" fill="#e79673"/>
            <path id="Path_52" data-name="Path 52" d="M499.167,198.847a20.766,20.766,0,0,0-3.275,7.824,26.362,26.362,0,0,0,.192,7.878l4.952-.164v4.633h9.844a51.7,51.7,0,0,1,.577-5.431c.385-1.922,3.074-5.573,3.074-5.573l-4.419-12.49-6.341-.577Z" transform="translate(-456.139 -173.298)" fill="#e79673"/>
            <path id="Path_53" data-name="Path 53" d="M501.244,205.422s1.73-4.036,3.844-2.5-.577,4.8-.577,4.8,1.345,5.573,3.651,6.341l2.306.769s5.958-5.573,6.918-7.11-1.537-10.377-3.267-12.3-9.224-1.73-9.8-2.69-2.5-2.69-4.421-1.922-1.537,7.11-1.537,7.11,2.376,2.046,2.533,3.521a7.231,7.231,0,0,1-.943,3.429Z" transform="translate(-455.726 -173.971)" fill="#201251"/>
            <path id="Path_54" data-name="Path 54" d="M494.889,216.8s9.822-1.434,15.459-1.562,14.6,2.818,14.6,2.818l6.527-6.987,8.313,7.814s-7.076,10.443-9.357,12.879-3.945,13.837-4.459,17.3-1.794,23.7-1.794,23.7-6.02,7.173-30.745-.64c-.257-.257,1.025-14.86.9-18.447s-3.331-15.757-3.971-18.7-10.855-8.842-10.855-8.842-1.262-7.178,3.452-10.633C483.573,215.882,494.889,216.8,494.889,216.8Z" transform="translate(-458.68 -170.788)" fill="#201251"/>
            <path id="Path_55" data-name="Path 55" d="M474.829,191.959s-3.716,3.459-3.972,4.868,5.112,17.46,5.112,17.46l9.776,5.723-3.452,10.634s-10.667-7.426-12.2-9.6-4.228-23.955-4.228-23.955-3.459-4.356-3.714-5.509-1.062-4.923-.467-5.664,4.558-4.842,5.138-3.624,2.714,10.091,2.714,10.091S473.932,190.422,474.829,191.959Z" transform="translate(-461.465 -175.304)" fill="#e79673"/>
            <path id="Path_56" data-name="Path 56" d="M492.679,263.952l-5.573,52.523L484.224,372.2l9.608.384s5.958-36.973,6.053-42.6-.1-12.354-.1-12.354l6.149-28.055H509.4l7.11,36.511,7.3,45.349,7.687.384s1.152-28.247,0-34.012-2.882-11.337-2.882-11.337l-3.459-37.855s3.074-13.451-1.73-24.02C522.464,262.671,492.679,263.952,492.679,263.952Z" transform="translate(-457.922 -162.62)" fill="#4c49a2"/>
          </g>
          <path id="Path_57" data-name="Path 57" d="M442.952,213.036h-6.245v-6.245h-3.9v6.245h-6.245v3.9h6.245v6.245h3.9v-6.245h6.245Z" transform="translate(-297.435 -112.571)" fill="#bce31c"/>
          <path id="Path_58" data-name="Path 58" d="M391.764,256.526a9.764,9.764,0,1,1,9.763-9.764A9.777,9.777,0,0,1,391.764,256.526Zm0-14.432a4.668,4.668,0,1,0,4.668,4.668A4.675,4.675,0,0,0,391.764,242.093Z" transform="translate(-304.374 -107.868)" fill="#30c5cc"/>
          <path id="Path_59" data-name="Path 59" d="M652.453,177.122h-6.245v-6.245h-3.9v6.245h-6.245v3.9h6.245v6.245h3.9v-6.245h6.245Z" transform="translate(-264.818 -118.163)" fill="#30c5cc"/>
          <path id="Path_60" data-name="Path 60" d="M624.281,139.92a3.86,3.86,0,1,1-3.86-3.862A3.86,3.86,0,0,1,624.281,139.92Z" transform="translate(-267.855 -123.584)" fill="#3d9cff"/>
          <path id="Path_61" data-name="Path 61" d="M559.364,200.659a9.764,9.764,0,1,1,9.764-9.764A9.777,9.777,0,0,1,559.364,200.659Zm0-14.432a4.668,4.668,0,1,0,4.669,4.668A4.674,4.674,0,0,0,559.364,186.226Z" transform="translate(-262.861 -116.566)" fill="#0cb3bf"/>
          <path id="Path_62" data-name="Path 62" d="M604.257,144.792a9.764,9.764,0,1,1,9.764-9.764A9.777,9.777,0,0,1,604.257,144.792Zm0-14.432a4.668,4.668,0,1,0,4.669,4.668A4.674,4.674,0,0,0,604.257,130.359Z" transform="translate(-271.291 -125.264)" fill="#bce31c"/>
        </g>
      </g>
    </g>
    <g id="Group_77" data-name="Group 77" transform="translate(698.791 98.193)">
      <g id="Group_75" data-name="Group 75">
        <rect id="Rectangle_57" data-name="Rectangle 57" width="123.678" height="67.979" rx="6.012" transform="matrix(-0.975, 0.22, -0.22, -0.975, 149.461, 123.343)" fill="#0cb3bf"/>
        <g id="Group_68" data-name="Group 68" transform="translate(162.918 23.06)">
          <path id="Path_139" data-name="Path 139" d="M161.223,410.159l-12.193.025-2.984-15.534,18.1-.037Z" transform="translate(-143.628 -394.613)" fill="#30c5cc"/>
          <path id="Path_140" data-name="Path 140" d="M149.982,394.645c0,1.267-.239,3.395.606,3.427s.494-2.02,1.456-1.964c.614.035-.286,6.749,2.035,6.911,1.6.111,1.3-3.293,1.468-5.423a1,1,0,0,1,1.972-.2c.017,1.067-.051,1.781,0,2.995.087,2.027,3.2,1.489,3.092-1.221s-.007-4.541-.007-4.541Z" transform="translate(-144.188 -394.615)" fill="#c9f517"/>
          <g id="Group_67" data-name="Group 67" transform="translate(0 0.141)">
            <path id="Path_141" data-name="Path 141" d="M146.1,404.05a3.259,3.259,0,0,1-.72-.075,2.546,2.546,0,0,1-1.873-1.4c-1.243-2.635,2.029-7.573,2.157-7.793l.17.889c-.029.051-2.874,4.3-1.757,6.663a1.935,1.935,0,0,0,1.445,1.07,2.8,2.8,0,0,0,.613.063c4.391-.008,11.9-8.193,11.98-8.287.307-.368.881-.021.677.29C158.447,395.859,150.819,404.039,146.1,404.05Z" transform="translate(-143.224 -394.778)" fill="#333"/>
          </g>
        </g>
        <g id="Group_69" data-name="Group 69" transform="translate(63.785)">
          <path id="Path_142" data-name="Path 142" d="M294.751,157.626c21.51-.823,51.123,15.085,40.618,53.981.228,3.289-1.742,5.636-3.836,4.994s-.249-6.876-.249-6.876C327.7,180.806,321,175.8,309.632,175.907l-26.68-.055c-6.594.972-18.58,5.584-20.378,28.733l-6.642,1.227C255.414,189.09,259.462,158.975,294.751,157.626Z" transform="translate(-254.908 -133.305)" fill="#5275a0" opacity="0.2" style="mix-blend-mode: multiply;isolation: isolate"/>
          <path id="Path_143" data-name="Path 143" d="M294.751,154.44c21.51-.823,51.123,15.085,40.618,53.981l-4.084-1.882C327.7,177.62,321,172.617,309.632,172.721l-26.68-.055c-6.594.972-18.9,6.824-20.7,29.973l-6.322-.013C255.414,185.9,259.462,155.789,294.751,154.44Z" transform="translate(-254.908 -133.507)" fill="#9e472d"/>
          <path id="Path_144" data-name="Path 144" d="M294.978,155.033l3.194,7.022s-.381,3.955-4.262,3.873-4.4-1.875-4.4-1.875L289,155.991Z" transform="translate(-250.736 -133.467)" fill="#ffb9a3"/>
          <path id="Path_145" data-name="Path 145" d="M288.924,150.167c3.642,6.439,5.256,8.442,10.018,9.41,6.166,1.254,13.083-2.905,9.868-13.157-2.621-8.359-6.589-7.071-10.475-6.756S284.99,143.211,288.924,150.167Z" transform="translate(-261.105 -134.458)" fill="#ffb9a3"/>
          <path id="Path_146" data-name="Path 146" d="M306.944,145.381a2.611,2.611,0,0,1,2.965.717,3.248,3.248,0,0,1,.817,3.1,2.824,2.824,0,0,1,2.657,2.968c1.018-2.376.468-4.848.669-7.279s-.065-5.075-1.641-6.938a7.916,7.916,0,0,0-2.363-1.82,12.217,12.217,0,0,0-10.972-.155,6.656,6.656,0,0,1-4.936.866c-4.7-1.136-7.448,2.042-4.625,5.018a3.747,3.747,0,0,0-2.312,1.6.722.722,0,0,0-.019.7.816.816,0,0,0,.431.267,5.12,5.12,0,0,0,2.472.2c-.317.269-2.061.374-2.586,1.389-1.4,2.7,4.149,1.336,4.995,1.065-.966.181-3.5,2.2-2.689,3.592.161.273,3.582,2.268,7.18-1.911a6.561,6.561,0,0,1,3.12-2.2,4.911,4.911,0,0,1,2.931.454c.687.258,2.441,1.326,2.944.69C306.535,147.016,305.823,145.94,306.944,145.381Z" transform="translate(-264.648 -134.752)" fill="#201251"/>
          <path id="Path_147" data-name="Path 147" d="M332.8,199.783c.953,3.282,1.917,3.607.761,4.13s-2.091-1.316-2.091-1.316l-5.336,1.061s1.2-3.467,2.044-3.884S332.8,199.783,332.8,199.783Z" transform="translate(-326.134 -130.644)" fill="#ffb9a3"/>
          <path id="Path_148" data-name="Path 148" d="M260.255,203.433c-.7,1.731-.889,1.743-1.86,3.824-1.857,3.978,2.491,10.267,5.19,3.4a19.21,19.21,0,0,0,.754-5.342Z" transform="translate(-183.879 -130.401)" fill="#ffb9a3"/>
        </g>
        <g id="Group_74" data-name="Group 74" transform="translate(0 137.132)">
          <path id="Path_168" data-name="Path 168" d="M364.465,290.68l2.4,4.819-5.856,2.395-.625-5.548Z" transform="translate(-331.538 -262.005)" fill="#ffb9a3"/>
          <path id="Path_169" data-name="Path 169" d="M364.581,275.929c13.284,5.783,7.841,19.8-.245,18.15-3.935-.8-5.928-13.473-5.928-13.473Z" transform="translate(-335.19 -262.939)" fill="#ffb9a3"/>
          <path id="Path_170" data-name="Path 170" d="M374.837,274.22a6.97,6.97,0,0,1,1.57-2.256,2.01,2.01,0,0,1,2.536-.133c.893.831.37,2.386-.535,3.2.779.095,1.7-.443,2.278.091.435.406.284,1.125.035,1.665a7.4,7.4,0,0,1-2.722,3.12c.674.383,1.455,1.123,1.051,1.784-.112.183-.3.309-.409.493-.257.43-.008.975.251,1.4q.628,1.037,1.354,2.012a1.186,1.186,0,0,0-1.9.33,2.025,2.025,0,0,0,.473,2.141,2.123,2.123,0,0,0,1.072.684c.365.084,1.974,5.062.718,6.036-1.551,1.206-6.831.159-7.593-1.2a3.377,3.377,0,0,1-2.987,1.237,1.837,1.837,0,0,1-1.353-2.538,3.107,3.107,0,0,1-3.748-4.5c-.651-.2-.782-1.078-.616-1.736a4.014,4.014,0,0,1,2.749-2.825,1.36,1.36,0,0,1-1.239-1.338,2.8,2.8,0,0,1,.742-1.827,6.222,6.222,0,0,1,4.566-2.182C372.987,277.647,374.013,275.751,374.837,274.22Z" transform="translate(-349.858 -263.224)" fill="#201251"/>
          <path id="Path_171" data-name="Path 171" d="M358.028,407.774s7.772,3.731,8.814,4.895c0,0-15.291.688-16.488-.034s2.449-4.871,2.449-4.871Z" transform="translate(-320.601 -254.587)" fill="#0c2340"/>
          <path id="Path_172" data-name="Path 172" d="M386.949,403.87s6.831,5.259,7.611,6.614c0,0-16.125-2.395-16.125-3.447s3.4-4.259,3.4-4.259Z" transform="translate(-378.435 -254.902)" fill="#0c2340"/>
          <path id="Path_173" data-name="Path 173" d="M391.9,340.275c.287,1.581,10.927,43.589-19.518,68.774l-8.819-2.023s10.263-9.628,15.1-26.952c4.575-16.382.941-17.989-1.8-27.012-3.036-9.988-.776-17.237-.776-17.237Z" transform="translate(-361.985 -259.145)" fill="#201251"/>
          <path id="Path_174" data-name="Path 174" d="M365.341,339.946c4.827,11.534,13.113,50.846-4.947,72.98l-9.019-.019s7.1-7.786,7.9-25.85-3.8-25.995-7.038-31.956S346,339.011,346,339.011Z" transform="translate(-320.877 -258.943)" fill="#201251"/>
          <path id="Path_175" data-name="Path 175" d="M361.29,272.639c2.4,8.448,3.184,24.055-8.817,30.342l-8.033-1.958s14.481-7.592,11.378-26.78Z" transform="translate(-310.462 -263.148)" fill="#4c49a2"/>
          <path id="Path_176" data-name="Path 176" d="M385.508,268.619l-6.236-.769s.751,26.182-29.488,28.387c-23.082,1.683-24.9,45-24.9,45,7.442,5.01,19.933,6.528,35.936,5.381,0,0-1.024-30.9,1.517-39.362C362.341,307.255,387.465,299.35,385.508,268.619Z" transform="translate(-312.552 -263.451)" fill="#4c49a2"/>
          <path id="Path_177" data-name="Path 177" d="M330.794,264.129c1.056,1.223-3.351,2.774-7.623,4.752l-5.472-.675a21.523,21.523,0,0,1,0-2.232c.068-1.14.639-1.79,1.289-.811s3.416,1.309,4.719.417S329.739,262.906,330.794,264.129Z" transform="translate(-250.215 -263.713)" fill="#ffb9a3"/>
          <path id="Path_178" data-name="Path 178" d="M351.838,272.85c2-1.971,1.473-1.851,1.473-1.851l-6.115,1.382s-1.345-2.984-2.484-3.068.858,2.057.4,2.85,1.254,2.292,1.254,2.292Z" transform="translate(-301.01 -263.359)" fill="#ffb9a3"/>
        </g>
      </g>
    </g>
  </g>
</svg>
