<svg xmlns="http://www.w3.org/2000/svg" xmlns:xlink="http://www.w3.org/1999/xlink" width="693.266" height="802.009" viewBox="0 0 693.266 802.009">
  <defs>
    <linearGradient id="linear-gradient" x1="0.332" y1="-0.212" x2="0.621" y2="1.061" gradientUnits="objectBoundingBox">
      <stop offset="0" stop-color="#4af9ff" stop-opacity="0.208"/>
      <stop offset="1" stop-color="#c5f51f" stop-opacity="0.239"/>
      <stop offset="1" stop-color="#c9f517" stop-opacity="0.239"/>
    </linearGradient>
  </defs>
  <g id="Group_86" data-name="Group 86" transform="translate(294.9 178.728)">
    <path id="Path_411" data-name="Path 411" d="M688.059,296.4c-4.353-5.575-12.3-12.372-20.506-20.353,6.415,2.215-22.3-26.042-21.728-27.875L629.9,234.5c17.565,13.212-24.744-24.859-11.074-15.007,15.427,15.5,33.718,32.992,50.939,49.183-15.389-15.465-.535-3.246.267-4.009-16.191-14.74-12.945-15.656-29.823-29.632-10.959-14.014,11.227,5.881-7.675-14.969-5.766-3.971-14.854-17.336-26.806-27.57.458-2.9,20.353,14.167,36.925,31.159-1.871-.687-9.7-6.453,3.551,6.3l-.153-6.148c8.9,7.1,13.594,9.7,31.885,27.226-19.78-21.078,17.26,11.074-6.568-13.479,14.778,16.382-7.37-3.475-10.31-5.613l-3.017-3.819c0,.076-.42-.153-1.107-.649l-30.167-31.808c-13.747-10.806,20.467,20.315,18.138,21.537-30.93-26.959-41.088-46.739-60.906-62.853-10.768-7.752,17.794,19.4,27.379,30.93l.955.305,10.119,14.74c-10.119-9.623-17.642-18.367-17.642-18.367-2.9,3.093-19.016-11.647-25.928-11.99,4.048,3.437,35.436,32.649,39.026,38.987,6.53,8.363-11.761-9.126-14.549-10.157-3.246-4.124-19.78-21.078-7.752-10.806l-21.384-20.658c-23.408-27.455-45.364-46.243-49.756-56.973-15.5-15.312-21.307-25.622-14.931-22.988L494.611,74.582c-25.2-28.066,22.3,20.964,1.986-3.4C525.77,97.57,560.748,128,582.743,151.946c8.477,4.926-6-10.272-4.544-11.761,24.1,21.537,24.744,24.821,48.114,47.159-1.527-3.589-10.2-14.7-24.171-26.692l11.417,6.95c5.079,4.811,4.277,5.575,3.437,5.308,5.8,4.048-4.009-8.515-12.258-17.489,1.031,1.375,4.353,5.575.267,2.1-5.384-6.95-15.2-19.513-21.346-25.7,10.616,12.83-15.809-12.639-2.062,3.36-6.148-6.186-18.444-18.6-14.7-16.305-14.892-12.258-13.4-8.706-29.517-23.446,12.639,10.463-3.78-6.644-6.11-9.241-5.27-3.551-2.635,2.329,3.551,9.394-26.424-25.393,1.336,7.6-24.63-19.742,9.241,9.317,8.668,11.15,1.833,5.766C500.683,70.534,496.062,62.859,483.5,49.342c-9.432-15.541,19.4,18.9,28.334,26.081l.535-4.353C508.32,67.632,494.955,52.205,494.8,55.26c-15.656-16.611-25.47-29.174-11.608-18.253-7.332-7.752-6.95-5.461-7.828-5.8-7.255-7.637-33.412-36.047-39.751-38.185,1.871.611,11.647,13.174,21.422,20.658,2.329,3.819-11.074-4.811-24.706-19.78,3.589,5.193,12.1,17.642,14.74,21.46-12.219-11.379-4.43-5.613-9.585-11.494l4.162,9.623,13.9,11.914c-11.456-7.026,18.711,24.821,26.577,35.742-20.544-20.391-21.117-23.675-30.739-35.092-26.157-23.331,12.487,13.4,7.064,11.57-4.048-3.475-9.088-8.248-15.274-14.434l16.878,19.093a54,54,0,0,1-8.134-7.943c20.353,24.4,29.594,28.6,35.894,40.973,12.525,8.4-12.792-15.656-9.355-15.427,15.962,13.632,25.164,27.99,33.412,36.964-6.492-3.246-37.918-33.45-22.988-15.045-8.668-11.112-19.36-18.94-18.1-21.575-9.623-11.456-9.966-8.477-22.109-19.856,3.284,4.2,22.3,20.964,17.756,19.4l-3.055-3.055L483.69,81c-13.441-8.668,20.276,29.479-5.613,7.293l22.3,20.964c.535,3.208-.687,5.842,2.749,11.15-12.41-12.448-12.678-14.587-16.152-19.856-6.186-1.146,4.85,13.9,20.811,32.687,16.878,14.014,15.847,12.6,27.57,21.728,29.174,31.465-20.735-16.343-7.637.458-21.384-20.7-17.6-18.329-38.873-37.918,13.709,14.931,9.165,13.4,20.773,26.577-21.231-19.589-37.956-37.574-37.8-41.622,19.856,16.038-10.425-16.878,8.4-1.184L466.2,89.284c-4.659-7.79.038-5.079-8.668-16.267l3.093,3.131L439.968,54.726l-.726.764C427.748,43.346,409.8,22.917,409.61,21.81c.993,5.461,34.711,38.529,52.505,57.889-3.36.916-41.737-34.787-24.859-15.694-10.272-9.7-21.995-18.825-30.472-28.868-4.62-6.721,9.394,5.27-5-8.9-.458,1.871-8.783-7.1-8.057-2.749,18.52,18.634,35.4,37.727,49.145,53.689,8.744,11.188,6.262,12.372-.458,7.943-.5-3.208-17.374-22.262-31.5-35.322,18.749,19.742-18.291-12.41,9.088,13.327-3.437-.153-5.46,3.246-28.792-19.093-7.179-9.928,8.363,2.291,4.659-3.895-.878-.115-7.1-5.46-12.334-10.959l4.391.458c-12.792-9.508-20.009-17.069-19.284-12.754a76.923,76.923,0,0,1,7.026,6.453c.229,1.107-1.6.5-1.375,1.642L352.9,4.321c8.668,11.112-20.926-12.334-7.675,5.5l-4.2-4.506c-6.339-2.177,35.589,38.8,38.491,45.937-9.432-10.386-18.52-18.673-28.677-28.3,9.623,11.532-8.515-4.964-15.2-9.279,13.709,10.806,21.728,22.759,29.479,28.486,21.5,20.735,19.245,23.026,15.618,21.766-28.219-26.081-11.57-18.291-41.469-43.875-3.628-1.26,11.723,14.2,17.565,18.253-4.582-1.566-9.776-2.329-27.761-17.718,19.055,21.88,7.064,11.608,32.992,38.911-.305-2.1-19.742-21.078-7.981-11.914L372.914,68.4c-.344,2.94-19.169-12.792-22.8-14.014l-7.637-9.775,3.131,3.131c-8.4-9.05-1.795-5.728-17.031-20.162,17.718,19.36-1.336,2.6,10.463,16.878l-3.093-3.131c13.212,17.833-35.016-25.355,2.367,14.09-.153-1.069,15.771,12.6,22.988,20.162-9.928-8.477-8.286-3.857-19.589-14.892l-3.246-4.2C333.965,54.955,331.254,54,334.5,58.2c13.4,13.785,24.553,23.751,31.083,32.152C354.318,84.434,334.5,58.2,320.905,48.387l12.143,16.458L319.989,53.16c-15.962-8.554,22.873,34.481,19.284,38.376-21.46-20.7-27.57-32-27.99-34.252-17.6-15.007-.993,3.857-6.95.878a22.741,22.741,0,0,0-3.666-2.558l.382.344-.344-.229c-1.909-.649.649,2.826,4.62,7.484-2.406-2.253-4.85-4.506-7.446-7.217,3.208,4.086,9.966,12.754,13.785,17.68-1.375-1.3-2.6-2.482-3.284-3.055,1.986,2.024,3.437,3.589,4.926,5.193l.42.535c-12.258-11.3-4.62-5.384-10-11.112l5,8.859L321.02,84.7l.687.916a4.729,4.729,0,0,0-1.107-.5c-7.179-6.988-13.861-12.983-16.534-13.976,1.642.611,10.386,11.112,19.436,18.6l.038.038a5.582,5.582,0,0,1-.115,1.413c-1.336-1.566-2.635-3.093-4.391-5.04-17.145-15.274-6.415-4.964,1.642,3.36a106.994,106.994,0,0,1-9.165-7.332l-.382-.382.115.153c-3.246-2.9-6.759-6.224-10.31-10.043,3.666,5.079,12.525,17.3,15.2,21-12.3-11.265-4.468-5.5-9.775-11.3l4.468,9.355,4.659,3.971c-1.26.229-5.231-2.291-13.1-9.012,25.2,28.066-13.823-5.8,16.534,27.112-4.735-2.635-13.67-14.892-15.312-14.472-1.069-.115-1.718.191-1.986.84-9.89-10.31-19.742-21-19.971-21.689.726,2.368,9.317,11.379,19.971,22.148-.42,1.833,1.642,6.033,6,12.563-.764-.42.038.687,1.986,2.9.306.42.5.726.84,1.184C300.4,107.269,289.364,98.3,280.925,88.978c-4.964-6.377,8.974,5.651-5.575-8.324-.191,1.6-8.744-7.179-7.523-3.284,7.981,7.752,15.5,15.427,22.835,23.026-3.437-1.146-3.895.267-2.444,3.4-.573-.5-1.184-1.069-1.718-1.6.878.878,1.069,1.184,1.718,1.833a42.806,42.806,0,0,0,2.215,3.7c-1.718-1.146-3.819-2.711-4.391-2.978a78.774,78.774,0,0,1-5.613-6.682c.458,2.062,6.148,8.477,13.823,16.572-2.673-.344-7.523-2.444-25.89-19.7-7.6-9.432,7.752,2.978,3.628-2.826-.8-.229-6.95-5.575-12.334-10.959l3.895.916c-12.487-9.737-19.895-17.145-18.673-13.327,1.986,1.718,5.957,5.117,7.026,6.415.305.993-1.3.267-.955,1.26L229.337,55.986c9.088,10.692-20.124-13.059-6.033,3.971l-4.277-4.43c-5.919-2.635,36.505,37.842,40.057,44.371-9.7-10.119-18.864-18.367-29.059-27.875,10,11.112-8.21-5.27-14.663-9.814,13.556,10.959,22.148,22.262,29.823,28.143,6.721,6.377,11.036,10.768,13.938,13.976C251.446,98.563,246.1,93.98,243.2,92.109c-4.391-5.5-6.033-8.668-23.79-23.98-3.36-1.489,12.258,13.747,17.947,17.947-4.239-1.909-8.9-3.169-26.844-18.6,7.026,7.561,10,11.074,12.181,13.747a39.558,39.558,0,0,0-6.873-3.055c-1.489-1.451-2.52-2.558-4.811-4.7,1.909,1.986,3.208,3.36,4.353,4.659-1.6-.191-1.757,1.107,2.444,6.492l-4.239-4.43c-2.138-.8,1.6,3.628,7.37,9.852-4.582-1.757-27.646-21.537,2.406,8.783-.115-.267,1.26.764,3.169,2.367-.611.687-12.6-9.737-17.756-13.136A131.322,131.322,0,0,1,220.287,98.41c-1.757-.573-2.253-.267.038,2.406,13.67,13.518,24.821,23.484,31.732,31.541-4.124-2.444-9.89-7.943-16-14.014-4.2-5.613-5.728-9.012-23.484-24.1-.955-.305-.5.573.726,1.986-2.138-1.909-4.391-4.086-6.262-5.5l12.907,15.694L206.884,94.82c-3.475-2.138-3.819-1.375-2.711.8-.535-.458-.84-.649-1.413-1.146.916,1.031,1.451,1.642,2.215,2.52,5.575,8.668,25.852,31.045,24.057,33.3l-.115-.038c-4.239-4.009-7.484-7.332-10.654-10.577l-1.413-1.718,3.131,3.131c-8.477-8.974-1.986-5.575-17.374-19.856,8.515,9.012,8.668,10,7.79,10.043-6.95-7.866-10.234-12.678-10.654-13.9-19.856-17.107,4.964,8.859-9.508-2.558-3.666-1.642,9.928,12.639,21.651,23.79a16.287,16.287,0,0,1-4.735-2.368c-3.437-3.246-6.759-6.415-8.134-7.6,2.558,2.558,4.62,4.62,6.415,6.453-7.1-4.62-13.861-9.241,7.943,13.136-.038-.229.916.5,1.871,1.222a8.34,8.34,0,0,0,.955,1.757l-13.289-12.487,8.324,9.7c-2.062-.687-3.246-.84-2.673.42l-.42-.42c1.833,2.94.84,3.055-2.864.458a95.936,95.936,0,0,0-9.05-7.9l1.489,1.909c-.687-.611-1.146-.916-1.909-1.6,2.1,2.253,3.208,3.513,4.544,5l4.773,6.11c.038.611-.726.42-1.718,0l-7.828-6.873c-6.415-3.513-3.551,1.527,1.718,8.859.649,2.444,3.742,7.179,10.386,15.351-1.222.191-8.477-6.682-16.267-13.823-2.368-3.36-3.857-5.881-4.048-6.682-20.009-16.954,4.468,9.317-10.234-1.833-3.666-1.336,8.248,11.647,19.436,22.568,2.024,2.6,3.971,5.117,5.728,7.446-4.124-3.131-14.32-13.136-17.069-15.5,18.444,18.405,15.465,18.329,15.541,20.811L193.48,155c-1.909-.84-3.819-1.795-2.711-.038l-2.367-2.215,6.377,7.828c-15.541-13.289-3.666.267-1.031,4.926-.458.764-3.36-.955-8.668-5.155-1.718-1.451-3.666-3.131-6-5.193-4.659-2.52,1.986,4.735,9.852,13.059-.726.191-2.444-.535-3.36-.573a70.276,70.276,0,0,0-7.484-6.3c1.413,2.9,2.215,5.193,3.131,7.6-1.947.42-1.26,3.437,3.055,9.966.305,1.6.611,3.169.8,4.62-3.933-3.322-9.394-8.477-15.007-13.479-9.355-3.971.764,8.974,9.2,20.544-.153,2.367,4.086,8.935,8.363,15.427-.382.573-1.3.764-3.246.076L173.7,194.446c-3.513-1.3-8.248-4.009,6.492,11.036-37.422-33.03,17.833,25.775-22.453-9.241-5.8-2.749,4.62,8.286,14.014,18.558.687,1.527.955,2.635.726,3.284-6.759-6.606-13.632-13.174-16.534-14.816.687,1.795.955,3.131,1.489,4.735-.573-.153-.916,0-.649.916l1.336,1.184c.344,1.069.8,2.329,1.069,3.322l-18.062-17.107c8.974,10.806-20.391-12.83-6.53,4.43l-4.315-4.43c-4.468-1.871,17.756,20.086,30.816,34.252,0,.573.038,1.222,0,1.795-6.53-6.415-13.1-12.563-20.162-19.169,9.928,11.227-8.286-5.193-14.854-9.623,13.632,10.883,22.071,22.377,29.746,28.219,2.024,1.909,3.628,3.475,5.231,5.079v1.909a22.847,22.847,0,0,1-4.506-2.024c-.573-.649-1.68-1.795-2.024-2.253l-.115.229c-4.964-6.262-5.575-8.974-24.4-25.088-3.437-1.413,12.1,13.861,17.871,18.024-4.353-1.833-9.2-2.864-27.226-18.291,19.589,21.422,7.637,11.188,33.985,38.033-.5-1.986-20.162-20.735-8.439-11.494l14.7,15.58c.84,1.451,1.6,2.749,2.368,4.162-4.659-2.406-17.3-12.678-20.124-13.785l-7.943-9.585,3.208,3.169c-8.554-8.9-2.215-5.422-17.565-19.7,18.1,19.016-.955,2.291,11.188,16.152l-3.131-3.055c13.823,17.26-34.6-25.775,3.475,13.059-.191-.726,8.286,6.377,15.732,13.174a3.125,3.125,0,0,0,.611,1.222c-3.7-3.131-3.819-2.673-2.826-1.146-2.1-1.3-4.43-2.978-9.89-8.21l-3.4-4.048c-4.277-1.718-6.912-2.826-3.513,1.222,13.632,13.632,24.744,23.56,31.579,31.732l-.344-.267c-8.4-8.21-19.169-19.093-19.513-17.833,6.53,6.377,9.279,9.241,10.272,10.5-3.169-2.978-6.644-6.453-10.157-10.043a37.574,37.574,0,0,1-3.628-5c.649,1.069,1.184,2.1,1.795,3.208-8.21-8.4-16.725-17.26-23.408-22.224l12.716,15.923-13.136-11.608c-4.964-2.9-3.933-.267-.8,4.391l-.267-.267c.42.458.267.382.573.726.42.611.649,1.069,1.146,1.757-2.024-.535-26.768-22.911-11.532-6.148-5.155-4.124-5.346-3.475-4.162-1.451-1.833-1.757-3.895-3.742-6.721-6.606,17.6,18.405-7.408-3.857,3.475,8.21-6.071-6.3-16.458-15.656-11.99-10.348a198.691,198.691,0,0,1,16.84,16.8c1.757,1.986,3.589,4.048,6.033,6.568-12.639-11.723-3.551.076-24.973-21.078,10.234,11.723,24.591,25.813,38.873,40.362l.115.42c-10.386-9.241-11.57-7.9-33.909-30.854,3.4,2.6,9.279,6.644-7.523-9.928-9.966-8.4,6.453,7.179,8.248,10.31-4.544-4.468-15.389-15.083-22.644-22.148,2.291,3.055,1.489,3.36-3.169-.267C74.915,229.348,79.65,236.909,90,246.264L72.929,227.477c-.229-2.215,13.747,13.441,20.353,19.284,3.093,6.492,26.386,29.517,37.269,43.264.038.229.153.535.153.687l-2.406-2.024c-4.735-5.193-9.317-10.157-13.594-14.663.878,1.489.878,2.138.458,2.329-6.988-7.408-20.467-20.735-23.9-23.713,18.253,20.162-13.823-10.692-18.94-14.281,6.186,4.926,20.582,20.124,25.966,25.966,11.99,15.2-9.2-8.019-20.391-17.871.115,4.926-31.045-23.331-17.527-5.842l21.918,20.2L62.848,240.651c10.845,9.928,26.844,26.5,40.133,40.515a20.254,20.254,0,0,0,2.711,5.346c-.42-.458-.573-.573-1.069-1.069l1.871,2.444c1.642,2.406,3.742,5.27,6.453,8.706-.305.076-1.107-.458-1.986-1.107-2.138-2.138-4.544-4.7-7.255-7.828-.458,0,.42,1.413,1.986,3.475-2.788-2.52-6.148-5.651-9.546-8.783-3.551-3.857-6.644-7.293-8.592-9.47-1.986-.458-19.093-17.871-24.477-23.713l1.375,3.551c-5.308-5.613-13.174-13.9-18.558-19.589-8.133-6.759,13.518,16.076-3.7-.076l16.458,17.107c-15.58-11.723-17.794-14.358-21.537-14.4l12.716,12.143c20.811,23.751-20.811-18.864-13.4-7.637,6.415,8.554,11.3,14.854,31.2,34.558,6.759,8.057-5.155-3.628-12.792-10.806,10.654,11.647,30.052,33.221,16.993,21.575-5.651-6.682-10.234-12.1-12.868-15.732-19.818-19.666-5.919-2.635-15.962-11.15,7.408,8.439,24.515,28.028,39.446,45.135-6.339-3.017,9.928,13.212,19.818,24.248-11.761-11.112-24.821-22.873-35.589-32.114-6.11-6.3-13.632-14.74-13.174-15.2,5.193,5.728,9.088,9.355,14.052,14.32-12.639-15.923-28.754-28.257-43.531-43.646,3.628,4.506-.038,2.6,11.761,13.632-31.045-29.556,14.243,19.284-10.692-3.971,2.978,3.055,13.4,12.487,20.2,20.582,2.138,3.971-11.99-10.348-18.482-16.114,8.363,8.974,13.136,16.534,9.012,12.1,6.759,8.057,30.243,29.1,42.386,43.073,5.537,5.919,7.943,8.668,8.859,9.966l.076.916c-1.336-.649-4.85-3.4-2.367-.191-15.007-13.441-9.05-10.768-15.541-17.947l6.988,11.685c-11.112-9.852-19.436-20.2-16.305-18.405-13.823-12.028-3.246.955,13.1,17.985-4.277-3.169-.84.916-8.172-5.384C56.089,309.537,27.068,280.4,22.982,274.6c3.208.458,21.728,22.835,27.264,26l-17.26-17.527c10.348,9.394-2.138-4.009-2.9-5.842a60.989,60.989,0,0,1,8.439,9.012c-.306-2.291,9.737,6.224-9.279-14.4-17.336-14.74,2.253,9.012-18.062-10.272l21.5,26.921c8.057,8.1,21.842,20.124,32.84,32.687-20.658-20.162-30.7-28.715-35.322-31.312,22.491,21.918,18.138,21.537,36.467,38.987-10.654-11.685,8.172,6.721,10,8.477.076.611,1.642,2.444,3.819,4.735a16.872,16.872,0,0,0,1.527,3.857,53.572,53.572,0,0,0-8.248-6.759c-9.47-10.272-30.777-33.6-39.1-43.913-9.89-9.852.344,2.291-11.227-8.515,12.3,11.188,20.582,21.46,26,25.966,7.828,10.768,29.059,35.474,32.3,42.233-32.5-33.221-21.8-27.837-61.249-66.366,4.124,5.842,20.124,21.918,16.993,20.162-20.276-19.245-4.391-.42-4.964,1.336L42.953,319.5c7.561,8.554.573,3.131-1.795,1.795l-4.2-4.468,5.69,6.721c-.84-.8-1.909-1.833-3.169-3.017,9.585,10.768-1.566,2.367,3.208,9.317,16,16.114,1.68-.42,4.009.878,3.819,3.589,11.608,9.394,22.148,21.04-1.222,1.375,16.993,21.537,14.969,22.491l5.308,4.43a57.044,57.044,0,0,1,5.575,6.682c-1.222-.344-1.222.42-.993,1.413l-.115.038c-7.179-5.69-13.212-12.448-18.978-18.94-3.475-3.78-7.1-7.752-8.821-10.921.955,1.527,1.833,3.017,2.673,4.506-2.062-2.138-4.124-4.7-6.262-6.492-13.632-14.778,3.284.458-16.954-20.124L22.219,313.318c12.907,14.32-8.172-5.346-5.575-1.795l10.386,9.394c17.183,17.527,3.7,4.926,1.031,2.711l25.584,25.05c5.155,3.666-16.572-19.207-1.3-4.926,3.666,5.155,11.3,13.327,17.489,20.2a38.868,38.868,0,0,1,1.757,3.78c-.535-.649-1.451-1.68-3.4-3.742-4.315-3.666.649,1.986,3.742,5.881.038.649-.038,1.222-.5,1.375A300.891,300.891,0,0,0,42.8,341.117l18.6,19.666c-3.437-2.635-10.654-10.272-11.456-10.692-4.277-3.093,19.895,19.742,14.09,15.732-3.895-3.666-8.477-7.637-12.639-12.1-1.718.382,5.613,6.682,13.938,16.993.458-.535,10.654,9.279,19.436,18.291.726.8,1.451,1.6,2.558,2.711l-1.986-1.68a138.6,138.6,0,0,1,11.99,12.945c-.573-.191-.764-.038-.764.305L76.137,384.5c2.558,3.7,12.258,11.265,14.74,14.931a11.635,11.635,0,0,1,2.253,4.391c-2.253-1.909-5.193-4.506-9.852-8.9L92.4,405h-.153c-13.059-13.441-4.43-2.635-7.637-5.079-19.856-19.742,2.482-1.375-29.517-33.6-3.933-2.291-13.441-12.563-21.8-21.5,2.1,3.971,22.453,23.255,35.016,36.7-8.057-8.057-4.009-.916-20.773-18.825-1.947-.382,18.253,20.2,14.014,17.069-7.866-7.943-17.947-18.214-28.028-28.448,6.568,6.8-2.329-.687-3.055-1.146,3.857,3.589,16.42,17.069,11.532,10.768,15.236,15.694-.955,2.253,12.028,15.236-17.909-17.871-5.155-2.253-13.25-8.974,42.042,42.157-14.7-17.413,20.047,17.069a41.6,41.6,0,0,1,5.193,6.835c-2.558.267-3.666,2.1-6.568,2.138-4.2-4.468-8.9-9.508-15.274-15.694-5.575-8.057,7.064,4.048.687-4.506-8.477-6.148-6.071.115,6.071,13.938.573,3.131-43.3-40.668-34.291-28.6,13.67,13.365,16.8,16.572,22.262,21.117,4.391,5.27-.916.878-1.336,1.3,7.064,7.561,10.2,9.546,15.16,14.892l.993,1.6c-2.291-1.795-5.27-4.2-12.41-11.57l-1.184-1.337c10.883,13.861-33.718-31.808-9.05-4.506,6.835,6.721-1.489-2.215,3.169,1.833C44.939,391.98,58.953,407.636,62.7,412.6c-9.165-9.432-2.329-1.336-5.8-4.009-15.694-15.236-3.36-5.422-13.594-16.152l-3.551-1.3,2.673,2.215,13.594,16.114c-2.215-3.169,3.7,2.673,9.814,8.974-3.169-2.024-1.527.993-1.718,2.024-3.131-2.94-6.835-6.53-12.1-11.876,5.5,5.575,8.668,9.088,11.074,11.876-1.451-.8-4.7-3.475-11.685-10.119,4.926,5.117,4.506,6.606,6.339,10.081-4.009-3.7-8.248-7.675-12.6-12.258-17.527-18.367-7.523-9.89-4.391-8.1-33.336-30.892,15.427,19.246-1.069,5.04-8.019-8.1-17.145-17.489-14.854-16.229-5.69-5.27,14.434,16.649,4.43,8.134,3.017,2.864,8.974,8.515,14.854,14.4.229.993,2.367,3.666,5.537,7.179L36.729,406.91c-4.659-2.673,13.174,14.472,23.828,26.042l-7.6-7.866c1.986,4.391,21,23.79,24.1,29.556l-2.138-1.909C53.187,430.318,45.283,419.779,11.6,386.252c3.666,6.3,11.074,17.527-.84,7.293C18.247,403.359,41.2,426.194,58,442.766c2.635,3.628-.115,1.336-4.659-2.635L44.557,430.2c2.368,3.284,4.773,6.415,7.026,9.394-16.42-11.837-16.8-6.377-16.993-2.329,8.248,10.272,2.673,8.21,2.062,10.425-3.666-3.437-7.9-7.484-13.441-12.83,5.919,7.026,13.9,16.267,19.856,23.6l-2.749-2.673-16.954-8.744c2.482,7.064-5.5,4.315-1.527,12.3l-.115-.115.267.267c1.375,2.673,3.895,6.339,8.554,11.952L16.72,459.53c7.064,7.6,11.57,12.945,15.2,17.565l-3.169-1.3c-7.981-8.019-9.852-11.265-6.339-8.477-9.775-8.363-6.033-3.4,18.635,23.14l.305.573A334.48,334.48,0,0,1,9.388,462.012c4.506,5.346,12.181,12.448,20.276,20.582-5.537-3.131,22.72,25.508,22.606,26.844l.038.038c2.062,2.711,4.964,6.11,8.286,9.928-10.386-10.463-20.964-21.078-31.312-31.427,15.2,15.618,1.031,2.673.573,3.169,12.487,12.1,13.861,14.854,21.88,22.8,2.94,3.7,7.064,8.592,8.783,11.112-.611-.305-.611,0,.687,1.642-.535.153-3.131-1.756-9.394-7.179-8.21-7.828-6.224-8.859-11.876-12.945-15.962-13.67,14.129,15.58-3.819.267,7.141,6.415,14.129,13.632,20.124,20.2l.458,1.68c-8.439-7.561-12.678-10.654-30.625-28.563,19.818,21.04-15.885-12.6,7.79,12.1-14.854-16.152,6.568,4.391,9.317,6.682l3.131,3.78c.038-.076.344.153,1.031.687l30.09,31.847c13.021,11.608-20.2-20.582-18.558-21.04,8.21,7.752,14.892,14.549,20.887,20.964A142.826,142.826,0,0,1,86.1,568.778c-2.215-2.253-3.895-4.048-6.682-6.8a79.806,79.806,0,0,0,7.9,9.814c.42,1.107.687,2.1,1.031,3.208.038.115-.038.115.115.306,4.162,13.747.878,20.887-14.587,15.847L63.726,578.936c7.866,9.432-.153,5.308-3.857,2.94l-1.107-1.413c-26.539-21.5,21.957,25.088-7.9-.5l-2.291-2.788c-1.451,3.017-29.365-20.887-17.6-5.384C19.813,564.578,7.326,552.321-5.2,542.736c-.42,1.6,14.434,16.611,17.527,19.666l1.757.726c15.007,13.289,11,12.563,16.611,19.322,23.331,21.117,58.577,55.216,83.932,75.416-6.148-8.745,38.147,33.45,36.009,28.143-29.479-29.976,25.011,19.131-.726-8.324,20.124,20.658,13.174,8.9,34.672,32,17.107,15.121-14.625-20.315,6.186-2.788,4.353,4.468,9.355,9.164,11.647,11.876-10.386-13.212,15.694,12.639,16.878,11.379l-21.613-20.467c-6.492-7.1,8.821,7.141,5.5,3.131a214.236,214.236,0,0,1-22.224-19.78c-4.506-5.422-11.036-12.6-10.425-13.25a148.217,148.217,0,0,1,13.861,14.663s3.246.42,13.441,9.928c6.453,7.1,5.881,7.79,17.527,19.7,8.057,4.162,7.1,6.453,25.011,21.8-25.508-23.866-9.317-11.837-14.052-18.253,10.272,9.585,2.52,3.7,9.89,11.227,46.128,40.286-4.964-10.081,6.759-3.513a71.709,71.709,0,0,1,6.53,7.179c-2.482-3.284.382-1.413,3.475.8,6.912,7.064,13.174,13.136,15.541,14.434-.993-.535-5.537-5.651-11-11.3,1.184.649.878-.115-3.628-4.85a17.909,17.909,0,0,1,2.788,2.062c4.124,3.7,8.935,8.363,14.281,14.091-.955-1.184-2.253-2.826-3.666-4.7,7.713,7.1,15.732,14.549,16.267,13.212-26.424-24.248,6.873,2.711-20.926-23.751l17.6,14.32c-7.981-8.859-21.88-21.8-32.687-32.267-4.009-4.315-7.332-8.057-5.728-7.179,3.742,3.78,8.706,8.63,14.931,14.778l-17.145-18.825a87.575,87.575,0,0,1,8.057,8.1c-1.986-2.291-3.36-3.666-5.117-5.613,15.236,13.594,38.8,38.224,51.207,48.3l-14.778-15.007,11.723,9.241,1.146,1.451c-4.468-5.46.955-2.367,9.088,5.422,6.339,6.186,5.728,6.873,11.952,12.945-13.021-14.2,41.622,32.19.8-8.668,7.9,6.453,8.9,5.155,21.995,17.909-17.909-18.062,8.286,2.9-2.711-9.088,6.186,6.148,17.031,15.007,12.6,9.623-7.752-5.842-14.243-12.945-23.9-23.217,14.014,12.028,4.43-.84,26.883,19.971-8.248-9.355-19.513-20.086-31.121-31.2v-.038c-.5-.5-1.3-1.222-1.986-1.871-.8-.8-1.6-1.528-2.406-2.368a27.355,27.355,0,0,1-2.406-2.444c-.153-.344.076-.344.305-.382,1.413,1.069,2.711,2.024,3.895,2.826l17.565,17.6c-5.728-6.759,3.36.764,7.293,2.864,1.451,1.413,2.749,2.6,4.391,4.239-3.628-2.368-9.966-5.881,7.332,10.119,10.5,7.866-6.492-7.1-8.172-10.463,4.582,4.468,16.267,14.243,23.446,21.422-2.215-3.131-1.26-3.7,3.7-.458-12.6-9.661-16.993-17.68-27.8-26.539l17.3,18.673c-.115,2.367-11.723-10.157-18.978-16.573.916.115.458-1.222-3.437-5.957l4.2,4.468c5.155,2.979-30.2-32.878-37.918-42.806l1.413,1.069c8.4,8.935,16.458,16.84,25.317,25.622-9.89-11.227,7.752,5.8,13.9,10.692-1.986-1.757-3.246-3.284-5.041-5,.916.764,2.291,1.986,2.788,2.406-3.7-4.048-4.926-5.69-5.079-6.3,1.146,1.031,1.909,1.833,3.208,3.055.955.535-.038-.726-1.68-2.6,5.231,3.513,20.315,16.534,23.9,18.558-6.606-4.43-21.346-19.36-26.73-25.2l-.115-.153c3.284,2.673,7.179,6.033,12.678,11.188-4.544-5.041-7.293-8.21-9.317-10.616,5.308,5,12.716,12.1,18.138,16.343.725-5.919,33.26,20.773,20.009,2.9l-22.835-19.207,19.895,19.7c-8.1-6.682-18.94-17.069-29.4-27.455-2.329-2.6-5.651-6.186-10.5-11.3.153.344-2.1-1.68-4.964-4.315-4.315-4.43-7.9-8.134-11.074-11.379,3.208,2.444,4.659,3.055,12.334,10.768l3.4,4.01c3.895,2.215,6.262,3.551,2.864-.42-3.169-3.322-5.69-5.842-8.515-8.744L324.457,714a49.969,49.969,0,0,0-6.3-5c-2.024-2.1-3.36-3.666-5.117-5.537,1.718,1.222,3.513,2.558,5.384,3.933,10.234,10.425,22.491,24.21,31.121,31.541L336.752,723.2l12.639,12.1c1.833,1.3,2.749,1.718,3.055,1.489,5.231,3.7,18.291,16.343,22.949,21.269l-1.031-3.971c5.422,5.575,13.4,13.747,18.864,19.284,8.63,6.224-13.441-16.191,4.506-.8l-16.84-16.725c16.687,10.463,18.9,13.1,23.369,12.219L391.09,756.46c-20.964-23.751,21.727,17.833,14.778,6.033-2.749-3.857-5.346-7.37-8.974-11.57.42.42.649.725,1.107,1.184-13.1-14.129,40.286,33.641-.344-7.332,7.675,6.682,8.439,5.651,21.384,18.52-17.871-18.062,7.6,3.666-3.551-8.21,6.3,6.186,16.8,15.351,12.258,10.081-7.484-6.11-14.014-13.174-23.751-23.369,13.709,12.3,3.78-.115,25.966,20.964-11.227-12.41-27.112-27.3-42.691-42.729,13.67,12.219,12.678,8.172,37.46,32.839-3.437-2.52-9.47-6.492,7.675,9.814,10.157,8.21-6.606-7.179-8.439-10.272,4.62,4.43,15.694,14.816,23.064,21.8-2.291-3.055-1.527-3.4,3.208.153-12.219-10.2-17.031-17.718-27.57-26.883l17.374,18.558c.267,2.215-13.976-13.174-20.7-18.9-1.413-2.94-7.408-9.508-14.32-16.84,5.919,5.079,11.99,10,17.68,15.656-3.628-4.544.5-3.131-11.8-13.594,4.964,4.391,7.637,6.492,9.394,7.752l1.107.955-.649-.687c2.368,1.527,2.1.458.458-1.948,6.453,5.461,16.725,14.663,19.475,16.5-5.766-4.391-18.214-16.993-24.515-23.6-1.489-2.138-1.986-3.322.038-2.062,5.308,5.079,13.25,12.907,18.787,17.642-.076-5.041,31.618,22.606,17.871,5.231L430.536,732.4l19.818,19.818c-16.42-14.434-45.021-43.99-57.7-57.24,6.912,6.606,4.353,1.642,15.2,13.136l-7.6-9.776c-8.974-8.363-5.957-3.819-14.892-13.594,6.683,5.651,12.334,8.668,23.446,21.078,1.107-.076-3.933-6.3-13.556-15.771a19.354,19.354,0,0,0-1.375-1.986c3.628,3.131,11.8,11.532,19.322,19.4,1.107,1.871,6.262,7.561,6.606,8.821-4.926-3.819-6.3-6.148-8.592-8.9,0,2.711-10.577-5.155,8.706,15.2,12.372,9.317,7.6,1.413,9.7,1.031,6.071,5.346,16.5,15.732,20.544,19.971l-1.413-3.628c5.384,5.613,13.4,13.747,18.864,19.322,8.286,6.568-13.747-15.885,3.78-.115l-16.725-16.8c15.847,11.379,18.138,13.976,21.842,13.861l-12.869-11.876c-21.117-23.484,21.193,18.444,13.67,7.332-6.53-8.554-11.494-14.778-31.732-34.138-6.912-7.981,5.155,3.513,13.021,10.539-10.883-11.456-30.587-32.763-17.26-21.384,5.728,6.644,10.386,11.99,13.059,15.58,20.162,19.322,6.033,2.52,16.229,10.768-8.592-9.47-30.014-33.374-46.281-51.436-1.107-2.024-2.1-3.857-1.833-4.468l-10.845-8.9c-3.819-4.239-3.895-5.193-2.635-4.888,12.3,11.15,26.233,23.217,37.536,32.649,6.186,6.186,13.861,14.51,13.441,14.93-5.346-5.613-9.317-9.164-14.32-14.052,12.869,15.732,29.212,27.761,44.3,42.882-3.7-4.468.038-2.635-12.028-13.479,31.618,29.021-14.434-19.131,10.883,3.628-3.017-2.94-13.556-12.181-20.506-20.2-2.138-3.933,12.181,10.119,18.787,15.771-8.477-8.821-13.327-16.343-9.165-12.028-6.453-7.446-27.532-25.966-40.324-39.56a45.69,45.69,0,0,0,4.811,2.253,15.618,15.618,0,0,0,1.566,1.986l-1.146-1.871c2.406.878,3.208.191,1.566-2.864,7.179,6.988,11.494,12.6,9.088,11.341,14.014,11.723,3.322-1.146-13.365-17.909,4.353,3.055.878-.993,8.324,5.155,8.935,9.775,38.453,38.376,42.577,44.142-3.284-.344-22.109-22.491-27.684-25.508L480.9,707.85c-10.577-9.165,2.138,4.048,2.9,5.881a64.17,64.17,0,0,1-8.592-8.935c.382,2.406-9.89-5.919,9.432,14.358,17.642,14.4-2.291-9.088,18.444,9.852l-21.88-26.654c-8.172-7.981-22.262-19.78-33.374-32.114,21,19.742,31.236,28.066,35.971,30.586-14.778-13.861-18.253-18.711-23.751-24.973,1.68,1.031,1.336.115.191-1.489,7.523,8.1,14.816,16.152,18.978,21.155,10.043,9.661-.382-2.367,11.379,8.286-12.487-10.959-20.887-21.193-26.424-25.546-1.833-2.444-4.468-5.69-7.293-9.2.382-.076,2.177,1.146,7.1,5.308l-15.771-15.847-.649-.725c3.666,2.138,6.453,3.895,8.9,5.422,7.6,8.935,13.594,16.382,37.154,38.605-4.2-5.8-20.429-21.575-17.3-19.971,20.62,18.9,4.468.267,5.117-1.527l-10.577-9.241a18.422,18.422,0,0,1-1.489-1.756,6.63,6.63,0,0,0,1.718-.076L468,666.5c1.107.458,3.437,2.062,4.62,2.673l4.239,4.43-5.728-6.644c.878.8,1.986,1.833,3.208,2.94-4.124-4.468-4.2-5.422-3.589-5.728,2.635,1.718,3.971,2.062,2.329-.917a124.434,124.434,0,0,0-9.585-12.678c1.413,1.413,2.9,2.94,4.964,4.964L491.9,676.652c-13.1-14.167,8.324,5.117,5.728,1.6l-10.539-9.2c-17.527-17.222-3.819-4.888-1.107-2.749l-26-24.591c-5.231-3.513,16.878,18.978,1.3,5a160.463,160.463,0,0,0-11.15-12.754c1.833,1.566,3.7,3.169,5.308,4.544-5.422-5.881-13.021-14.32-17.489-19.856,4.162,4.2,1.184,1.833,7.217,8.019,2.826,2.291,1.718.8-.267-1.6l.42.382-.726-.764c-2.215-2.635-5.079-6-5.231-6.721a11.881,11.881,0,0,1,1.833.84l.153.115c4.391,5.461,8.172,10.157,10.31,13.4,7.255,6.721,10.157,8.783,11.456,9.088,2.673,2.558,4.735,4.811,7.9,7.6l-7.446-7.561c1.375-.344-.611-4.353,5.651.229-4.964-5.766-14.472-16.84-24.668-28.716a41.711,41.711,0,0,0,5.155,3.628c2.062,1.795,4.468,3.895,7.675,6.873-1.947-2.1-4.62-4.659-6.8-6.912a2.655,2.655,0,0,0-.5-1.184c2.329,2.406,4.964,5,8.515,8.439,3.971,2.177,13.632,12.3,22.109,21.155-2.138-4.009-22.8-22.949-35.589-36.162a35.4,35.4,0,0,0,4.162,3.589c1.336,1.642,4.429,4.811,10.768,10.73,8.4,6.339-.764-1.986-5.651-7.255a131.05,131.05,0,0,1,11.837,11.3c.535.115-.84-1.566-2.864-3.895,4.048,3.742,8.324,7.714,11.8,10.883-.726-1.069-.611-1.3-.611-1.68,2.024,1.947,3.933,3.819,5.957,5.8-6.721-6.682,2.368.649,3.093,1.069-1.413-1.3-4.048-3.819-6.53-6.339.649.382.725.267,1.68.878a118.579,118.579,0,0,1-13.747-12.678l-.115-.229c8.821,7.752,18.024,15.274,26.73,23.98-3.551-4.659.649-3.322-11.685-13.785,12.525,10.959,13.25,10.234,11.036,6.682,4.391,2.6,5.231,1.718-6.224-10.425.573-.191,2.444.917,7.79,5.461-1.489-1.527-5-4.506-8.935-8.172,4.506,3.055,7.6,4.468,17.6,14.434-10-10.348-5.957-8.248-2.444-6.644l.038.038c2.711,1.184,5,2.062.344-3.208,6.148,6.186,17.069,15.083,12.754,9.546-5.308-3.895-10.2-8.935-15.541-14.7,2.673.917,2.711-.764,2.864-2.138,2.291.878,5.728,3.017,16.305,12.945-3.169-3.819-7.561-8.1-11.494-12.181a80.872,80.872,0,0,1,6.339,5.117l-9.165-12.334c-.5-1.184-4.391-5.537-4.582-6.453,3.819,3.284,8.592,7.713,15.2,14.32-3.7-2.177-10.272-5.461,6.95,10.616,10.616,7.675-6.339-7.332-7.828-10.883,4.544,4.62,16.229,14.281,23.293,21.575-2.062-3.284-.955-3.971,4.2-.8-12.83-9.546-16.763-18.023-27.57-26.883l16.84,19.055c-.42,2.978-14.129-12.983-21.04-18.52-.725-2.635-4.315-7.255-8.935-12.639,6.682,4.506,8.9,5.881,11.837,5.422l-13.1-11.685c-1.375-1.527-1.833-2.1-2.711-3.093.382-.5.878-.993,5.193,2.291,1.337,1.375,2.482,2.482,3.971,3.895l-.229-.382c3.7,3.475,6.95,6.415,8.439,7.522-1.451-1.642-2.062-2.482-2.9-3.513,2.9,2.1,4.468,2.788,2.635-.191a5.084,5.084,0,0,1-.535-.725c6.53,4.888,18.444,15.083,21.651,16.763-6.721-4.353-21.193-19.513-26.424-25.47-11.188-16.076,9.775,7.446,21.537,16.611,1.451-6.644,34.138,19.971,21.651,1.375L525.809,594.63l19.627,20.047C528.558,600.7,500.492,570.65,488,557.132a18.217,18.217,0,0,0,6.568,4.277c10.119,9.546,21.04,18.6,31.5,28.945-3.7-4.506.305-2.978-11.99-13.518,20.2,17.833,9.432,5.537,5.04-.535,1.375,1.566,2.6,2.94,3.513,4.009,2.6-.115,19.933,17.069,25.241,22.988l-.725-4.277c5.346,5.613,13.136,13.861,18.558,19.551,8.783,6.11-12.983-16.649,5-1.3L554.1,600.281c17.183,10.081,19.322,12.83,24.21,11.494l-13.1-11.685c-20.276-24.362,21.88,17.756,15.541,5.384-5.88-9.241-10.425-15.885-30.739-35.169-6.53-8.324,5.69,3.055,13.632,9.89-10.539-11.8-29.594-33.718-15.771-22.835,5.384,6.95,9.776,12.525,12.181,16.5,20.238,19.169,7.026,1.375,17.756,9.164-8.439-10.234-30.4-36.811-46.052-55.713-6.033-5.308-12.868-11.8-19.856-18.558.535-1.107,3.933.115.916-4.43-16.458-15.618-1.947.764-4.429-.344-1.6-1.375-4.048-3.208-6.988-5.5l-1.642-1.757c1.947-.535.267-4.735-4.468-11.227,1.527.955,3.093,1.909,5.079,3.4,1.222,1.527,3.857,4.239,10.043,10.2l20.353,17.565c1.986,2.1,3.742,4.124,4.353,5.651-6.8-5.346-24.133-21.575-18.635-14.587,13.059,11.685,28.868,24.286,41.584,33.718,6.186,6.262,13.518,14.892,12.83,15.656-5.193-5.766-9.241-9.279-14.32-14.09,11.837,16.725,29.479,27.494,44.41,42.768-3.475-4.735.916-3.513-11.456-14.014,32.152,28.41-12.83-20.811,13.1,1.413-3.017-3.055-13.938-11.952-20.467-20.353-1.6-4.544,12.754,9.546,19.589,14.892-8.363-8.974-12.3-17.451-8.172-13.021-6.492-8.324-31.236-28.1-43.035-42.424-19.7-21.04-.878-5.346-5.422-11.952,15.809,12.6,8.745,11.15,15.121,18.482l-5.651-13.25c11.8,9.2,19.627,20.124,16,18.864,14.625,11.112,4.7-2.52-11.8-19.436,4.659,2.635,1.451-1.527,9.241,4.2,8.515,10.119,38.147,38.682,41.66,45.021-4.124.611-21.728-22.873-28.1-25.011l17.451,17.26c-10.845-8.859,1.6,4.62,2.062,6.835-5-3.78-6.262-6.3-8.439-9.088-.344,2.979-11.074-4.811,7.752,15.962,18.558,13.518-.115-11.265,20.964,7.255l-20.162-28.41c-8.172-7.981-22.835-19.055-33.489-31.923,21.155,19.475,31.961,27.341,37.307,29.136-23.217-21.193-17.489-22.377-36.467-39.1,10.539,11.8-8.745-6.072-10.654-7.713.306-2.94-20.544-20.391-20.887-22.491,8.019,1.68,14.32,14.09,25.393,18.9,9.394,10.386,30.434,33.985,38.262,44.868,10.119,9.585.267-3.017,12.334,7.293-12.907-10.539-20.62-21.346-26.463-25.47-7.1-11.608-27.684-37.078-29.746-44.982,32.84,32.84,20.276,29.479,60.753,66.9-3.666-6.377-19.933-22.148-16.343-20.926,21.04,18.482,5.766-1.069,7.141-3.628l-10.921-8.9c-7.484-8.706.153-3.971,2.9-3.093l4.2,4.506-5.5-6.95a20.938,20.938,0,0,1,3.322,2.864c-9.355-10.959,2.826-3.819-1.26-11.379-16.382-15.809-2.444,1.184-5.079.267-4.01-3.36-12.563-8.4-23.026-20.124,2.1-2.406-15.847-22.873-12.754-24.9l-5.8-3.971c-4.62-5.193-5.613-6.988-5.575-7.828,1.642,1.527,3.017,2.864,4.811,4.544-.955-1.757-2.1-3.819-3.131-5.766.191-.115.5-.076.573-.306,13.4,8.706,21.117,23.675,31.808,31.427,13.556,14.892-4.2.573,16.305,20.887l23.981,20.582c-12.716-14.587,9.241,4.086,6.873.305l-10.883-8.9c-17.374-17.222-3.4-5.27-.535-3.208L592.4,465.6c-5.69-3.055,16.038,19.742.153,6.148-5.957-10.272-27.264-29.861-25.2-33.221,10.119,9.661,3.208,4.162,10.463,11.761,7.866,5.8-11.952-15.351-2.329-8.974a185.165,185.165,0,0,0,29.021,30.472l-18.673-19.666c3.819,2.291,11.036,9.89,11.99,10.234,4.7,2.558-20.353-19.322-13.785-16.038,4.009,3.437,8.859,7.179,13.021,11.647,2.444-1.184-5.384-6.95-13.212-17.833-1.413,1.527-30.968-27-32.61-31.656,5.231.8-9.623-16.572,16.305,5.613L555.9,400.877c17.6,18.367,7.714,4.7,11.417,7.026,20.353,19.246-3.742,2.788,28.83,34.405,4.544,1.566,14.014,11.99,22.339,20.926-1.6-4.544-22.682-23.1-35.207-36.582,8.172,7.943,5.117-.267,21.8,17.756,2.52-.229-17.947-20.544-13.212-17.871,7.9,7.828,18.1,17.947,28.372,28.028-6.682-6.721,2.864.115,3.742.458-4.009-3.475-16.572-16.993-12.028-10.31-15.427-15.542,2.024-3.4-11.227-16.114,18.329,17.489,6.186,1.107,14.93,7.141-42.844-41.278,14.09,18.176-21.422-15.5-12.945-15.694,3.971-6.835-12.41-27.761,10.386,5.613,16.382,15.847,32.534,30.625,4.964,8.859-8.133-2.826-2.329,6.339,9.317,5.193,8.057-2.329-3.628-16.573.153-4.009,44.906,38.873,36.773,25.89-14.09-12.945-17.183-16.076-23.064-20.2-4.315-5.461,1.451-1.489,2.138-2.291-8.248-8.9-11.647-9.05-18.291-17.527,2.978,2.062,5.69,3.017,14.892,12.3l1.107,1.413c-10.157-14.7,35.016,30.472,10.73,2.673-7.026-6.492,1.26,2.482-3.7-1.3-11-9.89-24.744-25.813-28.181-31.121,9.241,9.317,2.635.878,6.492,3.246,16.114,14.74,2.749,6.072,13.059,16.763l4.315.458-2.826-1.986-13.1-16.763c3.628,6.339-20.124-18.176-21.422-20.658,4.582,1.566,9.088,3.131,26.5,20.353-17.413-17.222-15.083-18.444-17.6-23.446-7.637-4.7-15.2-14.4-20.506-20.315l19.589,14.892c2.9,7.141,16.152,14.816,27.57,26.883,17.642,18.367,6.95,10.577,3.322,9.355,34.787,29.326-14.472-20.315,3.017-7.179,8.134,7.9,17.413,17.26,14.778,16.343,5.919,5.079-14.014-17.107-3.322-9.355-5.957-5.117-23.026-20.162-28.639-28.219l21.689,17.68c6.415,2.215-20.658-21.422-28.41-32.229l-14.854-12.3c-17.489-17.26,2.215-2.253-17.26-21.231-1.6.458,12.869,15.656,6.186,11.341-19.245-17.909-8.706-11.188-18.214-21.651,10.425,5.69,10.577,6.759,27.264,19.666,29.556,28.525,33.756,38.147,72.4,74.958-2.864-7.1-9.241-19.551,3.4-10.043-6.835-10.5-30.281-32.916-47.5-49.03-2.329-3.895.649-1.795,5.5,1.871l8.554,10.081c-7.1-11.647-15.847-22.8-12.716-24.782-3.666-6.377-21.842-22.835-35.932-35.894l-1.68-4.659-3.971-3.36c-18.52-18.673-10.883-14.014-9.2-14.4,8.133,7.866,9.432,10.386,14.51,15.16,7.713,5.766,7.217,2.482-.229-6.186,8.172,7.943,25.775,26.2,19.055,21.88-1.986-1.833-5.079-4.7-7.064-6.568l8.859,12.3c-7.981-11.952,13.976,6.835,33.374,25.775-7.981-11.914-21.766-17.718-26.768-27.57,41.469,33.68-4.544-16.878,51.856,34.176-9.776-12.525-26.921-32.725-25.775-36.429-16.305-15.847-4.7-7.752-25.126-27.074-23.522-18.253,27.3,34.978-4.62,7.6,6.492,8.4,20.62,21.422,28.983,30.4.42,2.215-2.329,1.26-12.487-8.363-8.019-11.952-38.987-38.949-37-42.348-14.167-13.059-11.3-5.919-15.962-8.592A254.962,254.962,0,0,0,545.7,232.021c-12.525-13.479-22.339-26.042-32.954-37.88,7.637,7.293,11.99,11.57,16.42,15.885L508.7,184.594a334,334,0,0,1,31.35,29.174c6.492,3.208-12.907-20.773,11.608,2.978-1.833-5.766-15.121-13.4-22.148-19.933l-1.069-1.336-.153,4.009c-28.486-27.188,9.241,4.2-17.489-22.377-51.092-50.252,19.246,12.792,12.6,3.36l35.283,37.689-6.606-9.432c13.556,14.892,37.995,38.605,51.856,54.605,3.169-.993,17.336,6.95,11.761-1.107,13.059,11.723,25.241,23.064,37.536,35.436-21.231-24.706,15.045,8.248,17.451,7.026-11.952-15.312-20.7-16.305-37.536-35.4,9.928,8.554,3.4.153.191-3.971,6.262,7.217-8.21-2.826-15.847-7.561,1.68-.382-16.649-17.947-23.866-25.508l-5.575-1.986c-22.415-21.995.305-3.933-10.272-15.771,19.742,19.895,20.391,20.506,40.057,40.362-6.644-9.47-4.506-11.723,9.279-.916,8.9,7.179,9.432,10.425,14.7,16.305,14.129,13.059-6.759-9.47,10.577,6.759,12.334,12.41.344,2.138,3.551,6.3l10.577,1.6c8.134,7.9,9.623,11.494,5.766,9.126,10.73,7.79,7.217,2.444-18.864-25.89C663.085,274.521,676.6,284.3,688.059,296.4ZM481.017,476.446l-1.451-1.909c2.062,1.871,4.009,3.589,5.537,4.7C486.478,481.028,484.263,479.272,481.017,476.446Zm17.527,138.422c-3.437.42-17.336-16.573-25.088-22.759l-.267-.267c1.375,1.146,2.52,2.062,3.628,2.94,1.871,1.833,3.7,3.628,4.773,4.773l-.535-1.68c1.489,1.069,2.94,1.986,4.353,2.9l9.317,9.432A34.391,34.391,0,0,1,498.544,614.868ZM379.864,141.407c-6.377-6.033-10.845-11.074-15.732-16.5,1.107.955,2.062,1.718,3.36,2.826,4.2,5.384,11.417,10.883,15.885,16.229A28.751,28.751,0,0,1,379.864,141.407Zm12.258,22.529c.076.687-.573.458-4.086-2.9-2.444-2.482-4.391-4.659-6.071-6.644C384.942,157.177,388.265,160.232,392.121,163.936Zm-22.568-22.911c1.069,1.184,2.062,2.329,3.093,3.437,1.375,1.642,2.864,3.36,4.353,4.888,1.642,1.871,3.284,3.742,4.811,5.308a9.263,9.263,0,0,1-.764-.535l-1.222-1.222a13.108,13.108,0,0,1,1.031,1.069c-2.711-1.795-7.981-6.3-13.174-10.73-2.253-2.6-4.582-5.346-7.217-8.286,1.68.726-1.489-2.749-5.231-6.721,2.062,1.413,2.94,1.642,3.055,1.146C361.649,132.815,365.621,136.939,369.554,141.025Zm-5.5-8.363c-1.642-1.68-3.131-3.284-4.62-4.888,1.833,1.642,3.819,3.513,5.8,5.308C364.78,132.853,364.055,132.242,364.055,132.662Zm51.13,46.892c-2.215-1.833-4.659-3.895-8.248-7.1,12.678,10.386-3.971-6.492-6.262-9.088-5.346-3.475-2.444,2.177,3.857,9.165-3.589-3.4-6.11-5.613-7.943-7.217-4.315-5.231-8.363-10.386-13.479-15.885,1.26,2.52,12.716,14.663,4.888,8.859l-6.568-6.492.229-2.9,1.757,1.527c-.764-.687-1.146-1.107-1.757-1.642l.038-.458-.687-.649.115.076-.573-.5c-2.635-2.444-6.873-6.835-10.616-10.425.344,0-.573-1.336-5.04-6.262,7.637,6.873,15.656,14.052,23.751,21.269a27.936,27.936,0,0,0,4.582,4.124l8.057,7.255C410.107,172.146,413.582,176.614,415.185,179.554Zm-1.107,486.1,2.558,2.635c-1.107-.993-2.1-1.909-3.169-2.94Zm3.551,3.589-1.795-2.138c2.1,1.948,3.666,3.628,5.079,5.193C419.882,671.345,418.737,670.275,417.629,669.244ZM324.8,102.839l-.229-.115-.42-.458Zm-32.076,8.668c.611.916,1.3,1.871,1.947,2.826-2.329-2.52-4.277-4.7-6.224-6.873C289.4,108.376,291.121,109.98,292.725,111.507Zm-33.145-6.644c4.582,5.155,4.811,6.682,3.589,6.568-2.291-1.986-5-4.506-7.561-7.1Zm-31.618,5.5c.8.649,1.795,1.566,2.367,1.986l-.649-.267Zm13.327,52.2c-.993-.535-2.329-1.871-3.437-2.673-7.37-7.637-14.358-15.083-21-22.186C227.007,147.555,235.828,155.879,241.289,162.561Zm-59.608,63.693c-4.391-4.315-8.363-8.324-4.239-5.155C179.161,223.085,180.574,224.766,181.681,226.255Zm-73.011,17.3c1.909,2.024,3.208,3.475,5.919,6.3-1.642-1.489-2.9-2.558-4.124-3.513C109.663,245.157,109.091,244.278,108.671,243.553Zm-2.864,88.59a37.456,37.456,0,0,1,2.482,3.246l-.344-.115c-4.926-4.735-11.608-11.341-17.374-16.763a24.187,24.187,0,0,1-1.986-2.367C93.053,320.115,102.217,329.012,105.807,332.143ZM78.16,374.567c.076.229.649.878.611,1.031-1.069-1.069-1.336-1.375-2.062-2.1C77.168,373.842,77.4,373.994,78.16,374.567Zm-8.63,67.7,3.475,3.208,1.26,1.718Zm171.8,276.119a68.787,68.787,0,0,1-7.713-8.821C236.63,712.929,239.188,715.831,241.327,718.389Zm142.966,19.322c.611.535,1.069.916,1.718,1.527l.611.649C385.973,739.238,385.019,738.36,384.293,737.711Zm-.305-30.357c3.093,3.246,5.957,6.453,7.408,8.363C388.57,712.661,386.317,710.065,383.988,707.354Zm32-38.567c2.177,1.718,4.162,3.246,5.957,4.659.764.878,1.947,2.062,2.367,2.711C422.211,674.361,419.118,671.612,415.987,668.786Zm21.155.191.076.038.038.076Zm3.742-10.73-.5-2.215c1.871,1.909,4.162,4.277,6.415,6.568l-.191-.153C454.555,670.848,446.5,663.478,440.884,658.247Zm10.386-22.568c9.279,9.661,4.85,6.377,6.873,9.088-4.086-4.315-9.012-9.241-16.343-16.114-4.315-5.308-.535-2.253,4.773,2.253C448.139,632.434,449.667,634.381,451.271,635.679Zm-3.78-22.988c-2.826-2.52-5.308-4.85-7.293-6.644-1.451-1.413-2.711-2.749-4.2-4.162q-3.036-3.15-6.3-6.415l.153.191-1.566-1.718c-.42-.5-.84-.955-1.3-1.451.764.305,1.451.535,1.642.382l-.305-.306c.229,0,.153-.344-.038-.878,1.718,1.3,3.7,2.788,6.071,4.7C442.182,604.52,434.584,599.327,447.49,612.692Zm10.043,4.277-.5-.535.764.649-4.43-4.659c-1.68-1.871-2.558-2.978-1.3-2.062,4.544,4.43,9.852,9.737,15.5,15.2C466.507,625.522,462.421,621.7,457.533,616.969Zm39.216-127.73c2.711,4.506.42,3.513-1.527,2.826-3.971-4.086-7.675-8.019-11.188-11.952,3.093,2.215,8.019,6.186,2.062-.191,1.107.726,2.215,1.566,3.169,2.138C491.594,484.35,493.847,486.6,496.749,489.238Z" transform="translate(-289.693 -171.746)" fill="url(#linear-gradient)"/>
  </g>
</svg>
