<svg xmlns="http://www.w3.org/2000/svg" xmlns:xlink="http://www.w3.org/1999/xlink" width="560.612" height="638.406" viewBox="0 0 560.612 638.406">
  <defs>
    <linearGradient id="linear-gradient" x1="0.33" y1="0.205" x2="1.059" y2="1.17" gradientUnits="objectBoundingBox">
      <stop offset="0" stop-color="#0cb3bf"/>
      <stop offset="1" stop-color="#bce31c"/>
    </linearGradient>
  </defs>
  <g id="Group_92" data-name="Group 92" transform="translate(261.224 323.119)">
    <g id="Group_91" data-name="Group 91">
      <path id="Path_413" data-name="Path 413" d="M14.935,382.92c3.3,4.577,9.458,10.252,15.774,16.842-5.034-1.953,17.086,21.418,16.567,22.853L59.6,434c-13.638-11.045,19.039,20.564,8.421,12.326-11.9-12.845-25.965-27.338-39.267-40.732,11.808,12.784.305,2.593-.336,3.173,12.509,12.265,9.885,12.876,22.944,24.531,8.36,11.5-8.787-5,5.706,12.143,4.516,3.356,11.35,14.279,20.625,22.822-.427,2.288-15.866-11.93-28.589-25.934,1.465.58,7.567,5.4-2.685-5.156l-.031,4.943c-6.9-5.95-10.587-8.177-24.653-22.669,15.164,17.391-13.486-9.367,4.851,10.953-11.35-13.516,5.766,2.99,8.055,4.76l2.288,3.143c0-.061.336.122.885.549l23.188,26.239c10.648,9.031-15.774-16.781-13.913-17.7,23.951,22.425,31.487,38.5,46.864,51.929,8.36,6.5-13.638-16.018-20.961-25.476l-.763-.275-7.658-12.052c7.811,7.963,13.577,15.164,13.577,15.164,2.38-2.41,14.828,9.855,20.351,10.313-3.173-2.868-27.368-27.063-30.084-32.25-4.973-6.865,9.153,7.628,11.35,8.543,2.441,3.356,15.194,17.391,5.858,8.848l16.506,17.086c17.91,22.608,34.9,38.23,38.108,46.925,11.93,12.662,16.262,21.083,11.289,18.795l11.533,10.648c19.313,23.1-17.208-17.391-1.678,2.624-22.547-21.907-49.61-47.17-66.483-66.941-6.651-4.149,4.485,8.39,3.265,9.55-18.612-17.91-19.008-20.564-37.04-39.054,1.1,2.929,7.719,12.021,18.52,22l-8.909-5.889c-3.905-3.966-3.265-4.577-2.593-4.333-4.516-3.387,2.929,6.926,9.306,14.34-.793-1.129-3.326-4.607-.183-1.709,4.119,5.705,11.594,16.018,16.323,21.144-8.116-10.526,12.265,10.526,1.739-2.624,4.729,5.1,14.188,15.377,11.258,13.425,11.564,10.252,10.465,7.353,22.914,19.588-9.794-8.726,2.807,5.4,4.607,7.536,4.119,2.99,2.166-1.77-2.563-7.6,20.381,21.052-.854-6.1,19.1,16.445-7.109-7.689-6.59-9.123-1.281-4.638,8.726,9.184,12.2,15.438,21.846,26.575,7.078,12.692-14.95-15.652-21.876-21.632l-.549,3.448c3.112,2.868,13.364,15.56,13.577,13.15,12.021,13.7,19.5,24.012,8.726,14.92,5.645,6.377,5.4,4.546,6.1,4.851,5.584,6.285,25.66,29.717,30.633,31.609-1.465-.549-8.909-10.862-16.506-17.086-1.739-3.143,8.7,4.149,19.161,16.476-2.715-4.241-9.184-14.432-11.136-17.544,9.4,9.458,3.356,4.638,7.323,9.458l-3.051-7.811-10.77-9.885c8.97,5.919-14.218-20.351-20.2-29.321,15.835,16.872,16.171,19.5,23.554,28.894,20.2,19.374-9.611-11.075-5.339-9.428,3.143,2.868,7.017,6.834,11.777,11.96L189.7,592.376a41.865,41.865,0,0,1,6.316,6.56c-15.56-20.076-22.853-23.676-27.521-33.745-9.763-7.048,9.763,12.876,7.048,12.6-12.357-11.35-19.313-23.1-25.629-30.48,5.1,2.746,29.321,27.765,17.91,12.662,6.621,9.123,14.95,15.683,13.852,17.757,7.353,9.4,7.719,7.048,17.086,16.476-2.5-3.448-17.208-17.361-13.608-15.988l2.349,2.5-15.53-19.954c10.465,7.323-15.377-24.134,4.668-5.644l-17.208-17.391c-.336-2.593.732-4.668-1.861-8.97,9.55,10.282,9.7,11.991,12.326,16.293,4.912,1.1-3.478-11.228-15.713-26.7C141.127,506.7,141.92,507.831,132.828,500.2c-22.395-25.965,16.079,13.669,6.1-.122,16.506,17.117,13.516,15.133,29.931,31.4-10.5-12.326-6.9-10.984-15.8-21.846,16.415,16.262,29.229,31.121,28.985,34.325-15.377-13.364,7.872,13.76-6.712.732l10.831,9.977c3.509,6.346-.153,4.027,6.468,13.211l-2.41-2.593,15.9,17.7.61-.58c8.818,10.038,22.578,26.849,22.7,27.734-.641-4.363-26.636-31.762-40.274-47.719,2.685-.61,32.341,28.955,19.4,13.242,7.9,8.024,17.025,15.682,23.493,23.92,3.509,5.492-7.353-4.455,3.753,7.231.427-1.465,6.8,5.95,6.346,2.441-14.248-15.408-27.185-31.121-37.711-44.271-6.651-9.184-4.638-10.069.61-6.346.305,2.593,13.211,18.306,24.164,29.138-14.432-16.323,14.218,10.435-6.9-10.923,2.746.214,4.455-2.441,22.456,16.079,5.431,8.116-6.621-2.075-3.844,2.96.671.153,5.492,4.577,9.55,9.123l-3.509-.488c9.946,7.963,15.5,14.187,15.042,10.709a53.441,53.441,0,0,1-5.431-5.339c-.153-.885,1.312-.366,1.129-1.282l16.506,17.117c-6.59-9.123,16.323,10.435,6.285-4.18l3.2,3.722c5,1.922-27.307-32.006-29.412-37.772,7.231,8.543,14.248,15.438,22.09,23.4-7.353-9.489,6.682,4.21,11.869,7.841-10.648-9-16.689-18.795-22.73-23.585-16.567-17.147-14.706-18.947-11.869-17.818,21.815,21.632,8.757,14.95,31.884,36.216,2.868,1.1-8.97-11.686-13.486-15.072,3.6,1.373,7.719,2.136,21.663,14.95-14.615-18.032-5.339-9.489-25.263-32.036.183,1.709,15.194,17.391,6.041,9.733l-14.432-17.117c.336-2.349,14.95,10.74,17.788,11.808l5.858,8.055-2.441-2.624c6.438,7.475,1.281,4.638,13.028,16.6-13.608-15.957,1.129-2.014-7.872-13.76l2.38,2.593c-10.038-14.615,27.246,21.235-1.495-11.35.091.885-12.235-10.5-17.757-16.72,7.658,7.017,6.468,3.3,15.194,12.418l2.471,3.448c3.539,1.373,5.706,2.2,3.234-1.221-10.313-11.411-18.917-19.679-23.92-26.575,8.848,5.034,23.92,26.575,34.508,34.782l-9.275-13.486,10.13,9.672c12.509,7.292-17.3-28.161-14.31-31.151,16.537,17.117,21.113,26.331,21.388,28.131,13.638,12.509.885-3.051,5.553-.488a19.052,19.052,0,0,0,2.868,2.136l-.305-.305.275.214c1.5.58-.427-2.288-3.478-6.133,1.861,1.892,3.753,3.753,5.736,6.011-2.441-3.387-7.6-10.5-10.526-14.554,1.1,1.1,2.044,2.075,2.563,2.563-1.526-1.678-2.624-2.959-3.814-4.3l-.305-.427c9.489,9.367,3.539,4.424,7.658,9.153l-3.722-7.231-9.519-8.818-.488-.763a5.019,5.019,0,0,0,.824.458c5.553,5.766,10.709,10.77,12.845,11.625-1.312-.549-7.994-9.184-15.011-15.408l-.031-.031a6.094,6.094,0,0,1,.122-1.129c1.037,1.281,2.014,2.563,3.387,4.18,13.242,12.662,4.973,4.119-1.22-2.746a82.9,82.9,0,0,1,7.078,6.1l.336.336-.092-.122c2.5,2.38,5.187,5.156,7.933,8.268-2.807-4.119-9.489-14.157-11.564-17.177,9.519,9.336,3.417,4.516,7.536,9.306l-3.326-7.628-3.6-3.265c1.007-.153,4.119,1.983,10.191,7.567-19.313-23.158,10.862,5.034-12.418-22.12,3.692,2.227,10.465,12.3,11.808,11.991a1.409,1.409,0,0,0,1.617-.61c7.6,8.513,15.164,17.3,15.316,17.879-.519-1.892-7.109-9.336-15.286-18.245.366-1.465-1.159-4.882-4.455-10.221.61.366,0-.549-1.5-2.349-.244-.366-.366-.61-.641-.976,7.75,7.658,16.293,15.133,22.791,22.822,3.753,5.248-7.017-4.79,4.211,6.8.183-1.281,6.773,5.98,5.889,2.838-6.133-6.407-11.9-12.784-17.544-19.039,2.715,1.007,3.112-.122,2.044-2.654.427.427.885.915,1.312,1.312-.671-.7-.824-.946-1.342-1.495a34.087,34.087,0,0,0-1.617-3.021c1.312.976,2.929,2.288,3.417,2.532a63.156,63.156,0,0,1,4.271,5.492c-.305-1.678-4.638-6.956-10.557-13.638,2.136.336,5.919,2.166,20.107,16.445,5.8,7.75-6.1-2.563-2.96,2.166.61.214,5.37,4.668,9.519,9.123l-3.082-.824c9.7,8.085,15.408,14.218,14.523,11.136-1.525-1.4-4.607-4.241-5.431-5.309-.214-.793,1.068-.183.824-.976l16.659,16.9c-6.956-8.757,15.682,11.045,4.943-2.96l3.3,3.631c4.638,2.288-28.1-31.243-30.724-36.582,7.445,8.36,14.523,15.225,22.395,23.1-7.658-9.153,6.407,4.455,11.411,8.268-10.5-9.153-17.055-18.4-22.975-23.341-5.217-5.278-8.543-8.879-10.74-11.533,5.95,4.79,10.1,8.635,12.357,10.191,3.356,4.546,4.577,7.109,18.306,19.832,2.624,1.281-9.4-11.319-13.821-14.828,3.326,1.648,7.017,2.776,20.9,15.621-5.4-6.255-7.658-9.123-9.306-11.319a31.653,31.653,0,0,0,5.4,2.624c1.129,1.19,1.922,2.105,3.692,3.875-1.465-1.648-2.441-2.776-3.356-3.844,1.281.183,1.434-.854-1.77-5.248l3.265,3.661c1.678.7-1.19-2.959-5.614-8.055,3.631,1.526,21.48,17.971-1.648-7.109.061.214-.976-.641-2.471-1.953.519-.549,9.794,8.116,13.791,10.953a99.956,99.956,0,0,1-8.879-8.573c1.373.519,1.77.275.031-1.922-10.557-11.2-19.161-19.466-24.439-26.087,3.234,2.075,7.658,6.621,12.387,11.625,3.173,4.607,4.3,7.353,18.062,19.924.732.275.366-.427-.519-1.617,1.648,1.586,3.356,3.417,4.821,4.577l-9.885-12.906,10.13,9.672c2.715,1.8,3.021,1.19,2.166-.58.427.4.671.549,1.1.946-.7-.824-1.1-1.343-1.709-2.075-4.18-7.078-19.71-25.537-18.215-27.277l.061.031c3.265,3.326,5.8,6.072,8.238,8.757l1.068,1.434-2.441-2.593c6.529,7.384,1.465,4.485,13.3,16.354-6.529-7.445-6.621-8.238-5.919-8.268,5.339,6.5,7.811,10.435,8.116,11.411,15.377,14.248-3.722-7.2,7.506,2.319,2.9,1.4-7.536-10.374-16.6-19.618a13.06,13.06,0,0,1,3.722,2.014c2.654,2.685,5.217,5.339,6.285,6.316-1.983-2.105-3.57-3.814-4.943-5.339,5.522,3.905,10.8,7.78-5.95-10.709,0,.183-.732-.427-1.495-1.037a5.882,5.882,0,0,0-.7-1.4l10.252,10.343-6.377-8.024c1.648.641,2.593.763,2.166-.244l.305.336c-1.373-2.38-.58-2.441,2.319-.244a77.934,77.934,0,0,0,6.987,6.56l-1.129-1.556c.549.488.885.763,1.5,1.312-1.648-1.831-2.471-2.9-3.478-4.119l-3.661-5.034c-.031-.458.61-.275,1.373.061l6.072,5.736c5,2.99,2.868-1.129-1.129-7.14-.458-1.953-2.776-5.858-7.841-12.57.946-.091,6.529,5.614,12.57,11.533a26.163,26.163,0,0,1,3.021,5.431c15.53,14.126-3.3-7.567,8.146,1.77,2.9,1.159-6.255-9.519-14.889-18.581-1.556-2.136-3.021-4.18-4.333-6.1,3.2,2.593,11.045,10.892,13.15,12.845-14.188-15.225-11.777-15.072-11.808-17.055l5.614,6.377c1.495.732,2.99,1.526,2.166.092l1.831,1.831-4.851-6.407c12.021,11.045,2.9-.092.915-3.905.4-.61,2.685.854,6.8,4.332,1.312,1.251,2.837,2.624,4.638,4.333,3.631,2.166-1.464-3.814-7.505-10.709.61-.122,1.922.488,2.685.549a59.283,59.283,0,0,0,5.8,5.278c-1.037-2.38-1.648-4.241-2.288-6.163,1.556-.305,1.1-2.715-2.166-8.055-.183-1.281-.4-2.563-.488-3.722,3.021,2.776,7.262,7.048,11.563,11.2,7.384,3.448-.336-7.17-6.712-16.659.183-1.892-3.051-7.262-6.255-12.54.336-.488,1.037-.61,2.563.03l8.238,9.58c2.776,1.159,6.468,3.448-4.882-9,28.955,27.429-13.486-21.083,17.666,8.024,4.577,2.349-3.448-6.743-10.679-15.225a4.306,4.306,0,0,1-.458-2.624c5.217,5.461,10.5,10.892,12.784,12.3-.519-1.465-.671-2.532-1.068-3.844.458.153.732.031.549-.7l-1.037-.976c-.214-.885-.58-1.861-.732-2.685L448.8,478.48c-6.865-8.879,15.9,10.831,5.339-3.356l3.3,3.661c3.539,1.617-13.577-16.567-23.615-28.222.031-.488.031-.976.031-1.465,5.065,5.309,10.13,10.435,15.56,15.9-7.6-9.245,6.5,4.394,11.594,8.116-10.557-9.092-16.964-18.52-22.944-23.4-1.556-1.556-2.776-2.868-4.027-4.18l.061-1.526a15.917,15.917,0,0,1,3.539,1.739c.427.549,1.281,1.5,1.556,1.831l.092-.153c3.783,5.156,4.18,7.323,18.764,20.717,2.715,1.22-9.275-11.411-13.73-14.889,3.417,1.587,7.262,2.563,21.205,15.377-15.011-17.666-5.767-9.123-26.056-31.335.336,1.587,15.5,17.147,6.407,9.428l-11.289-12.876c-.641-1.159-1.19-2.258-1.77-3.387,3.661,2.044,13.455,10.587,15.652,11.594l6.1,7.872-2.471-2.624c6.56,7.323,1.587,4.394,13.425,16.232-13.882-15.682.854-1.8-8.451-13.242l2.41,2.563c-10.526-14.187,26.88,21.571-2.41-10.526.153.58-6.407-5.339-12.174-10.984a3.156,3.156,0,0,0-.427-.976c2.838,2.593,2.96,2.227,2.2.976,1.617,1.1,3.448,2.5,7.658,6.834l2.593,3.356c3.387,1.495,5.431,2.441,2.837-.915-10.465-11.258-19.069-19.5-24.286-26.209l.275.214c6.468,6.8,14.737,15.774,15.042,14.8-5-5.278-7.139-7.658-7.9-8.665,2.441,2.441,5.126,5.339,7.841,8.3a31.053,31.053,0,0,1,2.746,4.119c-.488-.885-.885-1.739-1.342-2.624,6.316,6.926,12.845,14.249,18.062,18.4l-9.7-13.089,10.16,9.672c3.875,2.441,3.143.305.763-3.509l.214.244a3.824,3.824,0,0,1-.427-.61c-.336-.519-.519-.854-.885-1.434,1.617.488,20.717,19.069,9.031,5.217,4,3.478,4.18,2.96,3.3,1.312,1.4,1.434,2.99,3.082,5.156,5.461-13.516-15.194,5.828,3.3-2.532-6.682,4.7,5.217,12.692,13,9.275,8.635A165.356,165.356,0,0,1,481.6,440.25c-1.342-1.617-2.776-3.326-4.638-5.4,9.763,9.733,2.837.031,19.344,17.544-7.841-9.641-18.917-21.327-29.9-33.348l-.061-.336c7.994,7.689,8.97,6.621,26.148,25.6-2.624-2.166-7.2-5.553,5.767,8.146,7.719,7.017-4.943-5.919-6.316-8.482,3.509,3.692,11.869,12.479,17.452,18.337-1.739-2.5-1.1-2.715,2.532.336-9.306-8.635-12.876-14.828-20.869-22.608l13.089,15.5c.122,1.77-10.618-11.106-15.683-15.988-2.319-5.248-20.259-24.317-28.558-35.606a4.286,4.286,0,0,1-.061-.549l1.861,1.678c3.631,4.272,7.109,8.39,10.435,12.082-.671-1.19-.671-1.709-.336-1.861,5.4,6.133,15.774,17.147,18.428,19.618-14-16.628,10.74,8.94,14.706,11.96-4.79-4.119-15.866-16.659-19.985-21.48-9.153-12.479,7.139,6.682,15.744,14.828.091-3.905,24.134,19.527,13.852,5.187l-16.934-16.75,14.95,16.659c-8.36-8.238-20.686-21.937-30.877-33.5a16.594,16.594,0,0,0-2.014-4.333,7.7,7.7,0,0,1,.793.885l-1.4-2.044c-1.22-1.953-2.837-4.3-4.912-7.139.244-.031.854.427,1.556.976,1.648,1.77,3.478,3.844,5.583,6.438.366,0-.305-1.159-1.5-2.807,2.166,2.075,4.76,4.668,7.384,7.262,2.715,3.173,5.1,6.011,6.59,7.811,1.556.427,14.737,14.8,18.856,19.649l-1.007-2.9c4.119,4.638,10.13,11.5,14.249,16.2,6.316,5.614-10.313-13.211,2.99.153L516.2,437.84c12.113,9.794,13.821,11.96,16.781,12.113l-9.794-10.069c-15.957-19.557,16.079,15.652,10.465,6.5-4.851-7.017-8.6-12.2-23.89-28.5-5.217-6.651,3.966,3.051,9.885,8.97-8.177-9.611-23.036-27.368-12.937-17.7,4.3,5.492,7.811,9.977,9.824,12.937,15.255,16.262,4.607,2.288,12.387,9.367-5.644-6.956-18.734-23.1-30.175-37.193,4.943,2.624-7.567-10.831-15.164-19.923,9.092,9.214,19.191,18.978,27.521,26.666,4.7,5.217,10.465,12.174,10.069,12.509-3.966-4.7-6.987-7.719-10.8-11.808,9.641,13.059,22.151,23.371,33.531,36.064-2.776-3.692.092-2.075-9-11.2,23.92,24.47-10.831-15.8,8.421,3.478-2.288-2.532-10.343-10.374-15.56-17.025-1.587-3.234,9.275,8.6,14.31,13.394-6.438-7.384-10.008-13.577-6.865-9.916-5.156-6.651-23.31-24.1-32.585-35.606a101.9,101.9,0,0,1-6.8-8.238l-.03-.7c1.037.549,3.753,2.838,1.861.183,11.594,11.2,6.926,8.879,11.9,14.8l-5.248-9.519c8.6,8.146,14.981,16.689,12.509,15.164,10.679,9.977,2.624-.7-9.946-14.737,3.326,2.624.7-.732,6.377,4.516,6.682,8.146,29.046,32.219,32.128,36.979-2.532-.458-16.689-18.886-21.022-21.541l13.272,14.462c-7.994-7.78,1.617,3.265,2.166,4.76a49.556,49.556,0,0,1-6.5-7.414c.183,1.831-7.6-5.278,7.017,11.716,13.394,12.3-1.556-7.231,14.127,8.757l-16.384-22.151c-6.194-6.651-16.872-16.659-25.293-27,15.9,16.689,23.676,23.8,27.307,26-17.361-18.123-13.882-17.727-28.009-32.158,8.146,9.641-6.316-5.614-7.75-7.048-.061-.488-1.251-2.014-2.929-3.905a12.826,12.826,0,0,0-1.1-3.112,46.169,46.169,0,0,0,6.377,5.614c7.292,8.482,23.646,27.734,29.962,36.186,7.628,8.146-.183-1.831,8.726,7.109-9.489-9.275-15.8-17.727-19.984-21.48-5.98-8.818-22.212-29.138-24.592-34.63,24.988,27.46,16.628,22.852,46.986,54.736-3.112-4.79-15.438-18.062-13-16.567,15.652,15.927,3.509.427,4-.946l-8.024-7.811c-5.828-7.048-.4-2.532,1.464-1.4l3.234,3.722-4.363-5.553c.641.671,1.5,1.526,2.471,2.5-7.353-8.848,1.312-1.861-2.319-7.536-12.326-13.333-1.343.275-3.173-.824-2.929-2.96-8.97-7.841-17.086-17.422,1.007-1.068-12.967-17.7-11.289-18.4l-4.119-3.692a44.8,44.8,0,0,1-4.271-5.492c.976.336,1.007-.275.824-1.1l.122-.031c5.553,4.76,10.191,10.313,14.615,15.682,2.654,3.112,5.431,6.407,6.712,8.97-.732-1.251-1.373-2.471-2.014-3.692,1.587,1.8,3.173,3.875,4.821,5.4,10.465,12.143-2.593-.488,12.967,16.537l17.757,17.849c-9.885-11.808,6.377,4.516,4.424,1.587l-8.024-7.811c-13.211-14.462-2.837-4.027-.732-2.166L523,359.3c-4-3.051,12.692,15.835.885,3.966-2.776-4.21-8.6-10.953-13.364-16.628a22.906,22.906,0,0,1-1.281-3.051c.4.549,1.1,1.373,2.593,3.082,3.326,3.051-.458-1.587-2.838-4.821,0-.519.061-.946.427-1.068a242.824,242.824,0,0,0,22.029,24.866L517.172,349.42c2.654,2.2,8.207,8.512,8.818,8.879,3.326,2.593-15.316-16.323-10.8-12.967,3.021,3.021,6.56,6.346,9.763,10.008,1.373-.244-4.3-5.492-10.648-13.974-.4.427-8.238-7.689-15.011-15.133-.549-.671-1.1-1.312-1.953-2.258l1.556,1.434a110.739,110.739,0,0,1-9.214-10.709c.458.183.61.031.58-.214l15.8,15.591c-1.922-3.051-9.458-9.336-11.35-12.326a9.194,9.194,0,0,1-1.648-3.6c1.739,1.617,4,3.753,7.6,7.384l-6.987-8.3h.122c10.038,11.106,3.448,2.227,5.95,4.271,15.286,16.323-2.044,1.037,22.608,27.673,3.082,1.922,10.374,10.435,16.781,17.788-1.556-3.234-17.269-19.222-26.911-30.3,6.194,6.651,3.173.824,16.049,15.621,1.556.366-14-16.659-10.679-14.035,6.041,6.59,13.791,15.042,21.571,23.524-5.065-5.614,1.8.61,2.38,1.007-2.99-2.99-12.631-14.126-8.879-8.94-11.747-12.937.824-1.77-9.184-12.479,13.791,14.737,4.058,1.922,10.313,7.506-32.341-34.874,11.258,14.34-15.5-14.187a33.853,33.853,0,0,1-3.966-5.614c2.075-.122,2.96-1.587,5.309-1.526,3.2,3.692,6.834,7.872,11.747,13,4.241,6.56-5.522-3.448-.671,3.57,6.59,5.156,4.821.091-4.455-11.319-.366-2.532,33.409,33.745,26.575,23.829-10.526-11.075-12.937-13.73-17.178-17.513-3.387-4.333.732-.671,1.1-.976-5.4-6.255-7.872-7.933-11.655-12.326l-.763-1.312a92.352,92.352,0,0,1,9.58,9.611l.885,1.068c-8.3-11.38,26.026,26.392,7.109,3.844-5.278-5.553,1.129,1.831-2.471-1.525-8.238-8.513-18.978-21.388-21.846-25.476,7.048,7.78,1.831,1.129,4.516,3.356,12.113,12.631,2.532,4.424,10.4,13.3l2.807,1.129-2.075-1.861-10.4-13.242c1.678,2.593-2.868-2.227-7.6-7.445,2.5,1.678,1.251-.763,1.434-1.556,2.41,2.41,5.309,5.4,9.336,9.794-4.211-4.607-6.651-7.475-8.482-9.763,1.129.671,3.631,2.9,9,8.39-3.753-4.21-3.387-5.37-4.76-8.238,3.082,3.082,6.377,6.377,9.7,10.16,13.486,15.164,5.736,8.116,3.3,6.59,25.751,25.629-11.777-15.8.976-3.966,6.194,6.651,13.242,14.432,11.441,13.364,4.363,4.394-11.045-13.73-3.326-6.621-2.349-2.38-6.926-7.078-11.441-11.9-.153-.824-1.8-3.021-4.211-5.919l9.947,9.7c3.661,2.258-10.1-11.93-18.245-21.48l5.8,6.5c-1.434-3.57-16.049-19.588-18.367-24.286l1.648,1.587c16.72,18.52,22.7,27.155,48.665,54.889-2.776-5.156-8.36-14.309.854-5.8-5.675-8.024-23.341-26.941-36.308-40.64-1.983-2.96.152-1.068,3.661,2.227l6.743,8.177c-1.831-2.685-3.631-5.248-5.339-7.689,12.754,9.916,13.211,5.553,13.455,2.319-6.285-8.421-1.892-6.621-1.342-8.36,2.837,2.837,6.133,6.224,10.374,10.618-4.516-5.767-10.648-13.364-15.164-19.4l2.105,2.227,13.3,7.445c-1.8-5.706,4.485-3.3,1.556-9.763l.092.092-.214-.244a57.2,57.2,0,0,0-6.5-9.763l10.74,9.885c-5.461-6.224-8.879-10.648-11.655-14.462l2.5,1.159c6.133,6.621,7.536,9.245,4.821,6.956,7.567,6.956,4.7,2.868-14.248-19.039l-.183-.458a264.809,264.809,0,0,1,24.653,24.1C558.147,265.7,552.2,259.779,546,253.067c4.333,2.654-17.422-21.022-17.3-22.09l-.03-.031c-1.587-2.227-3.783-5-6.346-8.146,7.994,8.635,16.14,17.422,24.1,26-11.686-12.906-.732-2.166-.366-2.563-9.611-10.038-10.648-12.265-16.811-18.825-2.227-3.051-5.4-7.078-6.682-9.123.488.244.488,0-.519-1.342.427-.092,2.471,1.5,7.292,6.011,6.346,6.5,4.729,7.231,9.123,10.679,12.357,11.35-10.831-12.845,3.021-.092-5.461-5.339-10.862-11.319-15.469-16.72l-.305-1.373c6.5,6.316,9.824,8.879,23.615,23.707-15.194-17.361,12.326,10.5-5.858-9.916,11.411,13.333-5.1-3.692-7.231-5.583l-2.41-3.112c-.031.061-.275-.122-.793-.58l-23.1-26.3c-10.1-9.641,15.5,17.025,14.187,17.33-6.346-6.407-11.472-12.052-16.079-17.33a109.154,109.154,0,0,1-4.668-11.014c1.709,1.831,2.99,3.326,5.156,5.614a63.5,63.5,0,0,0-6.072-8.055c-.275-.915-.488-1.739-.7-2.593-.031-.092.031-.092-.091-.244-2.929-11.106-.092-16.72,12.113-12.235l7.75,10.008c-6.011-7.75.275-4.21,3.173-2.2l.824,1.129c20.595,17.94-16.811-20.625,6.316.641l1.739,2.258c1.251-2.349,22.852,17.544,13.913,4.821,8.7,6.072,18.337,16.232,28.039,24.225.366-1.251-11.045-13.638-13.425-16.171l-1.373-.641c-11.625-11.045-8.451-10.374-12.754-15.9-18-17.544-45.156-45.8-64.835-62.608,4.668,7.139-29.5-27.826-27.948-23.524,22.7,24.775-19.435-15.988.336,6.651-15.469-17.055-10.252-7.445-26.788-26.544-13.211-12.54,11.106,16.659-5,2.075-3.356-3.692-7.231-7.6-8.97-9.824,7.933,10.862-12.174-10.557-13.12-9.58l16.628,16.964c5,5.889-6.8-5.95-4.271-2.654a167.615,167.615,0,0,1,17.147,16.445c3.478,4.455,8.482,10.374,7.994,10.862a115.8,115.8,0,0,1-10.679-12.082s-2.563-.458-10.435-8.329c-4.973-5.858-4.485-6.377-13.455-16.232-6.316-3.57-5.492-5.37-19.344-18.154,19.71,19.8,7.109,9.763,10.709,15.011-7.9-7.933-1.892-3.051-7.6-9.245-35.667-33.5,3.692,8.177-5.492,2.593a69.029,69.029,0,0,1-5-5.889c1.892,2.685-.336,1.1-2.746-.763-5.309-5.828-10.16-10.862-11.991-11.96.793.427,4.271,4.638,8.452,9.336-.915-.549-.7.061,2.776,3.966a14.153,14.153,0,0,1-2.166-1.709c-3.2-3.112-6.926-6.926-11.014-11.655.732.976,1.709,2.319,2.807,3.844C358,24.389,351.8,18.257,351.346,19.294c20.412,20.107-5.4-2.38,16.049,19.557l-13.669-11.93c6.133,7.292,16.872,18.032,25.171,26.7,3.082,3.57,5.644,6.651,4.393,5.889-2.9-3.112-6.712-7.14-11.5-12.235l13.15,15.53a68.182,68.182,0,0,1-6.194-6.682c1.526,1.861,2.563,3.021,3.936,4.607-11.808-11.258-29.9-31.64-39.542-40.03l11.38,12.387-9.092-7.719-.885-1.159c3.448,4.485-.824,1.861-7.109-4.607-4.851-5.126-4.363-5.644-9.153-10.679,9.977,11.716-32.311-26.88-.885,6.9-6.133-5.339-6.987-4.363-17.055-14.92,13.791,14.95-6.529-2.563,1.922,7.353-4.79-5.1-13.211-12.479-9.794-8.055,6.011,4.912,10.984,10.74,18.4,19.222C310.034,9.408,317.326,19.965,300,2.7c6.316,7.719,15.011,16.628,23.951,25.812v.031c.366.4.976,1.007,1.526,1.556.61.641,1.22,1.251,1.861,1.953.763.763,1.526,1.587,1.861,2.014.092.275-.092.275-.275.305-1.1-.915-2.105-1.678-3.021-2.38L312.353,17.433c4.394,5.553-2.624-.7-5.736-2.5-1.1-1.159-2.105-2.136-3.387-3.509,2.837,1.983,7.811,4.973-5.553-8.3-8.177-6.56,4.973,5.889,6.224,8.6C300.363,8.035,291.331-.111,285.778-6.03c1.709,2.563.915,2.99-2.96.244,9.794,8.085,13.089,14.615,21.449,22L291,.8c.153-1.892,9.062,8.421,14.676,13.76-.732-.122-.4.976,2.563,4.851l-3.2-3.692c-4.027-2.532,23.158,27.124,29.016,35.27l-1.1-.885c-6.407-7.384-12.631-13.913-19.466-21.2,7.567,9.245-6.01-4.821-10.8-8.909,1.526,1.465,2.5,2.715,3.875,4.149-.671-.671-1.739-1.678-2.136-2.014,2.868,3.356,3.783,4.7,3.875,5.156-.885-.854-1.464-1.5-2.471-2.532-.763-.427,0,.61,1.281,2.136-4.088-2.929-15.774-13.791-18.581-15.5,5.156,3.722,16.476,16.049,20.625,20.9l.092.122c-2.563-2.258-5.553-5.034-9.824-9.306,3.509,4.149,5.614,6.743,7.17,8.757-4.119-4.149-9.824-10.038-14.035-13.608-.732,4.729-25.965-17.513-15.866-2.837l17.666,15.957L279.036,15.083c6.285,5.583,14.615,14.157,22.669,22.761,1.8,2.136,4.333,5.126,8.085,9.336a37.042,37.042,0,0,1,3.844,3.57c3.3,3.661,6.072,6.712,8.513,9.428a65.1,65.1,0,0,1-9.55-8.97l-2.624-3.3c-3.021-1.892-4.882-3.021-2.258.275,2.41,2.746,4.333,4.79,6.529,7.2l2.96,4.455a41.572,41.572,0,0,0,4.912,4.21c1.526,1.709,2.563,3.021,3.875,4.546-1.312-1.037-2.715-2.136-4.149-3.265-7.872-8.635-17.269-20.015-23.981-26.087l9.794,12.937-9.763-10.038c-1.434-1.1-2.136-1.465-2.38-1.281-4.089-3.112-14.126-13.577-17.727-17.635l.7,3.173c-4.149-4.577-10.282-11.319-14.523-15.927-6.682-5.217,10.282,13.3-3.6.519L273.33,24.816C260.3,16,258.593,13.832,255.024,14.382l10.191,9.672c16.049,19.557-16.842-14.859-11.625-5.248a116.4,116.4,0,0,0,6.834,9.489c-.336-.336-.488-.58-.885-.976,10.1,11.655-31.182-28.009.092,5.858-5.919-5.522-6.56-4.729-16.537-15.408,13.76,14.95-5.95-3.112,2.563,6.682-4.821-5.126-12.937-12.753-9.458-8.421,5.766,5.1,10.8,10.953,18.306,19.374-10.618-10.221-3.051-.031-20.137-17.483C242.941,28.142,255.237,40.5,267.2,53.252c-10.526-10.16-9.885-6.865-28.955-27.307,2.685,2.136,7.384,5.461-5.827-8.055-7.872-6.834,5.034,5.919,6.407,8.451-3.57-3.661-12.113-12.265-17.757-18.062,1.709,2.5,1.129,2.746-2.563-.244,9.428,8.512,13.059,14.676,21.235,22.273L226.4,14.992c-.153-1.77,10.77,10.923,15.957,15.713,1.068,2.38,5.675,7.78,10.953,13.821-4.577-4.21-9.245-8.329-13.638-13,2.746,3.722-.488,2.471,9.031,11.2-3.875-3.661-5.919-5.4-7.292-6.468l-.854-.793.488.58c-1.831-1.281-1.648-.427-.4,1.526-5-4.516-12.967-12.174-15.072-13.7,4.455,3.631,14.035,14.065,18.886,19.5,1.129,1.77,1.465,2.746-.092,1.678-4.088-4.21-10.221-10.679-14.523-14.615-.061,4.027-24.592-18.947-14.1-4.7l17.269,16.415L217.77,25.732c12.692,12.021,34.691,36.43,44.424,47.353-5.309-5.461-3.417-1.434-11.747-10.923l5.8,8.024c6.926,6.956,4.638,3.234,11.472,11.289-5.156-4.7-9.58-7.292-18.093-17.483-.885.031,2.96,5.126,10.343,12.937.275.458.58.976,1.068,1.648-2.807-2.593-9.092-9.519-14.889-16.049-.824-1.526-4.79-6.194-5-7.231a33.432,33.432,0,0,1,6.59,7.384c.092-2.2,8.3,4.394-6.5-12.418-9.611-7.78-6.041-1.342-7.719-1.1-4.7-4.424-12.754-13-15.835-16.506l1.037,2.9c-4.18-4.607-10.343-11.319-14.523-15.957-6.438-5.461,10.5,13.089-3.051,0l12.906,13.882c-12.326-9.519-14.1-11.686-17.055-11.686l9.946,9.824C223.14,50.994,190.524,16.3,196.23,25.4c4.973,7.017,8.757,12.143,24.378,28.161,5.278,6.56-4.058-2.96-10.1-8.757,8.329,9.428,23.463,27,13.15,17.544-4.363-5.461-7.933-9.855-9.977-12.814-15.56-16.018-4.76-2.166-12.662-9.062,6.59,7.78,23.036,27.49,35.484,42.41.854,1.617,1.556,3.112,1.342,3.6l8.421,7.414c2.9,3.509,2.929,4.241,1.953,3.966-9.489-9.245-20.29-19.252-29.046-27.124-4.76-5.126-10.648-11.96-10.282-12.326,4.088,4.668,7.139,7.6,11.014,11.655-9.824-12.937-22.547-23.005-34.141-35.514,2.837,3.661-.092,2.105,9.214,11.106-24.439-24.1,10.953,15.682-8.6-3.234,2.349,2.441,10.5,10.13,15.8,16.75,1.617,3.2-9.428-8.421-14.554-13.15,6.529,7.292,10.191,13.455,6.987,9.885,4.943,6.133,21.266,21.51,31.09,32.738a41.8,41.8,0,0,0-3.783-1.953,18.932,18.932,0,0,0-1.19-1.617l.824,1.526c-1.861-.763-2.563-.244-1.312,2.258-5.522-5.8-8.818-10.4-6.926-9.336-10.862-9.733-2.685.854,10.16,14.676-3.417-2.563-.732.793-6.5-4.333-6.865-8.055-29.6-31.731-32.738-36.491,2.593.366,16.994,18.612,21.388,21.174L192.111,60.3c8.177,7.628-1.587-3.3-2.136-4.76a50.468,50.468,0,0,1,6.59,7.353c-.244-1.922,7.719,5-7.14-11.747-13.669-11.991,1.556,7.353-14.4-8.39l16.659,21.937c6.316,6.59,17.239,16.415,25.751,26.575-16.2-16.354-24.134-23.31-27.826-25.446a203.181,203.181,0,0,1,18.245,20.625c-1.342-.854-1.068-.153-.214,1.159-5.767-6.651-11.38-13.3-14.523-17.422-7.78-7.994.214,1.892-8.879-6.926,9.641,9.123,16.079,17.513,20.381,21.144,1.373,1.983,3.417,4.7,5.583,7.567-.336.061-1.739-.976-5.553-4.455L216.794,100.6l.488.61c-2.868-1.8-5.034-3.3-6.926-4.577-5.827-7.353-10.4-13.455-28.589-31.884,3.2,4.76,15.682,17.818,13.242,16.445-15.927-15.682-3.57-.336-4.119,1.068l8.177,7.658a13.621,13.621,0,0,1,1.159,1.5,5.146,5.146,0,0,0-1.373-.031l2.38,2.288c-.885-.4-2.715-1.739-3.6-2.258l-3.265-3.661,4.393,5.461c-.7-.641-1.556-1.5-2.471-2.441,3.143,3.692,3.173,4.455,2.685,4.7-2.075-1.434-3.143-1.77-1.892.641a101.466,101.466,0,0,0,7.292,10.4c-1.068-1.159-2.227-2.41-3.844-4.119L182.408,84.892c10.069,11.686-6.5-4.3-4.516-1.434l8.177,7.658c13.516,14.218,2.9,4,.793,2.2l20.076,20.412C211,116.654,194,98.072,206.023,109.7a133.943,133.943,0,0,0,8.543,10.5c-1.4-1.312-2.837-2.654-4.119-3.783,4.18,4.851,10.007,11.808,13.425,16.323-3.2-3.448-.885-1.5-5.553-6.59-2.2-1.892-1.342-.671.183,1.281l-.336-.305.549.61c1.709,2.166,3.905,4.943,3.966,5.522a10.691,10.691,0,0,1-1.434-.732l-.092-.092c-3.356-4.455-6.255-8.329-7.841-10.984-5.614-5.583-7.841-7.323-8.879-7.6-2.075-2.105-3.661-3.966-6.1-6.285l5.705,6.255c-1.1.244.4,3.509-4.485-.336,3.783,4.76,11.075,13.882,18.856,23.615a31.75,31.75,0,0,0-4-3.021c-1.587-1.5-3.478-3.265-5.95-5.736,1.495,1.77,3.57,3.844,5.248,5.736a2.336,2.336,0,0,0,.366.946c-1.8-1.983-3.814-4.149-6.56-6.987-3.112-1.831-10.526-10.221-17.056-17.513,1.587,3.265,17.544,18.978,27.368,29.9a26.18,26.18,0,0,0-3.2-2.99,106.625,106.625,0,0,0-8.3-8.879c-6.529-5.278.549,1.617,4.3,5.95a105.837,105.837,0,0,1-9.123-9.367c-.427-.092.61,1.281,2.2,3.2-3.143-3.112-6.468-6.377-9.123-9.031.549.854.427,1.037.427,1.373-1.556-1.617-3.02-3.173-4.577-4.821,5.156,5.522-1.892-.58-2.441-.946,1.1,1.068,3.112,3.173,5.034,5.248a13.25,13.25,0,0,1-1.312-.732A90.753,90.753,0,0,1,202.3,129.956l.122.183c-6.834-6.468-13.974-12.723-20.686-19.924,2.715,3.814-.61,2.624,8.94,11.35-9.7-9.123-10.282-8.574-8.634-5.675-3.417-2.166-4.119-1.526,4.7,8.512-.458.122-1.922-.824-6.072-4.607,1.129,1.281,3.844,3.753,6.9,6.773-3.509-2.532-5.95-3.753-13.638-11.991,7.689,8.543,4.516,6.743,1.739,5.37l-.03-.031c-2.105-1.037-3.905-1.8-.336,2.563-4.76-5.126-13.211-12.54-9.916-7.994,4.119,3.234,7.872,7.414,11.991,12.174-2.105-.824-2.2.519-2.349,1.617-1.8-.763-4.516-2.563-12.662-10.8,2.441,3.173,5.8,6.682,8.848,10.069-1.22-.946-2.807-2.288-4.912-4.271l6.956,10.1c.366.976,3.326,4.577,3.448,5.278-2.929-2.715-6.621-6.377-11.716-11.869,2.9,1.861,8.085,4.668-5.217-8.665-8.268-6.407,4.851,6.041,5.919,8.909-3.478-3.783-12.57-11.869-17.971-17.879,1.525,2.685.61,3.173-3.387.519,9.977,7.994,12.875,14.889,21.266,22.242L152.66,116.2c.427-2.319,10.923,10.8,16.293,15.408.488,2.136,3.234,5.919,6.773,10.343-5.217-3.783-6.956-4.943-9.306-4.668l10.13,9.733c1.068,1.251,1.4,1.709,2.044,2.532-.305.366-.7.763-4.058-1.983-1.037-1.129-1.922-2.044-3.051-3.2l.183.275c-2.9-2.868-5.4-5.309-6.56-6.255,1.129,1.4,1.617,2.075,2.227,2.929-2.258-1.77-3.478-2.349-2.075.061.122.183.275.366.4.58-5.1-4.088-14.309-12.54-16.842-13.974,5.248,3.631,16.384,16.171,20.381,21.083,8.482,13.15-7.567-6.224-16.72-13.882-1.373,5.248-26.7-16.9-17.239-1.739L153,149.422l-15.072-16.567c13.059,11.655,34.63,36.46,44.21,47.6a14.677,14.677,0,0,0-5.126-3.631c-7.841-7.9-16.262-15.408-24.348-23.981,2.838,3.692-.305,2.349,9.214,11.136-15.621-14.828-7.384-4.7-4.058.275-1.068-1.281-1.983-2.441-2.685-3.326-2.075.061-15.408-14.157-19.5-19.069l.458,3.448c-4.088-4.638-10.1-11.442-14.249-16.14-6.834-5.126,9.886,13.669-4.027.885l12.754,14.065c-13.425-8.543-15.072-10.8-19.008-9.885l10.13,9.7c15.5,20.015-16.933-14.8-12.235-4.729,4.394,7.536,7.841,13,23.524,28.955,4.973,6.834-4.455-2.593-10.618-8.268,8.085,9.7,22.7,27.765,11.96,18.673-4.119-5.705-7.445-10.282-9.245-13.516-15.621-15.927-5.584-1.312-13.943-7.841,6.468,8.421,23.249,30.267,35.209,45.8,4.638,4.424,9.946,9.794,15.316,15.377-.458.885-3.143-.183-.885,3.509,12.723,12.967,1.617-.519,3.539.4,1.251,1.159,3.143,2.715,5.4,4.607l1.312,1.465c-1.617.366-.366,3.753,3.2,9.092a45.616,45.616,0,0,1-3.936-2.868c-.946-1.251-2.96-3.509-7.719-8.451L146.8,211.542a20.1,20.1,0,0,1-3.326-4.638c5.309,4.455,18.673,17.94,14.493,12.174-10.1-9.7-22.364-20.2-32.25-28.1-4.76-5.187-10.374-12.3-9.794-12.876,4,4.76,7.109,7.689,11.045,11.655-9-13.7-22.761-22.791-34.233-35.423,2.624,3.905-.854,2.776,8.726,11.533-24.866-23.615,9.641,16.994-10.4-1.5,2.319,2.5,10.77,9.947,15.774,16.842,1.129,3.661-9.916-7.994-15.225-12.479,6.407,7.414,9.306,14.279,6.163,10.618,4.943,6.865,24.1,23.341,33.135,35.118,15.133,17.361.549,4.3,3.966,9.733-12.265-10.526-6.651-9.153-11.533-15.225l4.119,10.74c-9.123-7.658-15.072-16.6-12.235-15.5-11.35-9.275-3.814,1.861,8.879,15.866-3.661-2.258-1.19,1.159-7.262-3.631-6.529-8.329-29.351-31.975-31.975-37.132,3.3-.366,16.689,18.856,21.724,20.778L93.134,185.821c8.421,7.353-1.129-3.753-1.434-5.522,3.875,3.173,4.821,5.187,6.468,7.475.366-2.38,8.726,4.18-5.736-12.967-14.4-11.289-.214,9-16.537-6.377l15.316,23.249c6.285,6.59,17.666,15.866,25.812,26.453-16.323-16.14-24.744-22.761-28.955-24.317,17.94,17.6,13.3,18.367,27.978,32.25-8.055-9.733,6.834,5.1,8.3,6.468-.305,2.349,15.835,16.872,16.049,18.581-6.346-1.587-11.045-11.686-19.74-15.835-7.2-8.573-23.341-28.009-29.26-36.918-7.811-7.933-.305,2.41-9.672-6.194,10.007,8.787,15.866,17.666,20.442,21.113,5.339,9.458,21.022,30.389,22.456,36.735-25.293-27.124-15.347-24.1-46.59-55.133,2.746,5.187,15.255,18.245,12.448,17.178-16.262-15.347-4.638.671-5.828,2.685l8.482,7.414c5.736,7.17-.244,3.173-2.41,2.38l-3.2-3.722,4.18,5.736a21.732,21.732,0,0,1-2.593-2.38c7.17,9-2.349,2.929.7,9.092,12.631,13.12,1.953-.885,4.058-.061,3.112,2.807,9.794,7.078,17.818,16.75-1.77,1.831,11.991,18.7,9.489,20.229l4.485,3.356c3.539,4.272,4.3,5.706,4.241,6.407-1.251-1.281-2.319-2.38-3.692-3.783.671,1.434,1.556,3.112,2.319,4.7-.183.061-.427.03-.488.244-10.435-7.353-16.171-19.527-24.5-26.026-10.374-12.265,3.387-.336-12.418-17.147L72.57,220.817c9.733,12.021-7.261-3.539-5.461-.427l8.421,7.384c13.394,14.279,2.563,4.3.336,2.593l20.259,20.2c4.485,2.593-12.235-16.232.061-4.912,4.485,8.36,20.93,24.622,19.191,27.216-7.811-7.963-2.441-3.387-8.024-9.672-6.1-4.851,9.123,12.6,1.617,7.231a145.682,145.682,0,0,0-22.3-25.171l14.31,16.232c-2.96-1.922-8.512-8.207-9.245-8.482-3.692-2.2,15.713,15.988,10.557,13.181a117.678,117.678,0,0,1-10.1-9.672c-1.953.854,4.119,5.706,10.069,14.615,1.159-1.159,23.951,22.425,25.11,26.209-4.15-.793,7.2,13.486-12.845-4.973l8.909,10.892c-13.516-15.133-6.011-3.966-8.909-5.919-15.713-15.957,3.082-2.136-22.029-28.314-3.6-1.373-10.862-9.947-17.238-17.33,1.159,3.661,17.452,19.069,27.063,30.206-6.285-6.56-4.088.061-16.9-14.8-2.014.122,13.76,16.9,10.038,14.645-6.072-6.468-13.943-14.828-21.846-23.158,5.126,5.553-2.288-.214-2.96-.519,3.082,2.9,12.723,14.065,9.275,8.6,11.9,12.845-1.678,2.654,8.512,13.181-14.126-14.493-4.912-1.068-11.716-6.133,33.043,34.172-10.709-14.92,16.659,13,9.885,12.906-3.356,5.339,9.123,22.517-8.116-4.79-12.631-13.12-25.08-25.385-3.722-7.2,6.407,2.5,2.014-5-7.292-4.394-6.5,1.648,2.41,13.333-.214,3.2-34.721-32.311-28.619-21.724C64.118,281.2,66.5,283.822,71.075,287.269c3.265,4.485-1.19,1.159-1.77,1.739,6.316,7.384,9.062,7.6,14.1,14.523-2.319-1.739-4.455-2.563-11.5-10.221l-.854-1.159c7.658,12.021-27.094-25.324-8.512-2.471,5.431,5.4-.946-1.983,2.9,1.159,8.512,8.238,19.039,21.327,21.632,25.659-7.109-7.689-2.075-.763-5.1-2.777-12.418-12.235-2.014-4.912-9.916-13.73l-3.448-.519,2.2,1.678,9.977,13.76c-2.715-5.187,15.56,15.1,16.506,17.086-3.6-1.373-7.17-2.746-20.564-16.994,13.394,14.249,11.5,15.164,13.364,19.222,5.98,3.966,11.747,11.93,15.8,16.811L90.693,338.558c-2.136-5.767-12.509-12.265-21.266-22.242-13.577-15.133-5.248-8.635-2.38-7.567C40.106,284.34,78,325.377,64.423,314.424,58.169,307.864,51,300.114,53.1,300.938,48.5,296.728,63.813,315,55.484,308.5c4.607,4.241,17.818,16.75,22.059,23.341L60.7,317.109c-5.034-1.953,15.9,17.7,21.785,26.544L94.019,353.9c13.455,14.279-1.861,1.739,13.15,17.452,1.312-.336-9.824-12.876-4.607-9.245,14.859,14.859,6.621,9.184,13.913,17.818-8.146-4.821-8.238-5.706-21.2-16.476C72.478,339.809,69.427,332,39.588,301.518c2.105,5.767,6.834,15.866-2.99,7.933,5.156,8.574,23.249,27.124,36.552,40.518,1.739,3.173-.58,1.4-4.333-1.648l-6.56-8.329c5.339,9.519,11.991,18.673,9.458,20.168,2.746,5.187,16.781,18.856,27.673,29.687l1.19,3.783,3.051,2.807c14.279,15.408,8.3,11.472,6.956,11.747-6.255-6.529-7.231-8.573-11.136-12.54-6.011-4.821-5.675-2.166,0,4.943-6.316-6.56-19.832-21.663-14.584-18,1.5,1.5,3.905,3.875,5.461,5.461l-6.743-10.1c6.041,9.794-10.984-5.858-25.9-21.541,6.011,9.733,16.872,14.8,20.595,22.792-32.158-28.07,3.143,13.608-40.457-28.772,7.475,10.282,20.564,26.91,19.527,29.839,12.6,13.12,3.57,6.316,19.313,22.334,18.245,15.225-20.808-28.711,3.905-5.95-4.943-6.865-15.866-17.7-22.273-25.11-.275-1.77,1.892-.915,9.733,7.048,6.072,9.794,29.992,32.189,28.344,34.874,10.923,10.831,8.848,5.065,12.479,7.292a197.054,197.054,0,0,0,17.91,17.635c9.641,11.136,17.086,21.449,25.232,31.212-5.889-6.072-9.245-9.611-12.662-13.15l15.622,20.869a266.067,266.067,0,0,1-24.2-24.195c-5.1-2.746,9.7,16.964-9.184-2.715,1.281,4.668,11.686,11.136,17.117,16.537l.824,1.129.244-3.2c21.968,22.517-7.262-3.6,13.3,18.367,39.359,41.586-15.011-10.77-9.946-3.051L115.986,449.1l5.034,7.719c-10.435-12.265-29.26-31.914-39.877-45.095-2.563.7-13.638-6.041-9.4.549-10.13-9.733-19.5-19.13-28.985-29.382,16.262,20.351-11.747-7.017-13.73-6.1,9.123,12.57,16.049,13.638,28.985,29.321-7.689-7.079-2.715-.214-.275,3.2-4.79-5.95,6.468,2.5,12.448,6.468-1.373.275,12.753,14.828,18.306,21.083L92.89,438.6c17.269,18.184-.336,3.112,7.78,12.876C85.445,435.033,84.957,434.514,69.793,418.1c5.065,7.75,3.265,9.489-7.414.458-6.9-5.95-7.231-8.574-11.289-13.455-10.892-10.8,5.126,7.78-8.238-5.675-9.489-10.252-.214-1.709-2.654-5.126l-8.39-1.587c-6.255-6.529-7.353-9.458-4.363-7.445-8.36-6.529-5.675-2.166,14.34,21.2C34.248,401.1,23.722,392.9,14.935,382.92ZM185.4,245.073l1.1,1.556c-1.587-1.526-3.082-2.96-4.272-3.905C181.157,241.259,182.866,242.724,185.4,245.073ZM175.36,134.045c2.776-.214,13.364,13.73,19.374,18.886l.214.214c-1.068-.976-1.953-1.709-2.807-2.441-1.434-1.526-2.837-3.021-3.692-3.966l.4,1.373c-1.19-.885-2.288-1.678-3.387-2.441l-7.17-7.78A31.979,31.979,0,0,1,175.36,134.045ZM256.58,515.489c4.943,5,8.36,9.153,12.113,13.608-.854-.793-1.587-1.4-2.593-2.349-3.234-4.394-8.818-9-12.235-13.394A21.125,21.125,0,0,1,256.58,515.489Zm-9.123-18.337c-.061-.549.488-.366,3.173,2.41,1.861,2.075,3.387,3.875,4.668,5.492C252.979,502.736,250.447,500.2,247.457,497.152Zm17.33,18.947c-.793-.976-1.556-1.922-2.319-2.868-1.068-1.342-2.2-2.746-3.356-4-1.251-1.526-2.5-3.082-3.692-4.363a7.047,7.047,0,0,1,.58.427l.946,1.037c-.366-.4-.488-.58-.793-.915,2.105,1.526,6.194,5.248,10.221,8.97,1.739,2.136,3.509,4.393,5.522,6.8-1.312-.61,1.1,2.227,3.966,5.522-1.587-1.19-2.288-1.4-2.38-1.007C270.889,522.873,267.838,519.456,264.787,516.1Zm4.18,6.834c1.251,1.373,2.41,2.715,3.57,4.027-1.434-1.373-2.99-2.9-4.516-4.393C268.387,522.751,268.967,523.27,268.967,522.934ZM229.486,484c1.709,1.526,3.6,3.265,6.377,5.919-9.824-8.635,2.96,5.309,4.76,7.414,4.149,2.96,1.983-1.648-2.838-7.384,2.777,2.807,4.7,4.638,6.163,5.98,3.265,4.3,6.346,8.513,10.282,13.059-.946-2.044-9.733-12.082-3.631-7.2l5.034,5.37-.244,2.288-1.373-1.251c.58.549.885.915,1.373,1.342l-.061.366.519.549-.091-.061c.305.305.244.183.458.427,2.014,2.014,5.309,5.614,8.177,8.6-.275,0,.427,1.1,3.844,5.156-5.919-5.706-12.113-11.655-18.367-17.666a23.078,23.078,0,0,0-3.539-3.417l-6.194-6.011C233.331,490.074,230.676,486.413,229.486,484Zm14.767-388.1-1.953-2.2c.824.854,1.617,1.587,2.441,2.441Zm-2.746-2.96,1.373,1.739c-1.617-1.587-2.807-2.99-3.905-4.271C239.8,91.177,240.653,92.092,241.507,92.947Zm57.94,454.914.214.092.275.366Zm25.873-5.98c-.458-.763-1.007-1.556-1.5-2.349,1.8,2.105,3.3,3.905,4.79,5.706C327.883,544.444,326.541,543.132,325.32,541.881Zm26.27,6.224c-3.509-4.241-3.631-5.461-2.654-5.339,1.739,1.648,3.844,3.722,5.8,5.889Zm25.385-3.478c-.61-.549-1.373-1.312-1.831-1.648l.519.214C376.121,543.681,376.548,544.108,376.975,544.627Zm-9.123-42.074a32.025,32.025,0,0,1,2.685,2.258c5.644,6.285,11.014,12.448,16.11,18.306C378.836,514.94,372,508.045,367.852,502.553Zm49.4-49.153c3.387,3.6,6.468,6.9,3.265,4.241C419.171,456.024,418.1,454.62,417.249,453.4Zm58.825-11.716c-1.464-1.678-2.471-2.868-4.577-5.217,1.281,1.251,2.288,2.136,3.2,2.929C475.311,440.372,475.768,441.074,476.074,441.684Zm4.79-70.663A28.237,28.237,0,0,1,479,368.367l.244.092c3.814,3.936,8.97,9.4,13.425,13.882.458.61,1.22,1.434,1.5,1.922C490.719,381,483.64,373.615,480.864,371.021Zm23.31-33.074c-.03-.183-.519-.732-.458-.824.824.854,1.037,1.1,1.587,1.709C504.937,338.558,504.754,338.436,504.174,337.948Zm8.848-53.821-2.715-2.685-.946-1.4ZM383.718,58.744a52.037,52.037,0,0,1,5.889,7.231C387.287,63.229,385.335,60.819,383.718,58.744ZM270.1,39.217c-.458-.458-.824-.763-1.312-1.281l-.458-.519C268.814,37.936,269.547,38.668,270.1,39.217Zm-.641,24.256c-2.349-2.715-4.546-5.309-5.644-6.9C265.977,59.08,267.686,61.246,269.455,63.473Zm-26.636,29.87c-1.678-1.434-3.2-2.715-4.607-3.875-.58-.763-1.526-1.709-1.831-2.258C238,88.706,240.409,90.994,242.819,93.343Zm-16.872-.732-.061-.061-.031-.061Zm-3.3,8.451.336,1.77c-1.434-1.556-3.234-3.539-4.943-5.431l.153.122C212.1,90.6,218.319,96.7,222.652,101.063Zm-8.94,17.727c-7.14-7.994-3.692-5.248-5.217-7.475,3.112,3.57,6.9,7.658,12.57,13.333,3.3,4.363.336,1.8-3.753-1.922C216.122,121.474,214.933,119.857,213.712,118.789Zm2.38,18.459c2.166,2.105,4.088,4,5.614,5.492,1.1,1.159,2.075,2.288,3.234,3.448,1.556,1.739,3.173,3.478,4.851,5.309l-.153-.153,1.251,1.4c.305.4.61.824.946,1.22-.58-.275-1.129-.488-1.281-.366l.214.244c-.153,0-.122.275.061.7-1.373-1.068-2.9-2.319-4.729-3.936C220.089,143.9,226.008,148.263,216.092,137.248Zm-7.933-3.722.366.458-.58-.549,3.417,3.844c1.282,1.526,1.953,2.441.976,1.709-3.509-3.692-7.6-8.055-11.93-12.6C201.233,126.447,204.406,129.59,208.159,133.526Zm-34.935,100.9c-2.044-3.692-.275-2.837,1.282-2.227,3.051,3.387,5.888,6.621,8.6,9.855-2.441-1.861-6.255-5.187-1.678.122-.824-.641-1.709-1.342-2.471-1.831C177.191,238.452,175.421,236.591,173.224,234.425Z" transform="translate(-276.159 -317.089)" fill="url(#linear-gradient)"/>
    </g>
  </g>
</svg>
