<svg xmlns="http://www.w3.org/2000/svg" width="56.321" height="49.281" viewBox="0 0 56.321 49.281">
  <path id="Icon_awesome-bars" data-name="Icon awesome-bars" d="M2.011,13.27h52.3a2.011,2.011,0,0,0,2.011-2.011V6.23A2.011,2.011,0,0,0,54.31,4.219H2.011A2.011,2.011,0,0,0,0,6.23v5.029A2.011,2.011,0,0,0,2.011,13.27Zm0,20.115h52.3a2.011,2.011,0,0,0,2.011-2.011V26.345a2.011,2.011,0,0,0-2.011-2.011H2.011A2.011,2.011,0,0,0,0,26.345v5.029A2.011,2.011,0,0,0,2.011,33.385Zm0,20.115h52.3a2.011,2.011,0,0,0,2.011-2.011V46.46a2.011,2.011,0,0,0-2.011-2.011H2.011A2.011,2.011,0,0,0,0,46.46v5.029A2.011,2.011,0,0,0,2.011,53.5Z" transform="translate(0 -4.219)" fill="#0cb3bf"/>
</svg>
