<svg xmlns="http://www.w3.org/2000/svg" xmlns:xlink="http://www.w3.org/1999/xlink" width="1080.749" height="1250.271" viewBox="0 0 1080.749 1250.271">
  <defs>
    <linearGradient id="linear-gradient" x1="0.332" y1="-0.212" x2="0.621" y2="1.061" gradientUnits="objectBoundingBox">
      <stop offset="0" stop-color="#0cb3bf"/>
      <stop offset="1" stop-color="#4af9ff" stop-opacity="0.208"/>
      <stop offset="1" stop-color="#c9f517" stop-opacity="0.239"/>
    </linearGradient>
  </defs>
  <path id="Path_411" data-name="Path 411" d="M1075.541,465.97c-6.786-8.691-19.168-19.287-31.967-31.729,10,3.453-34.765-40.6-33.872-43.456L984.88,369.474c27.383,20.6-38.574-38.753-17.263-23.395,24.049,24.169,52.563,51.432,79.411,76.672-23.99-24.109-.833-5.06.417-6.25-25.24-22.978-20.18-24.407-46.492-46.194-17.085-21.847,17.5,9.167-11.965-23.335-8.989-6.191-23.157-27.026-41.789-42.979.714-4.524,31.729,22.085,57.564,48.575-2.917-1.072-15.12-10.06,5.536,9.822l-.238-9.584c13.87,11.072,21.192,15.12,49.706,42.444-30.836-32.86,26.907,17.263-10.239-21.013,23.037,25.538-11.489-5.417-16.073-8.751l-4.7-5.953c0,.119-.655-.238-1.726-1.012L980,308.934c-21.43-16.846,31.907,31.669,28.276,33.574-48.218-42.027-64.052-72.863-94.948-97.983-16.787-12.084,27.74,30.24,42.682,48.218l1.488.476L973.272,316.2c-15.775-15-27.5-28.633-27.5-28.633-4.524,4.822-29.645-18.156-40.42-18.692,6.31,5.358,55.242,50.9,60.838,60.778,10.179,13.037-18.335-14.227-22.68-15.835-5.06-6.429-30.836-32.86-12.084-16.846l-33.336-32.2c-36.491-42.8-70.719-72.089-77.565-88.816-24.169-23.871-33.217-39.943-23.276-35.836L773.971,120.17c-39.289-43.753,34.765,32.681,3.1-5.3,45.48,41.134,100.007,88.578,134.3,125.9,13.215,7.679-9.346-16.013-7.084-18.335,37.562,33.574,38.574,38.693,75.006,73.517-2.381-5.6-15.894-22.918-37.681-41.61l17.8,10.834c7.917,7.5,6.667,8.691,5.358,8.274,9.048,6.31-6.25-13.275-19.109-27.264,1.607,2.143,6.786,8.691.417,3.274-8.393-10.834-23.692-30.419-33.276-40.062,16.549,20-24.645-19.7-3.215,5.238-9.584-9.644-28.752-28.99-22.918-25.419-23.216-19.109-20.894-13.572-46.015-36.55,19.7,16.311-5.893-10.358-9.525-14.406-8.215-5.536-4.107,3.631,5.536,14.644-41.194-39.586,2.083,11.846-38.4-30.776,14.406,14.525,13.513,17.382,2.857,8.989-17.68-17.263-24.883-29.228-44.468-50.3-14.7-24.228,30.24,29.466,44.17,40.658l.833-6.786c-6.31-5.358-27.145-29.407-27.383-24.645-24.407-25.895-39.705-45.48-18.1-28.454-11.429-12.084-10.834-8.513-12.2-9.048C732.659,40.641,691.882-3.648,682-6.982c2.917.952,18.156,20.537,33.4,32.2,3.631,5.953-17.263-7.5-38.515-30.836,5.6,8.1,18.87,27.5,22.978,33.455C680.81,10.1,692.953,19.091,684.917,9.924l6.489,15L713.074,43.5c-17.858-10.953,29.169,38.693,41.432,55.718-32.026-31.788-32.919-36.907-47.92-54.706C665.809,8.138,726.051,65.4,717.6,62.547c-6.31-5.417-14.168-12.858-23.811-22.5L720.1,69.809c-4.465-3.155-11.072-10.3-12.68-12.382,31.729,38.039,46.134,44.587,55.957,63.874,19.525,13.1-19.942-24.407-14.584-24.049,24.883,21.252,39.229,43.634,52.087,57.623-10.12-5.06-59.112-52.147-35.836-23.454C751.529,114.1,734.861,101.9,736.826,97.788c-15-17.858-15.537-13.215-34.467-30.955,5.12,6.548,34.765,32.681,27.681,30.24l-4.762-4.762,31.669,37.86c-20.954-13.513,31.609,45.956-8.751,11.37l34.764,32.681c.833,5-1.071,9.108,4.286,17.382-19.347-19.406-19.763-22.74-25.18-30.955-9.644-1.786,7.56,21.668,32.443,50.956,26.311,21.847,24.7,19.644,42.979,33.872,45.48,49.051-32.324-25.478-11.906.714-33.336-32.264-27.442-28.574-60.6-59.112,21.371,23.276,14.287,20.894,32.383,41.432-33.1-30.538-59.171-58.576-58.933-64.886,30.955,25-16.251-26.311,13.1-1.845l-21.847-18.692c-7.263-12.144.059-7.917-13.513-25.359l4.822,4.881-32.2-33.4-1.131,1.191c-17.918-18.93-45.9-50.778-46.194-52.5,1.548,8.513,54.111,60.064,81.851,90.245-5.238,1.429-65.064-54.23-38.753-24.466-16.013-15.12-34.288-29.347-47.5-45-7.2-10.477,14.644,8.215-7.8-13.87-.714,2.917-13.691-11.072-12.56-4.286,28.871,29.05,55.183,58.814,76.613,83.7,13.632,17.442,9.763,19.287-.714,12.382-.774-5-27.085-34.7-49.111-55.064,29.228,30.776-28.514-19.347,14.168,20.775-5.358-.238-8.513,5.06-44.884-29.764-11.191-15.477,13.037,3.572,7.263-6.072-1.369-.179-11.072-8.513-19.228-17.085l6.846.714C587.708,35.283,576.457,23.5,577.588,30.223c3.155,2.679,9.286,7.917,10.953,10.06.357,1.726-2.5.774-2.143,2.56l-33.336-32.2C566.575,27.961,520.441-8.589,541.1,19.21l-6.548-7.024c-9.882-3.393,55.48,60.481,60,71.612-14.7-16.192-28.871-29.109-44.706-44.11,15,17.978-13.275-7.739-23.692-14.465,21.371,16.846,33.872,35.479,45.956,44.408,33.514,32.324,30,35.9,24.347,33.931-43.991-40.658-18.037-28.514-64.648-68.4-5.655-1.964,18.275,22.145,27.383,28.454C552.05,61.178,543.954,59.987,515.916,36c29.7,34.11,11.013,18.1,51.432,60.659-.476-3.274-30.776-32.86-12.441-18.573l29.347,32.443c-.536,4.584-29.883-19.942-35.538-21.847L536.811,73.441l4.881,4.881c-13.1-14.108-2.8-8.929-26.55-31.431,27.621,30.181-2.083,4.048,16.311,26.311l-4.822-4.881c20.6,27.8-54.587-39.527,3.691,21.966-.238-1.667,24.585,19.644,35.836,31.431C550.681,108.5,553.241,115.706,535.62,98.5l-5.06-6.548c-7.024-2.381-11.251-3.869-6.191,2.679,20.894,21.49,38.277,37.027,48.456,50.123-17.561-9.227-48.456-50.123-69.648-65.422l18.93,25.657L501.749,86.775c-24.883-13.334,35.658,53.754,30.062,59.826-33.455-32.264-42.979-49.885-43.634-53.4-27.443-23.395-1.548,6.012-10.834,1.369a35.454,35.454,0,0,0-5.715-3.988l.6.536-.536-.357c-2.976-1.012,1.012,4.405,7.2,11.668-3.75-3.512-7.56-7.024-11.608-11.251,5,6.37,15.537,19.882,21.49,27.562-2.143-2.024-4.048-3.869-5.119-4.762,3.1,3.155,5.358,5.6,7.679,8.1l.655.833c-19.109-17.62-7.2-8.393-15.6-17.323l7.8,13.811,19.168,16.549,1.072,1.429a7.372,7.372,0,0,0-1.726-.774c-11.191-10.894-21.609-20.24-25.776-21.787,2.56.952,16.192,17.323,30.3,28.99l.06.06a8.7,8.7,0,0,1-.179,2.2c-2.084-2.441-4.107-4.822-6.846-7.858-26.728-23.811-10-7.739,2.56,5.238a166.8,166.8,0,0,1-14.287-11.429l-.6-.6.179.238c-5.06-4.524-10.536-9.7-16.073-15.656,5.715,7.917,19.525,26.966,23.692,32.741-19.168-17.561-6.965-8.572-15.239-17.62l6.965,14.584,7.262,6.191c-1.964.357-8.155-3.572-20.418-14.049,39.289,43.753-21.549-9.048,25.776,42.265-7.381-4.107-21.311-23.216-23.871-22.561-1.667-.179-2.679.3-3.1,1.31-15.418-16.073-30.776-32.741-31.133-33.812,1.131,3.691,14.525,17.739,31.133,34.526-.655,2.857,2.56,9.405,9.346,19.585-1.191-.655.06,1.072,3.1,4.524.476.655.774,1.131,1.31,1.845-15.656-14.406-32.86-28.395-46.015-42.92-7.739-9.941,13.989,8.81-8.691-12.977-.3,2.5-13.632-11.191-11.727-5.119,12.441,12.084,24.169,24.049,35.6,35.9-5.358-1.786-6.072.417-3.81,5.3-.893-.774-1.845-1.667-2.679-2.5,1.369,1.369,1.667,1.845,2.679,2.857a66.741,66.741,0,0,0,3.453,5.774c-2.679-1.786-5.953-4.227-6.846-4.643-4.881-5.477-8.632-9.941-8.751-10.417.714,3.215,9.584,13.215,21.549,25.835-4.167-.536-11.727-3.81-40.36-30.717-11.846-14.7,12.084,4.643,5.655-4.405-1.25-.357-10.834-8.691-19.228-17.085l6.072,1.429c-19.466-15.18-31.014-26.728-29.109-20.775,3.1,2.679,9.286,7.977,10.953,10,.476,1.548-2.024.417-1.488,1.964L360.429,91.18c14.168,16.668-31.371-20.359-9.405,6.191l-6.667-6.905c-9.227-4.107,56.909,58.992,62.445,69.172-15.12-15.775-29.407-28.633-45.3-43.456,15.6,17.323-12.8-8.215-22.859-15.3,21.133,17.085,34.526,34.7,46.492,43.872,10.477,9.941,17.2,16.787,21.728,21.787-11.965-8.989-20.3-16.132-24.823-19.049-6.846-8.572-9.405-13.513-37.086-37.384-5.238-2.322,19.109,21.43,27.978,27.978-6.608-2.976-13.87-4.941-41.848-28.99,10.953,11.787,15.6,17.263,18.99,21.43-3.75-1.9-8.1-4.167-10.715-4.762-2.322-2.262-3.929-3.988-7.5-7.322,2.976,3.1,5,5.238,6.786,7.262-2.5-.3-2.738,1.726,3.81,10.12l-6.608-6.905c-3.334-1.25,2.5,5.655,11.489,15.358-7.143-2.738-43.1-33.574,3.75,13.692-.179-.417,1.964,1.191,4.941,3.691-.952,1.071-19.644-15.18-27.681-20.478a204.729,204.729,0,0,1,17.978,16.132c-2.738-.893-3.512-.417.06,3.75,21.311,21.073,38.693,36.61,49.468,49.17-6.429-3.81-15.418-12.382-24.942-21.847-6.548-8.751-8.929-14.049-36.61-37.562-1.488-.476-.774.893,1.131,3.1-3.334-2.976-6.846-6.37-9.763-8.572l20.121,24.466-20.359-18.1c-5.417-3.334-5.953-2.143-4.227,1.25-.833-.714-1.31-1.012-2.2-1.786,1.429,1.607,2.262,2.56,3.453,3.929,8.691,13.513,40.3,48.4,37.5,51.909l-.179-.06c-6.608-6.25-11.668-11.429-16.608-16.489l-2.2-2.679,4.881,4.881c-13.215-13.989-3.1-8.691-27.085-30.955,13.275,14.049,13.513,15.6,12.144,15.656-10.834-12.263-15.954-19.763-16.608-21.668-30.955-26.669,7.739,13.811-14.823-3.988-5.715-2.56,15.477,19.7,33.753,37.086-1.488-.238-3.988-1.548-7.382-3.691-5.358-5.06-10.536-10-12.68-11.846,3.988,3.988,7.2,7.2,10,10.06-11.072-7.2-21.609-14.406,12.382,20.478-.06-.357,1.429.774,2.917,1.9a13,13,0,0,0,1.488,2.738l-20.716-19.466,12.977,15.12c-3.215-1.071-5.06-1.31-4.167.655l-.655-.655c2.857,4.584,1.31,4.762-4.465.714-4.941-4.643-9.822-9.286-14.108-12.322l2.322,2.976c-1.072-.952-1.786-1.429-2.976-2.5,3.274,3.512,5,5.477,7.084,7.8l7.441,9.525c.06.952-1.131.655-2.679,0l-12.2-10.715c-10-5.477-5.536,2.381,2.679,13.811,1.012,3.81,5.834,11.191,16.192,23.93-1.9.3-13.215-10.417-25.359-21.549-3.691-5.238-6.012-9.167-6.31-10.417-31.193-26.431,6.965,14.525-15.954-2.857-5.715-2.083,12.858,18.156,30.3,35.181,3.155,4.048,6.191,7.977,8.929,11.608-6.429-4.881-22.323-20.478-26.609-24.168,28.752,28.693,24.109,28.574,24.228,32.443l-11.37-12.025c-2.976-1.31-5.953-2.8-4.227-.06l-3.691-3.453,9.941,12.2c-24.228-20.716-5.715.417-1.607,7.679-.714,1.191-5.238-1.488-13.513-8.036-2.679-2.262-5.715-4.881-9.346-8.1-7.262-3.929,3.1,7.382,15.358,20.359-1.131.3-3.81-.833-5.238-.893-4.941-4.524-9.346-8.393-11.668-9.822,2.2,4.524,3.453,8.1,4.881,11.846-3.036.655-1.964,5.358,4.762,15.537.476,2.5.952,4.941,1.25,7.2-6.131-5.179-14.644-13.215-23.395-21.013-14.584-6.191,1.191,13.989,14.346,32.026-.238,3.691,6.369,13.93,13.037,24.049-.6.893-2.024,1.191-5.06.119L273.7,307.029c-5.477-2.024-12.858-6.25,10.12,17.2-58.338-51.492,27.8,40.182-35-14.406-9.048-4.286,7.2,12.918,21.847,28.931,1.072,2.381,1.488,4.107,1.131,5.119-10.536-10.3-21.252-20.537-25.776-23.1,1.072,2.8,1.488,4.881,2.322,7.382-.893-.238-1.429,0-1.012,1.429l2.083,1.845c.536,1.667,1.25,3.631,1.667,5.179l-28.157-26.669c13.989,16.846-31.788-20-10.179,6.905l-6.727-6.905c-6.965-2.917,27.681,31.312,48.039,53.4,0,.893.06,1.9,0,2.8-10.179-10-20.418-19.585-31.431-29.883,15.477,17.5-12.918-8.1-23.156-15,21.252,16.966,34.407,34.884,46.372,43.991,3.155,2.976,5.655,5.417,8.155,7.917v2.976c-1.548-.3-4.286-1.726-7.024-3.155-.893-1.012-2.619-2.8-3.155-3.512l-.179.357c-7.739-9.763-8.691-13.989-38.039-39.11-5.358-2.2,18.87,21.609,27.859,28.1-6.786-2.857-14.346-4.465-42.444-28.514,30.538,33.4,11.906,17.442,52.98,59.29-.774-3.1-31.431-32.324-13.156-17.918l22.918,24.288c1.31,2.262,2.5,4.286,3.691,6.489-7.262-3.75-26.966-19.763-31.371-21.49l-12.382-14.942,5,4.941c-13.334-13.87-3.453-8.453-27.383-30.717,28.216,29.645-1.488,3.572,17.442,25.18l-4.881-4.762c21.549,26.907-53.933-40.182,5.417,20.359-.3-1.131,12.918,9.941,24.526,20.537a4.87,4.87,0,0,0,.952,1.9c-5.774-4.881-5.953-4.167-4.405-1.786-3.274-2.024-6.905-4.643-15.418-12.8l-5.3-6.31c-6.667-2.679-10.775-4.405-5.477,1.9,21.252,21.252,38.574,36.729,49.23,49.468l-.536-.417c-13.1-12.8-29.883-29.764-30.419-27.8,10.179,9.941,14.465,14.406,16.013,16.37-4.941-4.643-10.358-10.06-15.834-15.656-2.143-2.738-4.465-5.477-5.655-7.8,1.012,1.667,1.845,3.274,2.8,5-12.8-13.1-26.073-26.907-36.491-34.645L203.1,393.822l-20.478-18.1c-7.739-4.524-6.131-.417-1.25,6.846l-.417-.417c.655.714.417.6.893,1.131.655.952,1.012,1.667,1.786,2.738-3.155-.833-41.729-35.717-17.978-9.584-8.036-6.429-8.334-5.417-6.489-2.262-2.857-2.738-6.072-5.834-10.477-10.3,27.443,28.693-11.548-6.012,5.417,12.8-9.465-9.822-25.657-24.407-18.692-16.132,8.513,7.2,16.787,15.954,26.252,26.192,2.738,3.1,5.6,6.31,9.405,10.239-19.7-18.275-5.536.119-38.932-32.86,15.954,18.275,38.336,40.241,60.6,62.921l.179.655c-16.192-14.406-18.037-12.322-52.861-48.1,5.3,4.048,14.465,10.358-11.727-15.477-15.537-13.1,10.06,11.191,12.858,16.073-7.084-6.965-23.99-23.514-35.3-34.526,3.572,4.762,2.322,5.238-4.941-.417,18.751,16.192,26.133,27.978,42.265,42.563L116.6,358.521c-.357-3.453,21.43,20.954,31.729,30.062,4.822,10.12,41.134,46.015,58.1,67.445.06.357.238.833.238,1.072l-3.75-3.155c-7.382-8.1-14.525-15.834-21.192-22.859,1.369,2.322,1.369,3.334.714,3.631-10.894-11.548-31.907-32.324-37.265-36.967,28.454,31.431-21.549-16.668-29.526-22.264,9.644,7.679,32.086,31.371,40.479,40.479,18.692,23.692-14.346-12.5-31.788-27.859.179,7.679-48.4-36.372-27.323-9.108l34.169,31.49-30.3-31.431c16.906,15.477,41.848,41.313,62.564,63.159.476,1.9,1.845,4.643,4.227,8.334-.655-.714-.893-.893-1.667-1.667l2.917,3.81c2.56,3.75,5.834,8.215,10.06,13.572-.476.119-1.726-.714-3.1-1.726-3.334-3.334-7.084-7.322-11.31-12.2-.714,0,.655,2.2,3.1,5.417-4.346-3.929-9.584-8.81-14.882-13.691-5.536-6.012-10.358-11.37-13.394-14.763-3.1-.714-29.764-27.859-38.158-36.967l2.143,5.536c-8.274-8.751-20.537-21.668-28.931-30.538-12.68-10.536,21.073,25.061-5.774-.119l25.657,26.669C70.05,375.606,66.6,371.5,60.764,371.439l19.823,18.93c32.443,37.027-32.443-29.407-20.894-11.906,10,13.334,17.62,23.156,48.635,53.873,10.536,12.561-8.036-5.655-19.942-16.846,16.608,18.156,46.849,51.79,26.49,33.634-8.81-10.417-15.954-18.87-20.061-24.526-30.9-30.657-9.227-4.107-24.883-17.382,11.548,13.156,38.217,43.694,61.493,70.362-9.882-4.7,15.477,20.6,30.9,37.8-18.335-17.323-38.693-35.657-55.48-50.063-9.524-9.822-21.252-22.978-20.537-23.692,8.1,8.929,14.168,14.584,21.906,22.323C88.5,439.122,63.383,419.895,40.345,395.9c5.655,7.024-.06,4.048,18.335,21.252-48.4-46.075,22.2,30.062-16.668-6.191,4.643,4.762,20.894,19.466,31.49,32.086,3.334,6.191-18.692-16.132-28.812-25.121C57.728,431.92,65.169,443.706,58.74,436.8c10.536,12.56,47.146,45.36,66.076,67.148,8.632,9.227,12.382,13.513,13.811,15.537l.119,1.429c-2.083-1.012-7.56-5.3-3.691-.3-23.395-20.954-14.108-16.787-24.228-27.978l10.894,18.216C104.4,495.5,91.421,479.364,96.3,482.161c-21.549-18.751-5.06,1.488,20.418,28.038-6.667-4.941-1.31,1.429-12.739-8.394-13.632-15.358-58.873-60.778-65.243-69.827,5,.714,33.872,35.6,42.5,40.539L54.335,445.194c16.132,14.644-3.334-6.25-4.524-9.108,7.262,6.31,9.584,9.822,13.156,14.049-.476-3.572,15.18,9.7-14.465-22.442-27.026-22.978,3.512,14.049-28.157-16.013l33.514,41.967c12.56,12.62,34.05,31.371,51.194,50.956-32.2-31.431-47.861-44.765-55.064-48.813,35.062,34.169,28.276,33.574,56.849,60.778-16.608-18.216,12.739,10.477,15.6,13.215.119.952,2.56,3.81,5.953,7.382a26.3,26.3,0,0,0,2.381,6.012,83.516,83.516,0,0,0-12.858-10.536c-14.763-16.013-47.98-52.385-60.957-68.457-15.418-15.358.536,3.572-17.5-13.275,19.168,17.442,32.086,33.455,40.539,40.479,12.2,16.787,45.3,55.3,50.361,65.838-50.658-51.79-33.991-43.4-95.483-103.46,6.429,9.108,31.371,34.169,26.49,31.431-31.609-30-6.846-.655-7.739,2.083l16.251,14.7c11.787,13.334.893,4.881-2.8,2.8l-6.548-6.965,8.87,10.477c-1.31-1.25-2.976-2.857-4.941-4.7,14.942,16.787-2.441,3.691,5,14.525,24.942,25.121,2.619-.655,6.25,1.369,5.953,5.6,18.1,14.644,34.526,32.8-1.9,2.143,26.49,33.574,23.335,35.062l8.274,6.905c5.655,6.25,7.739,8.87,8.691,10.417-1.9-.536-1.9.655-1.548,2.2l-.179.06c-11.191-8.87-20.6-19.406-29.586-29.526-5.417-5.893-11.072-12.084-13.751-17.025,1.488,2.381,2.857,4.7,4.167,7.024-3.215-3.334-6.429-7.322-9.763-10.12-21.252-23.037,5.119.714-26.431-31.371l-35.9-33.574c20.121,22.323-12.739-8.334-8.691-2.8l16.192,14.644c26.788,27.323,5.774,7.679,1.607,4.226l39.884,39.051c8.036,5.715-25.835-29.943-2.024-7.679,5.715,8.036,17.62,20.775,27.264,31.49a60.6,60.6,0,0,1,2.738,5.893c-.833-1.012-2.262-2.619-5.3-5.834-6.727-5.715,1.012,3.1,5.834,9.167.06,1.012-.06,1.9-.774,2.143a469.061,469.061,0,0,0-44.646-46.968l28.99,30.657c-5.358-4.107-16.608-16.013-17.858-16.668-6.667-4.822,31.014,30.776,21.966,24.526-6.072-5.715-13.215-11.906-19.7-18.87-2.679.6,8.751,10.417,21.728,26.49.714-.833,16.608,14.465,30.3,28.514,1.131,1.25,2.262,2.5,3.988,4.227l-3.1-2.619a216.079,216.079,0,0,1,18.692,20.18c-.893-.3-1.191-.06-1.191.476L121.6,603.3c3.988,5.774,19.109,17.561,22.978,23.276a18.138,18.138,0,0,1,3.512,6.846c-3.512-2.976-8.1-7.024-15.358-13.87l14.227,15.716h-.238c-20.359-20.954-6.905-4.107-11.906-7.917-30.955-30.776,3.869-2.143-46.015-52.385-6.131-3.572-20.954-19.585-33.991-33.514,3.274,6.191,35,36.253,54.587,57.207-12.56-12.56-6.25-1.429-32.383-29.347-3.036-.6,28.454,31.49,21.847,26.609-12.263-12.382-27.978-28.4-43.694-44.349,10.239,10.6-3.631-1.072-4.762-1.786,6.012,5.6,25.6,26.609,17.978,16.787,23.752,24.466-1.488,3.512,18.751,23.752-27.919-27.859-8.036-3.512-20.656-13.989,65.541,65.719-22.918-27.145,31.252,26.609,4.643,5.3,6.846,8.393,8.1,10.656-3.988.417-5.715,3.274-10.239,3.334-6.548-6.965-13.87-14.823-23.811-24.466-8.691-12.56,11.013,6.31,1.072-7.024-13.215-9.584-9.465.179,9.465,21.728.893,4.881-67.5-63.4-53.456-44.587,21.311,20.835,26.192,25.835,34.7,32.919,6.846,8.215-1.429,1.369-2.083,2.024,11.013,11.787,15.894,14.882,23.633,23.216l1.548,2.5c-3.572-2.8-8.215-6.548-19.347-18.037l-1.845-2.084C82.432,624.732,12.9,553.536,51.358,596.1c10.656,10.477-2.322-3.453,4.941,2.857,16.668,16.013,38.515,40.42,44.349,48.158-14.287-14.7-3.631-2.083-9.048-6.25-24.466-23.752-5.238-8.453-21.192-25.18l-5.536-2.024,4.167,3.453L90.23,642.233c-3.453-4.941,5.774,4.167,15.3,13.989-4.941-3.155-2.381,1.548-2.679,3.155-4.881-4.584-10.656-10.179-18.87-18.513,8.572,8.691,13.513,14.168,17.263,18.513-2.262-1.25-7.322-5.417-18.216-15.775,7.679,7.977,7.024,10.3,9.882,15.716-6.25-5.774-12.858-11.965-19.644-19.109-27.323-28.633-11.727-15.418-6.846-12.62-51.968-48.158,24.049,30-1.667,7.858-12.5-12.62-26.728-27.264-23.156-25.3-8.87-8.215,22.5,25.954,6.905,12.68,4.7,4.465,13.989,13.275,23.156,22.442.357,1.548,3.691,5.715,8.632,11.191L60.168,638.244c-7.262-4.167,20.537,22.561,37.146,40.6L85.468,666.58c3.1,6.846,32.741,37.086,37.562,46.075l-3.334-2.976C85.825,674.735,73.5,658.305,21,606.04c5.715,9.822,17.263,27.323-1.31,11.37,11.668,15.3,47.444,50.9,73.636,76.732,4.107,5.655-.179,2.084-7.262-4.107L72.372,674.557c3.691,5.119,7.441,10,10.953,14.644-25.6-18.454-26.192-9.941-26.49-3.631,12.858,16.013,4.167,12.8,3.215,16.251-5.715-5.358-12.322-11.668-20.954-20,9.227,10.953,21.668,25.359,30.955,36.788l-4.286-4.167L39.333,700.809c3.869,11.013-8.572,6.727-2.381,19.168l-.179-.179.417.417c2.143,4.167,6.072,9.882,13.334,18.632L28.976,720.274c11.013,11.846,18.037,20.18,23.692,27.383l-4.941-2.024c-12.441-12.5-15.358-17.561-9.882-13.215-15.239-13.037-9.405-5.3,29.05,36.074l.476.893C53.561,758.253,34.809,742.3,17.546,724.144c7.024,8.334,18.989,19.406,31.609,32.086-8.632-4.881,35.419,39.765,35.241,41.848l.06.06c3.215,4.227,7.739,9.524,12.918,15.477C81.182,797.3,64.693,780.755,48.56,764.623c23.692,24.347,1.607,4.167.893,4.941,19.466,18.87,21.609,23.156,34.11,35.538,4.584,5.774,11.013,13.394,13.691,17.323-.952-.476-.952,0,1.072,2.56-.833.238-4.881-2.738-14.644-11.191-12.8-12.2-9.7-13.811-18.513-20.18-24.883-21.311,22.025,24.288-5.953.417,11.132,10,22.025,21.252,31.371,31.491l.714,2.619c-13.156-11.787-19.763-16.608-47.742-44.527,30.9,32.8-24.764-19.644,12.144,18.87C32.547,777.3,65.943,809.329,70.229,812.9l4.881,5.893c.06-.119.536.238,1.607,1.072l46.908,49.646c20.3,18.1-31.49-32.086-28.931-32.8,12.8,12.084,23.216,22.68,32.562,32.681a222.654,222.654,0,0,1,9.882,21.192c-3.453-3.512-6.072-6.31-10.417-10.6,1.429,2.5,5.774,7.977,12.322,15.3.655,1.726,1.072,3.274,1.607,5,.06.179-.06.179.179.476,6.489,21.43,1.369,32.562-22.74,24.7l-15.835-19.049c12.263,14.7-.238,8.274-6.012,4.584l-1.726-2.2c-41.372-33.514,34.229,39.11-12.322-.774l-3.572-4.346c-2.262,4.7-45.777-32.562-27.443-8.393-17.382-11.251-36.848-30.359-56.373-45.3-.655,2.5,22.5,25.895,27.323,30.657l2.738,1.131C48.263,902.49,42.012,901.359,50.763,911.9c36.372,32.919,91.316,86.078,130.843,117.568-9.584-13.632,59.469,52.147,56.135,43.872-45.956-46.73,38.991,29.824-1.131-12.977,31.371,32.2,20.537,13.87,54.052,49.885,26.669,23.573-22.8-31.669,9.644-4.346,6.786,6.965,14.584,14.287,18.156,18.513-16.192-20.6,24.466,19.7,26.311,17.739l-33.693-31.907c-10.12-11.072,13.751,11.132,8.572,4.881-4.584-3.274-21.371-17.085-34.645-30.836-7.024-8.453-17.2-19.644-16.251-20.656,12.8,12.263,18.1,18.513,21.609,22.859,0,0,5.06.655,20.954,15.477,10.06,11.072,9.167,12.144,27.323,30.717,12.56,6.489,11.072,10.06,38.991,33.99-39.765-37.205-14.525-18.453-21.906-28.454,16.013,14.942,3.929,5.774,15.418,17.5,71.91,62.8-7.739-15.715,10.536-5.477a111.8,111.8,0,0,1,10.179,11.191c-3.869-5.12.6-2.2,5.417,1.25,10.775,11.013,20.537,20.478,24.228,22.5-1.548-.833-8.632-8.81-17.144-17.62,1.845,1.012,1.369-.179-5.655-7.56a27.912,27.912,0,0,1,4.346,3.214c6.429,5.774,13.93,13.037,22.264,21.966-1.488-1.845-3.512-4.405-5.715-7.322,12.025,11.072,24.526,22.68,25.359,20.6-41.194-37.8,10.715,4.227-32.621-37.026l27.443,22.323c-12.441-13.811-34.11-33.991-50.956-50.3-6.25-6.727-11.429-12.561-8.929-11.191,5.834,5.893,13.572,13.453,23.275,23.037l-26.728-29.347a136.546,136.546,0,0,1,12.56,12.62c-3.1-3.572-5.238-5.715-7.977-8.751,23.752,21.192,60.481,59.588,79.827,75.3l-23.037-23.395,18.275,14.406,1.786,2.262c-6.965-8.512,1.488-3.691,14.168,8.453,9.882,9.643,8.929,10.715,18.632,20.18-20.3-22.144,64.886,50.182,1.25-13.513,12.322,10.06,13.87,8.036,34.288,27.919-27.919-28.157,12.918,4.524-4.227-14.168,9.644,9.584,26.55,23.395,19.644,15-12.084-9.108-22.2-20.18-37.265-36.193,21.847,18.751,6.905-1.31,41.908,31.133-12.858-14.585-30.419-31.312-48.516-48.635v-.06c-.774-.774-2.024-1.9-3.1-2.917-1.25-1.25-2.5-2.381-3.75-3.691a42.654,42.654,0,0,1-3.75-3.81c-.238-.536.119-.536.476-.6,2.2,1.667,4.227,3.155,6.072,4.405l27.383,27.443c-8.929-10.536,5.239,1.191,11.37,4.465,2.262,2.2,4.286,4.048,6.846,6.608-5.655-3.691-15.537-9.167,11.429,15.775,16.37,12.263-10.12-11.072-12.739-16.311,7.143,6.965,25.359,22.2,36.55,33.4-3.453-4.881-1.964-5.774,5.774-.714-19.644-15.061-26.49-27.562-43.337-41.372l26.966,29.109c-.179,3.691-18.275-15.835-29.585-25.835,1.429.178.714-1.905-5.358-9.286l6.548,6.965c8.036,4.643-47.087-51.254-59.112-66.731l2.2,1.667c13.1,13.93,25.657,26.252,39.467,39.944-15.418-17.5,12.084,9.048,21.668,16.668-3.1-2.738-5.06-5.12-7.858-7.8,1.429,1.191,3.572,3.1,4.346,3.75-5.774-6.31-7.679-8.87-7.917-9.822,1.786,1.607,2.976,2.857,5,4.762,1.488.833-.06-1.131-2.619-4.048,8.155,5.477,31.669,25.776,37.265,28.931-10.3-6.905-33.276-30.181-41.67-39.289l-.179-.238c5.119,4.167,11.191,9.406,19.763,17.442-7.084-7.858-11.37-12.8-14.525-16.549,8.274,7.8,19.823,18.87,28.276,25.478,1.131-9.227,51.849,32.383,31.193,4.524l-35.6-29.943,31.014,30.717c-12.62-10.417-29.526-26.609-45.837-42.8-3.631-4.048-8.81-9.644-16.37-17.62.238.536-3.274-2.619-7.739-6.727-6.727-6.905-12.322-12.68-17.263-17.74,5,3.81,7.262,4.762,19.228,16.787l5.3,6.25c6.072,3.453,9.763,5.536,4.465-.655-4.941-5.179-8.87-9.108-13.275-13.632l-6.072-8.512a77.9,77.9,0,0,0-9.822-7.8c-3.155-3.274-5.238-5.715-7.977-8.631,2.679,1.9,5.477,3.988,8.393,6.131,15.954,16.251,35.062,37.741,48.516,49.17l-19.942-24.526,19.7,18.87c2.857,2.024,4.286,2.679,4.762,2.322,8.155,5.774,28.514,25.478,35.776,33.157l-1.607-6.191c8.453,8.691,20.894,21.43,29.407,30.062,13.453,9.7-20.954-25.24,7.024-1.25L596.7,1182.213c26.014,16.311,29.466,20.418,36.431,19.049l-20.537-18.1c-32.681-37.027,33.871,27.8,23.037,9.405-4.286-6.012-8.334-11.489-13.989-18.037.655.655,1.012,1.131,1.726,1.845-20.418-22.025,62.8,52.444-.536-11.429,11.965,10.417,13.156,8.81,33.336,28.871-27.859-28.157,11.846,5.715-5.536-12.8,9.822,9.644,26.192,23.93,19.108,15.715-11.667-9.524-21.847-20.537-37.026-36.431,21.371,19.168,5.893-.179,40.479,32.681-17.5-19.347-42.265-42.563-66.553-66.612,21.311,19.049,19.763,12.739,58.4,51.194-5.358-3.929-14.763-10.12,11.965,15.3,15.835,12.8-10.3-11.191-13.156-16.013,7.2,6.905,24.466,23.1,35.955,33.991-3.572-4.762-2.381-5.3,5,.238-19.049-15.894-26.55-27.621-42.979-41.908l27.085,28.931c.417,3.453-21.787-20.537-32.264-29.467-2.2-4.584-11.549-14.822-22.323-26.252,9.227,7.917,18.692,15.6,27.562,24.407-5.655-7.084.774-4.881-18.394-21.192,7.739,6.846,11.906,10.12,14.644,12.084l1.726,1.488-1.012-1.072c3.691,2.381,3.274.714.714-3.036,10.06,8.513,26.073,22.859,30.359,25.716-8.989-6.846-28.395-26.49-38.217-36.789-2.322-3.333-3.1-5.179.06-3.214,8.274,7.917,20.656,20.121,29.288,27.5-.119-7.858,49.289,35.241,27.859,8.155l-34.824-30.776,30.9,30.9c-25.6-22.5-70.184-68.576-89.947-89.233,10.775,10.3,6.786,2.56,23.692,20.478l-11.846-15.239c-13.989-13.037-9.286-5.953-23.216-21.192,10.418,8.81,19.228,13.513,36.55,32.859,1.726-.119-6.131-9.822-21.132-24.585a30.174,30.174,0,0,0-2.143-3.1c5.655,4.881,18.394,17.977,30.121,30.24,1.726,2.917,9.763,11.786,10.3,13.751-7.679-5.953-9.822-9.584-13.394-13.87,0,4.226-16.489-8.036,13.572,23.692,19.287,14.525,11.846,2.2,15.12,1.607,9.465,8.334,25.716,24.526,32.026,31.133l-2.2-5.655c8.394,8.751,20.895,21.43,29.407,30.121,12.918,10.239-21.43-24.764,5.893-.178L711.7,1161.2c24.7,17.739,28.276,21.787,34.05,21.609L725.694,1164.3c-32.919-36.61,33.038,28.752,21.311,11.429-10.179-13.334-17.918-23.037-49.468-53.218-10.775-12.441,8.036,5.477,20.3,16.43-16.966-17.859-47.682-51.075-26.907-33.336,8.929,10.358,16.192,18.692,20.359,24.287,31.431,30.121,9.405,3.929,25.3,16.787-13.394-14.763-46.789-52.028-72.148-80.185-1.726-3.155-3.274-6.012-2.857-6.965l-16.906-13.87c-5.953-6.608-6.072-8.1-4.108-7.62,19.168,17.382,40.9,36.193,58.516,50.9,9.644,9.644,21.609,22.621,20.954,23.276-8.334-8.751-14.525-14.287-22.323-21.906,20.061,24.526,45.539,43.277,69.053,66.85-5.774-6.965.06-4.107-18.751-21.013,49.289,45.241-22.5-29.824,16.966,5.655-4.7-4.584-21.133-18.99-31.967-31.49-3.333-6.131,18.989,15.775,29.288,24.585-13.215-13.751-20.775-25.478-14.287-18.751-10.06-11.608-42.92-40.479-62.862-61.671a71.219,71.219,0,0,0,7.5,3.512,24.34,24.34,0,0,0,2.441,3.1l-1.786-2.917c3.75,1.369,5,.3,2.441-4.465,11.191,10.894,17.918,19.644,14.168,17.68,21.847,18.275,5.179-1.786-20.835-27.919,6.786,4.762,1.369-1.548,12.977,8.036,13.93,15.239,59.945,59.826,66.374,68.815-5.119-.536-34.467-35.062-43.158-39.765l27.323,26.847c-16.489-14.287,3.334,6.31,4.524,9.167-7.382-6.251-9.7-9.763-13.394-13.93.6,3.75-15.418-9.227,14.7,22.383,27.5,22.442-3.572-14.168,28.752,15.358l-34.11-41.551c-12.739-12.442-34.7-30.836-52.028-50.063,32.741,30.776,48.694,43.753,56.076,47.682-23.037-21.609-28.455-29.169-37.027-38.931,2.619,1.607,2.083.179.3-2.322,11.727,12.62,23.1,25.18,29.586,32.979,15.656,15.061-.6-3.691,17.739,12.918-19.466-17.085-32.562-33.038-41.193-39.824-2.857-3.81-6.965-8.87-11.37-14.346.6-.119,3.393,1.786,11.072,8.274l-24.585-24.7-1.012-1.131c5.715,3.333,10.06,6.072,13.87,8.453,11.846,13.93,21.192,25.538,57.921,60.183-6.548-9.048-31.848-33.633-26.966-31.133,32.145,29.467,6.965.417,7.977-2.381l-16.489-14.406a28.729,28.729,0,0,1-2.322-2.738,10.337,10.337,0,0,0,2.679-.119l-4.822-4.286c1.726.714,5.358,3.214,7.2,4.167l6.608,6.905-8.929-10.358c1.369,1.25,3.1,2.857,5,4.584-6.429-6.965-6.548-8.453-5.6-8.929,4.107,2.679,6.191,3.214,3.631-1.429a193.979,193.979,0,0,0-14.941-19.763c2.2,2.2,4.524,4.584,7.739,7.739l36.55,32.919c-20.418-22.085,12.977,7.977,8.929,2.5l-16.43-14.346c-27.323-26.847-5.953-7.62-1.726-4.286l-40.539-38.336c-8.155-5.477,26.312,29.585,2.024,7.8-3.81-5.239-10.477-12.5-17.382-19.882,2.857,2.441,5.774,4.941,8.274,7.084-8.453-9.167-20.3-22.323-27.264-30.955,6.489,6.548,1.845,2.857,11.251,12.5,4.405,3.572,2.679,1.25-.417-2.5l.655.6-1.131-1.19c-3.453-4.107-7.917-9.346-8.155-10.477a18.519,18.519,0,0,1,2.857,1.31l.238.179c6.846,8.513,12.739,15.834,16.073,20.894,11.31,10.477,15.834,13.691,17.859,14.168,4.167,3.988,7.381,7.5,12.322,11.846l-11.608-11.787c2.143-.536-.952-6.786,8.81.357-7.739-8.989-22.561-26.252-38.455-44.765a65.035,65.035,0,0,0,8.036,5.655c3.215,2.8,6.965,6.072,11.965,10.715-3.036-3.274-7.2-7.263-10.6-10.775a4.141,4.141,0,0,0-.774-1.845c3.631,3.75,7.739,7.8,13.275,13.156,6.191,3.393,21.252,19.168,34.467,32.979-3.334-6.25-35.538-35.776-55.48-56.373a55.186,55.186,0,0,0,6.489,5.6c2.083,2.56,6.905,7.5,16.787,16.727,13.1,9.882-1.191-3.1-8.81-11.31,3.453,2.738,8.751,7.56,18.454,17.62.833.179-1.31-2.441-4.465-6.072,6.31,5.834,12.977,12.025,18.394,16.966-1.131-1.667-.952-2.024-.952-2.619,3.155,3.036,6.131,5.953,9.286,9.048-10.477-10.417,3.691,1.012,4.822,1.667-2.2-2.024-6.31-5.953-10.179-9.882,1.012.6,1.131.417,2.619,1.369a184.862,184.862,0,0,1-21.43-19.763l-.179-.357c13.751,12.084,28.1,23.811,41.67,37.384-5.536-7.262,1.012-5.179-18.216-21.49,19.525,17.085,20.656,15.954,17.2,10.417,6.846,4.048,8.155,2.679-9.7-16.251.893-.3,3.81,1.429,12.144,8.513-2.322-2.381-7.8-7.024-13.93-12.739,7.024,4.762,11.846,6.965,27.443,22.5-15.6-16.132-9.286-12.858-3.81-10.358l.06.06c4.227,1.845,7.8,3.215.536-5,9.584,9.644,26.609,23.514,19.882,14.882-8.274-6.072-15.894-13.93-24.228-22.918,4.167,1.429,4.227-1.19,4.465-3.333,3.572,1.369,8.929,4.7,25.419,20.18-4.941-5.953-11.787-12.62-17.918-18.99a126.1,126.1,0,0,1,9.882,7.977L784.27,963.566c-.774-1.845-6.846-8.632-7.143-10.06,5.953,5.119,13.394,12.025,23.692,22.323-5.774-3.393-16.013-8.513,10.834,16.549,16.549,11.965-9.882-11.43-12.2-16.966,7.084,7.2,25.3,22.264,36.312,33.633-3.215-5.119-1.488-6.191,6.548-1.25-20-14.882-26.133-28.1-42.979-41.908l26.252,29.7c-.655,4.643-22.025-20.24-32.8-28.871-1.131-4.107-6.727-11.31-13.93-19.7,10.417,7.024,13.87,9.167,18.454,8.453l-20.418-18.216c-2.143-2.381-2.857-3.274-4.226-4.822.6-.774,1.369-1.548,8.1,3.572,2.083,2.143,3.869,3.869,6.191,6.072l-.357-.6c5.774,5.417,10.834,10,13.156,11.727-2.262-2.56-3.215-3.869-4.524-5.476,4.524,3.274,6.965,4.345,4.107-.3a7.927,7.927,0,0,1-.833-1.131c10.179,7.62,28.752,23.514,33.752,26.133-10.477-6.786-33.038-30.419-41.193-39.705-17.442-25.061,15.239,11.608,33.574,25.895,2.262-10.358,53.218,31.133,33.753,2.143l-35.776-29.883,30.6,31.252c-26.312-21.787-70.065-68.636-89.53-89.709,5.477,5.06,7.5,5.358,10.239,6.667,15.775,14.882,32.8,28.99,49.111,45.122-5.774-7.024.476-4.643-18.692-21.073,31.49,27.8,14.7,8.632,7.858-.833,2.143,2.441,4.048,4.584,5.477,6.25,4.048-.178,31.074,26.609,39.348,35.836l-1.131-6.667c8.334,8.751,20.478,21.609,28.931,30.479,13.691,9.525-20.24-25.954,7.8-2.024L866.716,939.7c26.788,15.716,30.121,20,37.741,17.918L884.039,939.4c-31.609-37.979,34.11,27.681,24.228,8.393-9.167-14.406-16.251-24.764-47.92-54.826-10.179-12.977,8.87,4.762,21.252,15.418-16.43-18.394-46.134-52.563-24.585-35.6,8.393,10.834,15.239,19.525,18.99,25.716,31.55,29.883,10.953,2.143,27.681,14.287-13.156-15.953-47.385-57.385-71.791-86.852-9.405-8.274-20.061-18.394-30.955-28.931.833-1.726,6.131.179,1.429-6.905-25.657-24.347-3.036,1.191-6.905-.536-2.5-2.143-6.31-5-10.894-8.572l-2.56-2.738c3.036-.833.417-7.382-6.965-17.5,2.381,1.488,4.822,2.976,7.917,5.3,1.9,2.381,6.012,6.608,15.656,15.894l31.729,27.383c3.1,3.274,5.834,6.429,6.786,8.81-10.6-8.334-37.622-33.634-29.05-22.74,20.359,18.216,45,37.86,64.826,52.563,9.644,9.763,21.073,23.216,20,24.407-8.1-8.989-14.406-14.465-22.323-21.966,18.454,26.073,45.956,42.86,69.231,66.672-5.417-7.382,1.429-5.477-17.858-21.847,50.123,44.289-20-32.443,20.418,2.2-4.7-4.762-21.728-18.632-31.907-31.729-2.5-7.084,19.882,14.882,30.538,23.216-13.037-13.989-19.168-27.2-12.739-20.3-10.12-12.977-48.694-43.813-67.088-66.136-30.716-32.8-1.369-8.334-8.453-18.632,24.645,19.644,13.632,17.382,23.573,28.812l-8.81-20.656c18.394,14.346,30.6,31.371,24.942,29.407,22.8,17.323,7.322-3.929-18.394-30.3,7.263,4.108,2.262-2.381,14.406,6.548,13.275,15.775,59.469,60.3,64.945,70.184-6.429.953-33.872-35.657-43.813-38.991l27.2,26.907c-16.906-13.811,2.5,7.2,3.215,10.655-7.8-5.893-9.763-9.822-13.156-14.168-.536,4.643-17.263-7.5,12.084,24.883,28.931,21.073-.179-17.561,32.681,11.31l-31.431-44.289c-12.739-12.441-35.6-29.7-52.206-49.766,32.979,30.359,49.825,42.622,58.159,45.42-36.193-33.038-27.264-34.884-56.849-60.957,16.43,18.394-13.632-9.465-16.609-12.025.476-4.584-32.026-31.788-32.562-35.062,12.5,2.619,22.323,21.966,39.586,29.466,14.644,16.192,47.444,52.98,59.647,69.946,15.775,14.942.417-4.7,19.228,11.37-20.121-16.43-32.145-33.276-41.253-39.705-11.072-18.1-43.158-57.8-46.372-70.124,51.194,51.194,31.61,45.956,94.71,104.293-5.715-9.941-31.074-34.526-25.478-32.621,32.8,28.812,8.989-1.667,11.132-5.655l-17.025-13.87c-11.668-13.572.238-6.191,4.524-4.822l6.548,7.024-8.572-10.834a32.64,32.64,0,0,1,5.179,4.465c-14.584-17.085,4.405-5.953-1.964-17.739-25.538-24.645-3.81,1.845-7.917.417-6.251-5.239-19.585-13.1-35.9-31.371,3.274-3.75-24.7-35.657-19.882-38.812L867.252,687c-7.2-8.1-8.751-10.894-8.691-12.2,2.56,2.381,4.7,4.465,7.5,7.084-1.488-2.738-3.274-5.953-4.881-8.989.3-.179.774-.119.893-.476,20.894,13.572,32.919,36.908,49.587,48.992,21.133,23.216-6.548.893,25.419,32.562l37.384,32.086c-19.823-22.74,14.406,6.37,10.715.476l-16.965-13.87c-27.085-26.847-5.3-8.215-.833-5l-40.955-37.919c-8.87-4.762,25,30.776.238,9.584-9.286-16.013-42.5-46.551-39.289-51.79,15.775,15.061,5,6.489,16.311,18.335,12.263,9.048-18.632-23.93-3.631-13.989,8.513,10.834,22.085,28.276,45.241,47.5l-29.109-30.657c5.953,3.572,17.2,15.418,18.692,15.954,7.322,3.988-31.728-30.121-21.49-25,6.25,5.357,13.81,11.191,20.3,18.156,3.81-1.845-8.393-10.834-20.6-27.8-2.2,2.381-48.277-42.086-50.837-49.349,8.155,1.25-15-25.835,25.418,8.751l-18.156-20.6c27.443,28.633,12.025,7.322,17.8,10.953,31.729,30-5.834,4.346,44.944,53.635,7.084,2.441,21.847,18.692,34.824,32.621-2.5-7.084-35.36-36.015-54.885-57.028,12.739,12.382,7.977-.417,33.991,27.681,3.929-.357-27.978-32.026-20.6-27.859,12.322,12.2,28.216,27.978,44.229,43.694-10.417-10.477,4.465.179,5.834.714-6.25-5.417-25.835-26.49-18.751-16.073-24.049-24.228,3.155-5.3-17.5-25.121,28.574,27.264,9.643,1.726,23.276,11.132-66.791-64.35,21.966,28.335-33.4-24.168-20.18-24.466,6.191-10.656-19.347-43.277,16.192,8.751,25.538,24.7,50.718,47.742,7.739,13.81-12.68-4.405-3.631,9.882,14.525,8.1,12.56-3.631-5.655-25.835.238-6.25,70.005,60.6,57.326,40.36-21.966-20.18-26.788-25.061-35.955-31.49-6.727-8.513,2.262-2.322,3.334-3.572-12.858-13.87-18.156-14.108-28.514-27.324,4.643,3.215,8.87,4.7,23.216,19.168l1.726,2.2c-15.835-22.918,54.587,47.5,16.727,4.167-10.953-10.12,1.964,3.869-5.774-2.024-17.144-15.418-38.574-40.241-43.932-48.516,14.406,14.525,4.107,1.369,10.12,5.06,25.121,22.978,4.286,9.465,20.359,26.133l6.727.714-4.405-3.1L951.9,603.182c5.655,9.882-31.371-28.335-33.4-32.2,7.143,2.441,14.168,4.881,41.313,31.728-27.145-26.847-23.514-28.752-27.443-36.55-11.906-7.322-23.692-22.442-31.967-31.669L930.947,557.7c4.524,11.132,25.181,23.1,42.979,41.908,27.5,28.633,10.834,16.489,5.179,14.584,54.23,45.718-22.561-31.669,4.7-11.191,12.68,12.322,27.145,26.907,23.038,25.478,9.227,7.917-21.847-26.669-5.179-14.584-9.286-7.977-35.9-31.431-44.646-43.991l33.812,27.561c10,3.453-32.2-33.4-44.289-50.242l-23.156-19.168c-27.264-26.907,3.453-3.512-26.907-33.1-2.5.714,20.061,24.407,9.644,17.68-30-27.919-13.573-17.442-28.4-33.753,16.251,8.87,16.489,10.537,42.5,30.657,46.075,44.468,52.623,59.469,112.865,116.854-4.465-11.072-14.406-30.478,5.3-15.656-10.656-16.37-47.206-51.313-74.053-76.434-3.631-6.072,1.012-2.8,8.572,2.917l13.334,15.715c-11.072-18.156-24.7-35.538-19.823-38.634-5.715-9.941-34.05-35.6-56.016-55.957l-2.619-7.262-6.191-5.238C872.729,416.74,884.634,424,887.254,423.407c12.68,12.263,14.7,16.192,22.621,23.633,12.025,8.989,11.251,3.869-.357-9.644,12.739,12.382,40.182,40.836,29.7,34.11-3.1-2.857-7.917-7.322-11.013-10.239l13.811,19.168c-12.441-18.632,21.787,10.656,52.028,40.182-12.442-18.573-33.931-27.621-41.729-42.979,64.648,52.5-7.084-26.311,80.839,53.278-15.239-19.525-41.968-51.016-40.182-56.79-25.418-24.7-7.322-12.084-39.17-42.206-36.669-28.454,42.563,54.528-7.2,11.846,10.12,13.1,32.145,33.4,45.182,47.384.655,3.453-3.631,1.964-19.466-13.037-12.5-18.632-60.778-60.719-57.683-66.017-22.085-20.359-17.62-9.227-24.883-13.394a397.475,397.475,0,0,0-36.134-33.1c-19.525-21.013-34.824-40.6-51.373-59.052,11.906,11.37,18.692,18.037,25.6,24.764l-31.907-39.646c16.787,13.751,35.955,31.431,48.873,45.48,10.12,5-20.121-32.383,18.1,4.643-2.857-8.989-23.573-20.894-34.526-31.074l-1.667-2.083-.238,6.25C782.067,272.5,840.881,321.435,799.211,280c-79.649-78.339,30,19.942,19.644,5.238l55,58.754-10.3-14.7c21.132,23.216,59.231,60.183,80.839,85.125,4.941-1.548,27.026,10.834,18.335-1.726,20.359,18.275,39.348,35.955,58.516,55.242-33.1-38.515,23.454,12.858,27.2,10.953-18.632-23.871-32.264-25.419-58.516-55.183,15.477,13.334,5.3.238.3-6.191,9.763,11.251-12.8-4.405-24.7-11.787,2.619-.6-25.954-27.978-37.205-39.765l-8.691-3.1c-34.943-34.288.476-6.131-16.013-24.585C934.4,369.3,935.412,370.248,966.069,401.2c-10.358-14.763-7.024-18.275,14.465-1.429,13.87,11.191,14.7,16.251,22.918,25.419,22.025,20.359-10.537-14.763,16.489,10.536,19.228,19.347.536,3.334,5.536,9.822l16.489,2.5c12.68,12.322,15,17.918,8.989,14.227,16.727,12.144,11.251,3.81-29.407-40.36C1036.61,431.86,1057.683,447.1,1075.541,465.97ZM752.779,746.645l-2.262-2.976c3.214,2.917,6.25,5.6,8.632,7.322C761.292,753.789,757.839,751.05,752.779,746.645ZM780.1,962.435c-5.357.655-27.026-25.835-39.11-35.479l-.417-.417c2.143,1.786,3.929,3.215,5.655,4.584,2.917,2.857,5.774,5.655,7.441,7.441l-.833-2.619c2.322,1.667,4.584,3.1,6.786,4.524l14.525,14.7A53.614,53.614,0,0,1,780.1,962.435ZM595.089,224.345c-9.941-9.405-16.906-17.263-24.526-25.716,1.726,1.488,3.214,2.679,5.238,4.405,6.548,8.393,17.8,16.966,24.764,25.3A44.82,44.82,0,0,1,595.089,224.345ZM614.2,259.466c.119,1.072-.893.714-6.369-4.524-3.81-3.869-6.846-7.262-9.465-10.358C603.006,248.93,608.185,253.692,614.2,259.466Zm-35.181-35.717c1.667,1.845,3.214,3.631,4.822,5.358,2.143,2.56,4.465,5.238,6.786,7.62,2.56,2.917,5.12,5.834,7.5,8.274a14.441,14.441,0,0,1-1.191-.833l-1.9-1.9a20.433,20.433,0,0,1,1.607,1.667c-4.226-2.8-12.441-9.822-20.537-16.727-3.512-4.048-7.143-8.334-11.251-12.918,2.619,1.131-2.322-4.286-8.155-10.477,3.214,2.2,4.584,2.56,4.762,1.786C566.694,210.951,572.885,217.38,579.016,223.749Zm-8.572-13.037c-2.56-2.619-4.881-5.119-7.2-7.62,2.857,2.56,5.953,5.477,9.048,8.274C571.575,211.01,570.444,210.058,570.444,210.713Zm79.708,73.1c-3.453-2.857-7.262-6.072-12.858-11.072,19.763,16.192-6.191-10.12-9.763-14.168-8.334-5.417-3.81,3.393,6.012,14.287-5.6-5.3-9.525-8.751-12.382-11.251-6.727-8.155-13.037-16.192-21.013-24.764,1.964,3.929,19.823,22.859,7.62,13.811l-10.239-10.12.357-4.524,2.738,2.381c-1.191-1.072-1.786-1.726-2.738-2.56l.06-.714-1.072-1.012.179.119-.893-.774c-4.107-3.81-10.715-10.656-16.549-16.251.536,0-.893-2.083-7.858-9.763,11.906,10.715,24.407,21.906,37.027,33.157,3.393,3.512,5.6,5.477,7.143,6.429l12.56,11.31C642.235,272.265,647.652,279.23,650.153,283.813Zm-1.726,757.794,3.988,4.107c-1.726-1.548-3.274-2.976-4.941-4.584Zm5.536,5.6-2.8-3.334c3.274,3.036,5.715,5.655,7.917,8.1C657.475,1050.477,655.689,1048.811,653.962,1047.2ZM509.249,164.221l-.357-.179-.655-.714Zm-50,13.513c.952,1.429,2.024,2.917,3.036,4.405-3.631-3.929-6.667-7.322-9.7-10.715C454.067,172.853,456.745,175.353,459.246,177.734Zm-51.671-10.358c7.143,8.036,7.5,10.417,5.6,10.239-3.572-3.1-7.8-7.024-11.787-11.072Zm-49.289,8.572c1.25,1.012,2.8,2.441,3.691,3.1l-1.012-.417Zm20.775,81.375c-1.548-.833-3.631-2.917-5.358-4.167-11.489-11.906-22.383-23.514-32.741-34.586C356.8,233.929,370.549,246.906,379.061,257.323Zm-92.924,99.293c-6.846-6.727-13.037-12.977-6.608-8.036C282.209,351.676,284.411,354.295,286.138,356.616ZM172.32,383.583c2.976,3.155,5,5.417,9.227,9.822-2.56-2.322-4.524-3.988-6.429-5.477C173.867,386.083,172.974,384.714,172.32,383.583Zm-4.465,138.106a58.393,58.393,0,0,1,3.869,5.06l-.536-.179c-7.679-7.382-18.1-17.68-27.085-26.133a37.7,37.7,0,0,1-3.1-3.691C147.972,502.937,162.259,516.807,167.855,521.688Zm-43.1,66.136c.119.357,1.012,1.369.952,1.607-1.667-1.667-2.083-2.143-3.215-3.274C123.209,586.693,123.566,586.931,124.756,587.824ZM111.3,693.368l5.417,5,1.964,2.679Zm267.817,430.449c-5.893-6.012-10.06-10.715-12.025-13.751C371.8,1115.3,375.787,1119.828,379.121,1123.816Zm222.874,30.121c.952.833,1.667,1.429,2.679,2.381l.952,1.012C604.614,1156.318,603.125,1154.949,601.994,1153.938Zm-.476-47.325c4.822,5.06,9.286,10.06,11.548,13.037C608.661,1114.887,605.149,1110.839,601.518,1106.613Zm49.885-60.124c3.393,2.679,6.489,5.06,9.286,7.262,1.191,1.369,3.036,3.214,3.691,4.226C661.106,1055.18,656.284,1050.894,651.4,1046.489Zm32.979.3.119.06.06.119Zm5.834-16.727-.774-3.453c2.917,2.976,6.489,6.667,10,10.239l-.3-.238C711.526,1049.7,698.966,1038.215,690.215,1030.059Zm16.192-35.181c14.465,15.061,7.56,9.941,10.715,14.168-6.37-6.727-14.049-14.406-25.478-25.121-6.727-8.274-.833-3.512,7.441,3.512C701.526,989.818,703.907,992.854,706.407,994.878Zm-5.893-35.836c-4.405-3.929-8.274-7.56-11.37-10.358-2.262-2.2-4.227-4.286-6.548-6.489q-4.732-4.911-9.822-10l.238.3-2.441-2.679c-.655-.774-1.31-1.488-2.024-2.262,1.19.476,2.262.833,2.56.6l-.476-.476c.357,0,.238-.536-.06-1.369,2.679,2.024,5.774,4.346,9.465,7.322C692.239,946.3,680.393,938.207,700.513,959.042Zm15.656,6.667-.774-.833,1.191,1.012-6.905-7.263c-2.619-2.917-3.988-4.643-2.024-3.214,7.084,6.905,15.358,15.18,24.168,23.692C730.159,979.044,723.789,973.091,716.169,965.709ZM777.3,766.587c4.227,7.024.655,5.477-2.381,4.405-6.191-6.37-11.965-12.5-17.442-18.632,4.822,3.453,12.5,9.644,3.215-.3,1.726,1.131,3.453,2.441,4.941,3.334C769.269,758.968,772.781,762.48,777.3,766.587Z" transform="translate(5.207 6.982)" fill="url(#linear-gradient)"/>
</svg>
