<svg xmlns="http://www.w3.org/2000/svg" width="37.907" height="37.907" viewBox="0 0 37.907 37.907">
  <path id="icon" d="M1.081,36.907a1.081,1.081,0,1,1,0-2.163H2.235V22.706a1.081,1.081,0,0,1,1.081-1.081H7.641a1.081,1.081,0,0,1,1.081,1.081V34.745h2.163V27.032a1.081,1.081,0,0,1,1.081-1.081h4.325a1.081,1.081,0,0,1,1.081,1.081v7.713h2.162V18.382A1.081,1.081,0,0,1,20.616,17.3h4.325a1.081,1.081,0,0,1,1.081,1.081V34.745h2.163V11.894a1.081,1.081,0,0,1,1.081-1.081h4.325a1.081,1.081,0,0,1,1.081,1.081v22.85h1.153a1.081,1.081,0,0,1,0,2.163Zm9.8-18.525a3.219,3.219,0,0,1,.039-.393l-3.2-1.6a3.237,3.237,0,1,1,1-2.332,3.123,3.123,0,0,1-.04.393l3.2,1.6a3.186,3.186,0,0,1,3.635-.587l4.342-4.342a3.208,3.208,0,0,1-.325-1.39,3.24,3.24,0,0,1,5.04-2.7L28.347,4.2a3.2,3.2,0,0,1-.162-.961,3.25,3.25,0,1,1,1.448,2.7L25.861,8.771a3.2,3.2,0,0,1,.162.961,3.248,3.248,0,0,1-3.244,3.244,3.2,3.2,0,0,1-1.39-.326l-4.342,4.342a3.208,3.208,0,0,1,.326,1.39,3.244,3.244,0,0,1-6.487,0Z" transform="translate(0.5 0.5)" fill="#fff" stroke="rgba(0,0,0,0)" stroke-width="1"/>
</svg>
