<svg xmlns="http://www.w3.org/2000/svg" width="34.016" height="31.973" viewBox="0 0 34.016 31.973">
  <path id="icon" d="M607.035,2565.986a1,1,0,0,1,0-2H610.3l.664-2h12.065l.664,2h3.268a1,1,0,0,1,0,2Zm-4.053-5.995a3,3,0,0,1-2.99-3v-1h34.016v1a3.054,3.054,0,0,1-3.056,3ZM634.007,2554h-6.046v-3a1,1,0,0,0-1-1h-1.54a8.948,8.948,0,0,0-.354-.856l1.089-1.093a1,1,0,0,0,0-1.413l-2.818-2.825a.994.994,0,0,0-1.409,0l-1.09,1.093a9.148,9.148,0,0,0-.853-.356v-1.543a1,1,0,0,0-1-1h-3.986a1,1,0,0,0-1,1v1.543a9.159,9.159,0,0,0-.853.356l-1.09-1.093a.993.993,0,0,0-1.409,0l-2.819,2.825a1,1,0,0,0,0,1.413l1.089,1.093a8.992,8.992,0,0,0-.354.856h-1.54a1,1,0,0,0-1,1v3h-6.046V2537.01a3,3,0,0,1,2.99-3h27.97a3.068,3.068,0,0,1,2.146.878,2.942,2.942,0,0,1,.91,2.119V2554h0Zm-10.033-12.987a2.992,2.992,0,1,0,2.992-3A3,3,0,0,0,623.974,2541.009ZM621.851,2554a4.985,4.985,0,1,0-9.7,0h-4.117v-2h1.278a1,1,0,0,0,.965-.749,6.889,6.889,0,0,1,.738-1.781,1,1,0,0,0-.154-1.214l-.907-.909,1.409-1.413.907.909a.991.991,0,0,0,1.212.153,6.839,6.839,0,0,1,1.775-.74,1,1,0,0,0,.747-.968V2544H618v1.281a1,1,0,0,0,.747.968,6.836,6.836,0,0,1,1.775.74.991.991,0,0,0,1.212-.153l.907-.909,1.409,1.413-.906.909a1,1,0,0,0-.153,1.214,6.877,6.877,0,0,1,.738,1.781,1,1,0,0,0,.966.749h1.278v2Zm-7.648,0a2.99,2.99,0,1,1,5.593,0Z" transform="translate(-599.992 -2534.013)" fill="#fff"/>
</svg>
