<svg xmlns="http://www.w3.org/2000/svg" width="44.289" height="36.907" viewBox="0 0 44.289 36.907">
  <path id="icon" d="M42.991,36.907H1.3A1.267,1.267,0,0,1,0,35.677V12.3H44.289V35.677A1.267,1.267,0,0,1,42.991,36.907ZM29.93,20.914a1.323,1.323,0,0,0-.917.36,1.184,1.184,0,0,0,0,1.739l4.273,4.051-4.273,4.052a1.184,1.184,0,0,0,0,1.739,1.347,1.347,0,0,0,1.835,0l5.19-4.921a1.185,1.185,0,0,0,0-1.74l-5.19-4.921A1.323,1.323,0,0,0,29.93,20.914Zm-5.187,0a1.308,1.308,0,0,0-1.164.679l-5.19,9.842a1.167,1.167,0,0,0-.078.916,1.241,1.241,0,0,0,.659.735,1.354,1.354,0,0,0,.579.13,1.3,1.3,0,0,0,1.162-.68l5.19-9.842a1.166,1.166,0,0,0,.078-.916,1.239,1.239,0,0,0-.659-.735A1.358,1.358,0,0,0,24.743,20.915Zm-10.384,0a1.325,1.325,0,0,0-.917.36L8.252,26.2a1.186,1.186,0,0,0,0,1.74l5.19,4.921a1.348,1.348,0,0,0,1.835,0,1.185,1.185,0,0,0,0-1.739L11,27.065l4.273-4.051a1.185,1.185,0,0,0,0-1.739A1.325,1.325,0,0,0,14.359,20.914ZM6.575,15.993a1.232,1.232,0,1,0,0,2.461h31.14a1.232,1.232,0,1,0,0-2.461ZM44.289,9.842H0V1.23A1.267,1.267,0,0,1,1.3,0H42.991a1.267,1.267,0,0,1,1.3,1.23V9.842ZM37.713,3.692a1.266,1.266,0,0,0-1.295,1.232,1.3,1.3,0,0,0,2.59,0A1.266,1.266,0,0,0,37.713,3.692Zm-5.191,0a1.266,1.266,0,0,0-1.3,1.232,1.3,1.3,0,0,0,2.59,0A1.266,1.266,0,0,0,32.522,3.692Zm-5.186,0a1.266,1.266,0,0,0-1.3,1.232,1.3,1.3,0,0,0,2.59,0A1.266,1.266,0,0,0,27.336,3.692Zm-20.762,0a1.267,1.267,0,0,0-1.3,1.231,1.267,1.267,0,0,0,1.3,1.23H19.55a1.266,1.266,0,0,0,1.3-1.23,1.267,1.267,0,0,0-1.3-1.231Z" fill="#fff"/>
</svg>
